<?xml version="1.0" encoding="utf-8" standalone="no"?>
<!DOCTYPE svg PUBLIC "-//W3C//DTD SVG 1.1//EN"
  "http://www.w3.org/Graphics/SVG/1.1/DTD/svg11.dtd">
<svg xmlns:xlink="http://www.w3.org/1999/xlink" width="419.76pt" height="280.8pt" viewBox="0 0 419.76 280.8" xmlns="http://www.w3.org/2000/svg" version="1.1">
 <metadata>
  <rdf:RDF xmlns:dc="http://purl.org/dc/elements/1.1/" xmlns:cc="http://creativecommons.org/ns#" xmlns:rdf="http://www.w3.org/1999/02/22-rdf-syntax-ns#">
   <cc:Work>
    <dc:type rdf:resource="http://purl.org/dc/dcmitype/StillImage"/>
    <dc:date>2026-09-22T19:50:18.968261</dc:date>
    <dc:format>image/svg+xml</dc:format>
    <dc:creator>
     <cc:Agent>
      <dc:title>Matplotlib v3.11.2, https://matplotlib.org/</dc:title>
     </cc:Agent>
    </dc:creator>
   </cc:Work>
  </rdf:RDF>
 </metadata>
 <defs>
  <style type="text/css">*{stroke-linejoin: round; stroke-linecap: butt}</style>
 </defs>
 <g id="figure_1">
  <g id="patch_1">
   <path d="M 0 280.8 
L 419.76 280.8 
L 419.76 0 
L 0 0 
z
" style="fill: #ffffff"/>
  </g>
  <g id="axes_1">
   <g id="patch_2">
    <path d="M 32.648933 161.813808 
L 121.654843 161.813808 
Q 124.777858 161.813808 124.777858 159.724656 
L 124.777858 100.183824 
Q 124.777858 98.094672 121.654843 98.094672 
L 32.648933 98.094672 
Q 29.525918 98.094672 29.525918 100.183824 
L 29.525918 159.724656 
Q 29.525918 161.813808 32.648933 161.813808 
z
" clip-path="url(#pe8fa1f0361)" style="fill: #cbe3f3; stroke: #454545; stroke-width: 0.9; stroke-linejoin: miter"/>
   </g>
   <g id="patch_3">
    <path d="M 157.569509 187.928208 
L 246.575419 187.928208 
Q 249.698434 187.928208 249.698434 185.839056 
L 249.698434 79.292304 
Q 249.698434 77.203152 246.575419 77.203152 
L 157.569509 77.203152 
Q 154.446494 77.203152 154.446494 79.292304 
L 154.446494 185.839056 
Q 154.446494 187.928208 157.569509 187.928208 
z
" clip-path="url(#pe8fa1f0361)" style="fill: #eeeeee; stroke: #454545; stroke-width: 0.9; stroke-linejoin: miter"/>
   </g>
   <g id="patch_4">
    <path d="M 126.997363 129.95424 
Q 139.611559 129.95424 151.107721 129.95424 
" clip-path="url(#pe8fa1f0361)" style="fill: none; stroke: #454545; stroke-linecap: round"/>
    <path d="M 146.707721 127.75424 
L 151.107721 129.95424 
L 146.707721 132.15424 
z
" clip-path="url(#pe8fa1f0361)" style="fill: #454545; stroke: #454545; stroke-linecap: round"/>
   </g>
   <g id="patch_5">
    <path d="M 298.105157 195.762528 
L 391.014835 195.762528 
Q 394.13785 195.762528 394.13785 193.673376 
L 394.13785 155.024064 
Q 394.13785 152.934912 391.014835 152.934912 
L 298.105157 152.934912 
Q 294.982142 152.934912 294.982142 155.024064 
L 294.982142 193.673376 
Q 294.982142 195.762528 298.105157 195.762528 
z
" clip-path="url(#pe8fa1f0361)" style="fill: #f9dec0; stroke: #454545; stroke-width: 0.9; stroke-linejoin: miter"/>
   </g>
   <g id="patch_6">
    <path d="M 251.093535 132.016264 
Q 272.339018 152.150277 292.77299 171.515232 
" clip-path="url(#pe8fa1f0361)" style="fill: none; stroke: #454545; stroke-linecap: round"/>
    <path d="M 291.092606 166.89178 
L 292.77299 171.515232 
L 288.065997 170.085468 
z
" clip-path="url(#pe8fa1f0361)" style="fill: #454545; stroke: #454545; stroke-linecap: round"/>
   </g>
   <g id="patch_7">
    <path d="M 298.105157 122.642208 
L 391.014835 122.642208 
Q 394.13785 122.642208 394.13785 120.553056 
L 394.13785 81.903744 
Q 394.13785 79.814592 391.014835 79.814592 
L 298.105157 79.814592 
Q 294.982142 79.814592 294.982142 81.903744 
L 294.982142 120.553056 
Q 294.982142 122.642208 298.105157 122.642208 
z
" clip-path="url(#pe8fa1f0361)" style="fill: #f9dec0; stroke: #454545; stroke-width: 0.9; stroke-linejoin: miter"/>
   </g>
   <g id="patch_8">
    <path d="M 251.476669 128.385049 
Q 272.339904 115.591556 292.250031 103.382515 
" clip-path="url(#pe8fa1f0361)" style="fill: none; stroke: #454545; stroke-linecap: round"/>
    <path d="M 287.349043 103.80715 
L 292.250031 103.382515 
L 289.649146 107.558086 
z
" clip-path="url(#pe8fa1f0361)" style="fill: #454545; stroke: #454545; stroke-linecap: round"/>
   </g>
   <g id="text_1">
    <!-- 對照配置：雙埠網路卡共用一個 PCIe 插槽 -->
    <g style="fill: #252525" transform="translate(30.306672 30.810078) scale(0.14 -0.14)">
     <defs>
      <path id="SourceHanSansCN-Regular-3042" d="M 6106 3654 
L 6106 3206 
L 3494 3206 
L 3494 3654 
L 6106 3654 
z
M 3526 3994 
L 3526 3584 
L 294 3584 
L 294 3994 
L 3526 3994 
z
M 3328 2618 
L 3328 2208 
L 506 2208 
L 506 2618 
L 3328 2618 
z
M 3194 1555 
L 3194 1152 
L 672 1152 
L 672 1555 
L 3194 1555 
z
M 5485 90 
Q 5485 -134 5424 -249 
Q 5363 -365 5222 -422 
Q 5082 -480 4842 -496 
Q 4602 -512 4205 -512 
Q 4198 -448 4166 -368 
Q 4134 -288 4102 -205 
Q 4070 -122 4032 -58 
Q 4326 -64 4560 -64 
Q 4794 -64 4864 -58 
Q 4954 -58 4986 -26 
Q 5018 6 5018 83 
L 5018 5357 
L 5485 5357 
L 5485 90 
z
M 4077 2694 
Q 4218 2464 4336 2201 
Q 4454 1939 4544 1689 
Q 4634 1440 4666 1242 
L 4230 1082 
Q 4198 1280 4115 1533 
Q 4032 1786 3917 2054 
Q 3802 2323 3667 2554 
L 4077 2694 
z
M 685 5171 
Q 864 4979 1040 4745 
Q 1216 4512 1293 4333 
L 966 4115 
Q 890 4294 723 4537 
Q 557 4781 378 4973 
L 685 5171 
z
M 1197 3565 
Q 1344 3405 1488 3200 
Q 1632 2995 1696 2835 
L 1338 2637 
Q 1280 2797 1139 3005 
Q 998 3213 851 3386 
L 1197 3565 
z
M 1670 5370 
L 1670 3840 
L 1274 3840 
L 1274 5370 
L 1670 5370 
z
M 2138 2483 
L 2138 173 
L 1690 173 
L 1690 2483 
L 2138 2483 
z
M 2554 5370 
L 2554 3840 
L 2157 3840 
L 2157 5370 
L 2554 5370 
z
M 294 224 
Q 691 269 1216 333 
Q 1741 397 2329 473 
Q 2918 550 3501 627 
L 3514 205 
Q 2950 128 2380 48 
Q 1811 -32 1292 -102 
Q 774 -173 358 -230 
L 294 224 
z
M 3526 4954 
Q 3354 4730 3165 4499 
Q 2976 4269 2816 4109 
L 2522 4294 
Q 2624 4410 2739 4563 
Q 2854 4717 2960 4877 
Q 3066 5037 3142 5165 
L 3526 4954 
z
M 3027 3392 
Q 2899 3136 2755 2870 
Q 2611 2605 2483 2413 
L 2125 2554 
Q 2202 2688 2294 2864 
Q 2387 3040 2470 3219 
Q 2554 3398 2605 3546 
L 3027 3392 
z
" transform="scale(0.015625)"/>
      <path id="SourceHanSansCN-Regular-4583" d="M 1050 5101 
L 1050 1107 
L 595 1107 
L 595 5101 
L 1050 5101 
z
M 2458 5101 
L 2458 1434 
L 838 1434 
L 838 1869 
L 2010 1869 
L 2010 4672 
L 838 4672 
L 838 5101 
L 2458 5101 
z
M 2240 3546 
L 2240 3123 
L 832 3123 
L 832 3546 
L 2240 3546 
z
M 5606 5114 
L 5606 4685 
L 2739 4685 
L 2739 5114 
L 5606 5114 
z
M 5914 5114 
Q 5914 5114 5910 5043 
Q 5907 4973 5901 4928 
Q 5875 4467 5840 4169 
Q 5805 3872 5757 3709 
Q 5709 3546 5645 3469 
Q 5568 3392 5481 3360 
Q 5395 3328 5267 3315 
Q 5158 3309 4960 3309 
Q 4762 3309 4538 3322 
Q 4531 3411 4499 3523 
Q 4467 3635 4416 3718 
Q 4627 3699 4806 3696 
Q 4986 3693 5062 3693 
Q 5126 3693 5174 3702 
Q 5222 3712 5254 3744 
Q 5306 3795 5338 3932 
Q 5370 4070 5398 4339 
Q 5427 4608 5453 5043 
L 5453 5114 
L 5914 5114 
z
M 4326 4979 
Q 4288 4627 4195 4336 
Q 4102 4045 3932 3811 
Q 3763 3578 3488 3398 
Q 3213 3219 2803 3098 
Q 2765 3174 2685 3283 
Q 2605 3392 2534 3456 
Q 2899 3558 3142 3699 
Q 3386 3840 3526 4029 
Q 3667 4218 3744 4454 
Q 3821 4691 3853 4979 
L 4326 4979 
z
M 3379 1632 
L 5254 1632 
L 5254 2605 
L 3379 2605 
L 3379 1632 
z
M 5728 3008 
L 5728 1229 
L 2931 1229 
L 2931 3008 
L 5728 3008 
z
M 2618 845 
Q 2662 640 2697 406 
Q 2733 173 2755 -41 
Q 2778 -256 2778 -416 
L 2310 -486 
Q 2310 -326 2291 -102 
Q 2272 122 2246 355 
Q 2221 589 2176 800 
L 2618 845 
z
M 3994 902 
Q 4077 704 4160 473 
Q 4243 243 4310 25 
Q 4378 -192 4410 -365 
L 3936 -474 
Q 3904 -307 3846 -83 
Q 3789 141 3712 377 
Q 3635 614 3546 819 
L 3994 902 
z
M 5286 1030 
Q 5440 826 5600 579 
Q 5760 333 5897 99 
Q 6035 -134 6112 -320 
L 5664 -525 
Q 5587 -339 5452 -99 
Q 5318 141 5161 390 
Q 5005 640 4851 851 
L 5286 1030 
z
M 1574 851 
Q 1466 621 1325 365 
Q 1184 109 1033 -124 
Q 883 -358 736 -544 
L 275 -339 
Q 422 -179 576 38 
Q 730 256 870 502 
Q 1011 749 1114 986 
L 1574 851 
z
" transform="scale(0.015625)"/>
      <path id="SourceHanSansCN-Regular-654d" d="M 5709 3078 
L 5709 2611 
L 3789 2611 
L 3789 3078 
L 5709 3078 
z
M 4038 294 
Q 4038 115 4102 60 
Q 4166 6 4390 6 
Q 4442 6 4573 6 
Q 4704 6 4867 6 
Q 5030 6 5174 6 
Q 5318 6 5382 6 
Q 5530 6 5600 86 
Q 5670 166 5702 400 
Q 5734 634 5747 1094 
Q 5811 1056 5888 1011 
Q 5965 966 6048 937 
Q 6131 909 6195 890 
Q 6163 371 6092 80 
Q 6022 -211 5865 -329 
Q 5709 -448 5414 -448 
Q 5376 -448 5267 -448 
Q 5158 -448 5014 -448 
Q 4870 -448 4729 -448 
Q 4589 -448 4483 -448 
Q 4378 -448 4339 -448 
Q 4045 -448 3875 -384 
Q 3706 -320 3635 -160 
Q 3565 0 3565 294 
L 3565 3078 
L 4038 3078 
L 4038 294 
z
M 5952 5088 
L 5952 2176 
L 5491 2176 
L 5491 4627 
L 3546 4627 
L 3546 5088 
L 5952 5088 
z
M 3085 3955 
L 3085 -397 
L 2688 -397 
L 2688 3539 
L 915 3539 
L 915 -486 
L 525 -486 
L 525 3955 
L 3085 3955 
z
M 2880 1370 
L 2880 1011 
L 723 1011 
L 723 1370 
L 2880 1370 
z
M 2880 346 
L 2880 -45 
L 723 -45 
L 723 346 
L 2880 346 
z
M 3232 5126 
L 3232 4698 
L 365 4698 
L 365 5126 
L 3232 5126 
z
M 1632 5011 
L 1632 3654 
L 1286 3654 
L 1286 5011 
L 1632 5011 
z
M 2362 5011 
L 2362 3654 
L 2010 3654 
L 2010 5011 
L 2362 5011 
z
M 1619 3027 
Q 1619 2829 1580 2605 
Q 1542 2381 1436 2163 
Q 1331 1946 1126 1760 
Q 1094 1798 1027 1859 
Q 960 1920 915 1946 
Q 1101 2106 1193 2294 
Q 1286 2483 1318 2675 
Q 1350 2867 1350 3034 
L 1350 3661 
L 1619 3661 
L 1619 3027 
z
M 2246 2336 
Q 2246 2272 2265 2256 
Q 2285 2240 2342 2240 
Q 2355 2240 2409 2240 
Q 2464 2240 2518 2240 
Q 2573 2240 2598 2240 
Q 2682 2240 2694 2259 
Q 2739 2227 2809 2198 
Q 2880 2170 2944 2150 
Q 2918 2054 2851 2009 
Q 2784 1965 2643 1965 
Q 2624 1965 2550 1965 
Q 2477 1965 2409 1965 
Q 2342 1965 2317 1965 
Q 2118 1965 2048 2032 
Q 1978 2099 1978 2330 
L 1978 3661 
L 2246 3661 
L 2246 2336 
z
" transform="scale(0.015625)"/>
      <path id="SourceHanSansCN-Regular-5380" d="M 4166 4211 
L 5248 4211 
L 5248 4787 
L 4166 4787 
L 4166 4211 
z
M 2669 4211 
L 3725 4211 
L 3725 4787 
L 2669 4787 
L 2669 4211 
z
M 1210 4211 
L 2227 4211 
L 2227 4787 
L 1210 4787 
L 1210 4211 
z
M 5728 5133 
L 5728 3859 
L 749 3859 
L 749 5133 
L 5728 5133 
z
M 5901 3488 
L 5901 3110 
L 435 3110 
L 435 3488 
L 5901 3488 
z
M 3411 3949 
Q 3360 3616 3280 3241 
Q 3200 2867 3136 2592 
L 2682 2592 
Q 2726 2778 2771 3018 
Q 2816 3258 2854 3510 
Q 2893 3763 2918 3981 
L 3411 3949 
z
M 6048 38 
L 6048 -320 
L 365 -320 
L 365 38 
L 6048 38 
z
M 4934 2048 
L 4934 1760 
L 1446 1760 
L 1446 2048 
L 4934 2048 
z
M 4922 1389 
L 4922 1101 
L 1472 1101 
L 1472 1389 
L 4922 1389 
z
M 4947 723 
L 4947 435 
L 1498 435 
L 1498 723 
L 4947 723 
z
M 5171 2733 
L 5171 -160 
L 4698 -160 
L 4698 2406 
L 1677 2406 
L 1677 -160 
L 1216 -160 
L 1216 2733 
L 5171 2733 
z
" transform="scale(0.015625)"/>
      <path id="SourceHanSansCN-Regular-7782" d="M 1600 3110 
Q 1408 3110 1261 3238 
Q 1114 3366 1114 3584 
Q 1114 3808 1261 3939 
Q 1408 4070 1600 4070 
Q 1792 4070 1939 3939 
Q 2086 3808 2086 3584 
Q 2086 3366 1939 3238 
Q 1792 3110 1600 3110 
z
M 1600 -26 
Q 1408 -26 1261 105 
Q 1114 237 1114 454 
Q 1114 672 1261 803 
Q 1408 934 1600 934 
Q 1792 934 1939 803 
Q 2086 672 2086 454 
Q 2086 237 1939 105 
Q 1792 -26 1600 -26 
z
" transform="scale(0.015625)"/>
      <path id="SourceHanSansCN-Regular-6ad7" d="M 2355 4493 
L 2355 2374 
L 1952 2374 
L 1952 4493 
L 2355 4493 
z
M 2989 3942 
L 2989 3622 
L 1043 3622 
L 1043 3942 
L 2989 3942 
z
M 2989 3245 
L 2989 2925 
L 1043 2925 
L 1043 3245 
L 2989 3245 
z
M 3200 2547 
L 3200 2214 
L 813 2214 
L 813 2547 
L 3200 2547 
z
M 1568 5274 
Q 1382 4755 1100 4275 
Q 819 3795 493 3469 
Q 467 3507 419 3571 
Q 371 3635 316 3699 
Q 262 3763 224 3795 
Q 518 4090 771 4506 
Q 1024 4922 1178 5376 
L 1568 5274 
z
M 5075 4512 
L 5075 2355 
L 4672 2355 
L 4672 4512 
L 5075 4512 
z
M 5818 3936 
L 5818 3616 
L 3802 3616 
L 3802 3936 
L 5818 3936 
z
M 5818 3245 
L 5818 2925 
L 3802 2925 
L 3802 3245 
L 5818 3245 
z
M 6054 2541 
L 6054 2208 
L 3565 2208 
L 3565 2541 
L 6054 2541 
z
M 4307 5267 
Q 4122 4742 3830 4252 
Q 3539 3763 3213 3418 
Q 3187 3462 3136 3523 
Q 3085 3584 3030 3648 
Q 2976 3712 2931 3744 
Q 3238 4045 3494 4477 
Q 3750 4909 3910 5376 
L 4307 5267 
z
M 3123 4646 
L 3123 4307 
L 851 4307 
L 1158 4646 
L 3123 4646 
z
M 1229 4557 
L 1229 2368 
L 813 2368 
L 813 4243 
L 1229 4557 
z
M 5952 4646 
L 5952 4307 
L 3590 4307 
L 3891 4646 
L 5952 4646 
z
M 3981 4570 
L 3981 2368 
L 3565 2368 
L 3565 4243 
L 3981 4570 
z
M 5030 1837 
L 5030 1434 
L 659 1434 
L 659 1837 
L 5030 1837 
z
M 4973 1837 
L 5069 1862 
L 5382 1658 
Q 5050 1139 4518 764 
Q 3987 390 3331 134 
Q 2675 -122 1952 -278 
Q 1229 -435 499 -518 
Q 474 -422 416 -294 
Q 358 -166 301 -77 
Q 992 -19 1680 115 
Q 2368 250 2992 470 
Q 3616 691 4102 1014 
Q 4589 1338 4870 1766 
L 4870 1837 
L 4973 1837 
z
M 1843 1594 
Q 2234 1146 2877 819 
Q 3520 493 4339 291 
Q 5158 90 6061 0 
Q 6016 -51 5958 -134 
Q 5901 -218 5849 -304 
Q 5798 -390 5760 -461 
Q 5075 -384 4435 -233 
Q 3795 -83 3232 144 
Q 2669 371 2205 681 
Q 1741 992 1408 1389 
L 1843 1594 
z
M 4902 5318 
Q 5005 5146 5107 4931 
Q 5210 4717 5261 4570 
L 4851 4435 
Q 4806 4589 4710 4806 
Q 4614 5024 4512 5216 
L 4902 5318 
z
M 2163 5344 
Q 2272 5171 2374 4953 
Q 2477 4736 2528 4589 
L 2112 4461 
Q 2067 4614 1971 4832 
Q 1875 5050 1773 5235 
L 2163 5344 
z
" transform="scale(0.015625)"/>
      <path id="SourceHanSansCN-Regular-2c1a" d="M 6150 1094 
L 6150 666 
L 2048 666 
L 2048 1094 
L 6150 1094 
z
M 4333 1722 
L 4333 -512 
L 3853 -512 
L 3853 1722 
L 4333 1722 
z
M 3040 4826 
L 3040 1664 
L 2573 1664 
L 2573 4826 
L 3040 4826 
z
M 5594 4826 
L 5594 3443 
L 2822 3443 
L 2822 3821 
L 5126 3821 
L 5126 4448 
L 2822 4448 
L 2822 4826 
L 5594 4826 
z
M 5760 3078 
L 5760 1664 
L 2810 1664 
L 2810 2042 
L 5293 2042 
L 5293 2688 
L 2810 2688 
L 2810 3078 
L 5760 3078 
z
M 4384 5312 
Q 4275 5107 4160 4915 
Q 4045 4723 3942 4582 
L 3533 4678 
Q 3622 4838 3715 5043 
Q 3808 5248 3859 5402 
L 4384 5312 
z
M 2253 3846 
L 2253 3392 
L 314 3392 
L 314 3846 
L 2253 3846 
z
M 1549 5350 
L 1549 1178 
L 1094 1178 
L 1094 5350 
L 1549 5350 
z
M 237 1018 
Q 486 1114 812 1245 
Q 1139 1376 1504 1529 
Q 1869 1683 2240 1837 
L 2349 1408 
Q 1837 1178 1318 954 
Q 800 730 378 550 
L 237 1018 
z
" transform="scale(0.015625)"/>
      <path id="SourceHanSansCN-Regular-51c3" d="M 5190 4346 
Q 5094 4058 4985 3747 
Q 4877 3437 4781 3219 
L 4486 3315 
Q 4550 3462 4614 3667 
Q 4678 3872 4739 4080 
Q 4800 4288 4826 4448 
L 5190 4346 
z
M 3814 4461 
Q 3936 4250 4032 3997 
Q 4128 3744 4166 3552 
L 3846 3437 
Q 3821 3629 3725 3888 
Q 3629 4147 3520 4365 
L 3814 4461 
z
M 5696 5069 
L 5696 4646 
L 3104 4646 
L 3104 -518 
L 2669 -518 
L 2669 5069 
L 5696 5069 
z
M 6003 38 
Q 6003 -147 5955 -252 
Q 5907 -358 5786 -416 
Q 5670 -474 5468 -483 
Q 5267 -493 4973 -493 
Q 4960 -410 4918 -282 
Q 4877 -154 4832 -70 
Q 5037 -77 5216 -77 
Q 5395 -77 5453 -70 
Q 5562 -70 5562 45 
L 5562 5069 
L 6003 5069 
L 6003 38 
z
M 5395 3386 
L 5395 3002 
L 3290 3002 
L 3290 3386 
L 5395 3386 
z
M 5318 2330 
L 5318 1946 
L 3366 1946 
L 3366 2330 
L 5318 2330 
z
M 4307 3034 
Q 4410 2906 4493 2736 
Q 4576 2566 4608 2438 
L 4256 2278 
Q 4230 2406 4156 2579 
Q 4083 2752 3981 2893 
L 4307 3034 
z
M 3994 2170 
L 3994 1094 
L 5299 1094 
L 5299 717 
L 3597 717 
L 3597 2170 
L 3994 2170 
z
M 2170 2938 
Q 2246 2714 2320 2461 
Q 2394 2208 2451 1977 
Q 2509 1747 2528 1574 
L 2163 1466 
Q 2144 1638 2089 1878 
Q 2035 2118 1968 2374 
Q 1901 2630 1824 2854 
L 2170 2938 
z
M 1530 1267 
Q 1587 928 1635 534 
Q 1683 141 1696 -147 
L 1325 -218 
Q 1318 77 1273 473 
Q 1229 870 1171 1210 
L 1530 1267 
z
M 922 1197 
Q 870 774 784 342 
Q 698 -90 595 -390 
Q 538 -358 422 -316 
Q 307 -275 230 -256 
Q 346 45 419 451 
Q 493 858 538 1261 
L 922 1197 
z
M 378 2982 
Q 365 3027 339 3107 
Q 314 3187 285 3267 
Q 256 3347 230 3405 
Q 314 3424 403 3517 
Q 493 3610 589 3757 
Q 640 3827 739 3990 
Q 838 4154 966 4378 
Q 1094 4602 1219 4858 
Q 1344 5114 1440 5376 
L 1869 5203 
Q 1702 4845 1504 4489 
Q 1306 4134 1094 3811 
Q 883 3488 672 3232 
L 672 3219 
Q 672 3219 627 3193 
Q 582 3168 521 3133 
Q 461 3098 419 3056 
Q 378 3014 378 2982 
z
M 365 3328 
L 595 3475 
L 1747 3578 
Q 1728 3482 1721 3370 
Q 1715 3258 1709 3187 
Q 1318 3142 1072 3110 
Q 826 3078 688 3056 
Q 550 3034 483 3018 
Q 416 3002 378 2982 
L 365 3328 
z
M 422 1536 
Q 410 1581 384 1657 
Q 358 1734 329 1820 
Q 301 1907 275 1965 
Q 371 1984 486 2099 
Q 602 2214 742 2394 
Q 819 2483 969 2678 
Q 1120 2874 1302 3155 
Q 1485 3437 1670 3757 
Q 1856 4077 2010 4403 
L 2413 4173 
Q 2170 3738 1888 3306 
Q 1606 2874 1312 2486 
Q 1018 2099 710 1779 
L 710 1766 
Q 710 1766 668 1747 
Q 627 1728 566 1689 
Q 506 1651 464 1612 
Q 422 1574 422 1536 
z
M 403 1894 
L 634 2048 
L 2266 2259 
Q 2259 2163 2249 2051 
Q 2240 1939 2246 1869 
Q 1690 1786 1347 1731 
Q 1005 1677 819 1641 
Q 634 1606 550 1584 
Q 467 1562 422 1536 
L 403 1894 
z
M 2106 1427 
Q 2208 1146 2310 813 
Q 2413 480 2464 237 
L 2118 122 
Q 2074 365 1974 704 
Q 1875 1043 1773 1331 
L 2106 1427 
z
" transform="scale(0.015625)"/>
      <path id="SourceHanSansCN-Regular-61ed" d="M 5504 160 
L 5504 -262 
L 3392 -262 
L 3392 160 
L 5504 160 
z
M 5395 4723 
L 5395 4301 
L 3706 4301 
L 3706 4723 
L 5395 4723 
z
M 5722 1811 
L 5722 -480 
L 5267 -480 
L 5267 1395 
L 3654 1395 
L 3654 -499 
L 3206 -499 
L 3206 1811 
L 5722 1811 
z
M 5312 4723 
L 5402 4742 
L 5702 4608 
Q 5517 4019 5219 3529 
Q 4922 3040 4534 2646 
Q 4147 2253 3712 1958 
Q 3277 1664 2822 1466 
Q 2778 1549 2698 1661 
Q 2618 1773 2541 1837 
Q 2970 1997 3379 2265 
Q 3789 2534 4153 2896 
Q 4518 3258 4793 3696 
Q 5069 4134 5222 4640 
L 5222 4723 
L 5312 4723 
z
M 4275 5267 
Q 4134 4838 3932 4428 
Q 3731 4019 3491 3673 
Q 3251 3328 2989 3053 
Q 2950 3098 2880 3155 
Q 2810 3213 2739 3273 
Q 2669 3334 2611 3366 
Q 3008 3725 3321 4259 
Q 3635 4794 3821 5382 
L 4275 5267 
z
M 3693 4454 
Q 3827 4109 4060 3747 
Q 4294 3386 4611 3043 
Q 4928 2701 5334 2416 
Q 5741 2131 6227 1946 
Q 6182 1901 6124 1830 
Q 6067 1760 6016 1683 
Q 5965 1606 5926 1542 
Q 5434 1760 5027 2067 
Q 4621 2374 4307 2736 
Q 3994 3098 3760 3472 
Q 3526 3846 3379 4192 
L 3693 4454 
z
M 979 2534 
L 979 218 
L 570 218 
L 570 2534 
L 979 2534 
z
M 998 3558 
L 2208 3558 
L 2208 4685 
L 998 4685 
L 998 3558 
z
M 2650 5107 
L 2650 3136 
L 570 3136 
L 570 5107 
L 2650 5107 
z
M 1914 3347 
L 1914 422 
L 1478 422 
L 1478 3347 
L 1914 3347 
z
M 243 269 
Q 557 326 966 419 
Q 1376 512 1837 617 
Q 2298 723 2758 832 
L 2803 410 
Q 2144 243 1491 83 
Q 838 -77 326 -198 
L 243 269 
z
M 2714 2214 
L 2714 1786 
L 1632 1786 
L 1632 2214 
L 2714 2214 
z
" transform="scale(0.015625)"/>
      <path id="SourceHanSansCN-Regular-27a5" d="M 6074 3021 
L 6074 2547 
L 333 2547 
L 333 3021 
L 6074 3021 
z
M 5427 4467 
L 5427 4006 
L 3110 4006 
L 3110 4467 
L 5427 4467 
z
M 3309 5376 
L 3309 2797 
L 2810 2797 
L 2810 5376 
L 3309 5376 
z
M 3328 2694 
L 3328 -512 
L 2829 -512 
L 2829 2694 
L 3328 2694 
z
M 3667 1856 
Q 3917 1760 4208 1645 
Q 4499 1530 4790 1408 
Q 5082 1286 5341 1171 
Q 5600 1056 5786 960 
L 5523 538 
Q 5344 634 5091 755 
Q 4838 877 4547 1005 
Q 4256 1133 3965 1257 
Q 3674 1382 3418 1485 
L 3667 1856 
z
" transform="scale(0.015625)"/>
      <path id="SourceHanSansCN-Regular-25bd" d="M 2285 5318 
L 2285 1741 
L 1792 1741 
L 1792 5318 
L 2285 5318 
z
M 4608 5318 
L 4608 1741 
L 4115 1741 
L 4115 5318 
L 4608 5318 
z
M 6118 2035 
L 6118 1568 
L 307 1568 
L 307 2035 
L 6118 2035 
z
M 5888 4019 
L 5888 3558 
L 570 3558 
L 570 4019 
L 5888 4019 
z
M 4179 1210 
Q 4474 998 4816 739 
Q 5158 480 5468 227 
Q 5779 -26 5984 -224 
L 5530 -512 
Q 5338 -320 5037 -61 
Q 4736 198 4400 467 
Q 4064 736 3757 960 
L 4179 1210 
z
M 2605 1011 
Q 2374 730 2073 451 
Q 1773 173 1437 -76 
Q 1101 -326 774 -512 
Q 730 -461 662 -400 
Q 595 -339 524 -278 
Q 454 -218 397 -179 
Q 717 -6 1040 224 
Q 1363 454 1644 707 
Q 1926 960 2106 1197 
L 2605 1011 
z
" transform="scale(0.015625)"/>
      <path id="SourceHanSansCN-Regular-493f" d="M 5395 4928 
L 5395 4467 
L 1254 4467 
L 1254 4928 
L 5395 4928 
z
M 5382 3437 
L 5382 2982 
L 1254 2982 
L 1254 3437 
L 5382 3437 
z
M 5395 1907 
L 5395 1453 
L 1216 1453 
L 1216 1907 
L 5395 1907 
z
M 1453 2605 
Q 1453 2240 1421 1824 
Q 1389 1408 1302 982 
Q 1216 557 1040 166 
Q 864 -224 576 -544 
Q 544 -493 473 -432 
Q 403 -371 332 -313 
Q 262 -256 205 -230 
Q 474 70 627 422 
Q 781 774 857 1148 
Q 934 1523 956 1894 
Q 979 2266 979 2605 
L 979 4928 
L 1453 4928 
L 1453 2605 
z
M 5677 141 
Q 5677 -90 5609 -211 
Q 5542 -333 5382 -397 
Q 5222 -454 4934 -467 
Q 4646 -480 4192 -474 
Q 4173 -384 4125 -246 
Q 4077 -109 4026 -13 
Q 4250 -19 4458 -22 
Q 4666 -26 4819 -22 
Q 4973 -19 5030 -19 
Q 5126 -13 5164 19 
Q 5203 51 5203 141 
L 5203 4928 
L 5677 4928 
L 5677 141 
z
M 3475 4755 
L 3475 -454 
L 2989 -454 
L 2989 4755 
L 3475 4755 
z
" transform="scale(0.015625)"/>
      <path id="SourceHanSansCN-Regular-224c" d="M 6144 2758 
L 6144 2234 
L 282 2234 
L 282 2758 
L 6144 2758 
z
" transform="scale(0.015625)"/>
      <path id="SourceHanSansCN-Regular-2457" d="M 5933 4992 
L 5933 -461 
L 5472 -461 
L 5472 4563 
L 2630 4563 
L 2630 -512 
L 2189 -512 
L 2189 4992 
L 5933 4992 
z
M 5254 3629 
L 5254 3258 
L 2899 3258 
L 2899 3629 
L 5254 3629 
z
M 5722 307 
L 5722 -128 
L 2432 -128 
L 2432 307 
L 5722 307 
z
M 4256 4358 
L 4256 2330 
L 3866 2330 
L 3866 4358 
L 4256 4358 
z
M 3533 1197 
L 4614 1197 
L 4614 2195 
L 3533 2195 
L 3533 1197 
z
M 4998 2554 
L 4998 838 
L 3162 838 
L 3162 2554 
L 4998 2554 
z
M 1965 5216 
Q 1779 4672 1526 4137 
Q 1274 3603 979 3129 
Q 685 2656 365 2291 
Q 339 2349 297 2441 
Q 256 2534 205 2630 
Q 154 2726 109 2784 
Q 397 3098 659 3510 
Q 922 3923 1142 4393 
Q 1363 4864 1523 5344 
L 1965 5216 
z
M 1440 4230 
L 1446 4224 
L 1446 -518 
L 986 -518 
L 986 3782 
L 1440 4230 
z
" transform="scale(0.015625)"/>
      <path id="SourceHanSansCN-Regular-1" transform="scale(0.015625)"/>
      <path id="SourceHanSansCN-Regular-31" d="M 646 0 
L 646 4691 
L 1984 4691 
Q 2509 4691 2905 4560 
Q 3302 4429 3520 4128 
Q 3738 3827 3738 3315 
Q 3738 2822 3520 2502 
Q 3302 2182 2912 2025 
Q 2522 1869 2010 1869 
L 1235 1869 
L 1235 0 
L 646 0 
z
M 1235 2349 
L 1933 2349 
Q 2547 2349 2848 2579 
Q 3149 2810 3149 3315 
Q 3149 3827 2838 4019 
Q 2528 4211 1907 4211 
L 1235 4211 
L 1235 2349 
z
" transform="scale(0.015625)"/>
      <path id="SourceHanSansCN-Regular-24" d="M 2426 -83 
Q 1984 -83 1613 80 
Q 1242 243 960 556 
Q 678 870 524 1321 
Q 371 1773 371 2342 
Q 371 2912 528 3363 
Q 685 3814 966 4128 
Q 1248 4442 1625 4608 
Q 2003 4774 2451 4774 
Q 2880 4774 3206 4604 
Q 3533 4435 3738 4198 
L 3418 3840 
Q 3232 4038 2992 4147 
Q 2752 4256 2458 4256 
Q 2016 4256 1683 4025 
Q 1350 3795 1164 3369 
Q 979 2944 979 2362 
Q 979 1766 1161 1334 
Q 1344 902 1677 668 
Q 2010 435 2464 435 
Q 2790 435 3052 563 
Q 3315 691 3539 934 
L 3846 589 
Q 3565 262 3225 89 
Q 2886 -83 2426 -83 
z
" transform="scale(0.015625)"/>
      <path id="SourceHanSansCN-Regular-2a" d="M 646 0 
L 646 4691 
L 1235 4691 
L 1235 0 
L 646 0 
z
" transform="scale(0.015625)"/>
      <path id="SourceHanSansCN-Regular-46" d="M 1997 -83 
Q 1530 -83 1152 134 
Q 774 352 553 758 
Q 333 1165 333 1734 
Q 333 2163 461 2499 
Q 589 2835 809 3075 
Q 1030 3315 1312 3440 
Q 1594 3565 1888 3565 
Q 2336 3565 2643 3366 
Q 2950 3168 3113 2800 
Q 3277 2432 3277 1933 
Q 3277 1837 3270 1753 
Q 3264 1670 3251 1600 
L 755 1600 
L 749 2016 
L 2765 2016 
Q 2765 2541 2537 2819 
Q 2310 3098 1901 3098 
Q 1658 3098 1424 2954 
Q 1190 2810 1036 2512 
Q 883 2214 890 1741 
Q 896 1293 1056 989 
Q 1216 685 1481 534 
Q 1747 384 2061 384 
Q 2317 384 2534 451 
Q 2752 518 2938 640 
L 3136 269 
Q 2912 122 2630 19 
Q 2349 -83 1997 -83 
z
" transform="scale(0.015625)"/>
      <path id="SourceHanSansCN-Regular-37fd" d="M 5754 4947 
Q 5466 4858 5098 4787 
Q 4730 4717 4317 4665 
Q 3904 4614 3488 4582 
Q 3072 4550 2694 4538 
Q 2682 4621 2643 4733 
Q 2605 4845 2566 4922 
Q 2944 4947 3350 4982 
Q 3757 5018 4153 5069 
Q 4550 5120 4899 5184 
Q 5248 5248 5504 5331 
L 5754 4947 
z
M 3738 2592 
Q 3494 2496 3200 2409 
Q 2906 2323 2650 2272 
Q 2630 2342 2595 2438 
Q 2560 2534 2522 2618 
Q 2771 2694 3046 2790 
Q 3322 2886 3501 2989 
L 3738 2592 
z
M 6074 3866 
L 6074 3430 
L 2349 3430 
L 2349 3866 
L 6074 3866 
z
M 4435 4896 
L 4435 26 
L 3994 26 
L 3994 4896 
L 4435 4896 
z
M 2957 2477 
L 2957 -506 
L 2528 -506 
L 2528 2618 
L 2957 2477 
z
M 5862 2771 
L 5862 -518 
L 5421 -518 
L 5421 2355 
L 4678 2355 
L 4678 2771 
L 5862 2771 
z
M 3718 1549 
L 3718 1139 
L 2746 1139 
L 2746 1549 
L 3718 1549 
z
M 5664 1555 
L 5664 1146 
L 4685 1146 
L 4685 1555 
L 5664 1555 
z
M 5549 243 
L 5549 -192 
L 2707 -192 
L 2707 243 
L 5549 243 
z
M 237 1971 
Q 595 2061 1100 2205 
Q 1606 2349 2138 2502 
L 2189 2067 
Q 1709 1920 1225 1773 
Q 742 1626 352 1504 
L 237 1971 
z
M 2106 4083 
L 2106 3635 
L 346 3635 
L 346 4083 
L 2106 4083 
z
M 1491 51 
Q 1491 -134 1449 -236 
Q 1408 -339 1299 -397 
Q 1190 -454 1024 -470 
Q 858 -486 602 -486 
Q 589 -397 550 -265 
Q 512 -134 461 -45 
Q 627 -51 758 -48 
Q 890 -45 934 -45 
Q 1024 -45 1024 51 
L 1024 5376 
L 1491 5376 
L 1491 51 
z
" transform="scale(0.015625)"/>
      <path id="SourceHanSansCN-Regular-3e23" d="M 2938 2400 
L 5542 2400 
L 5542 2893 
L 2938 2893 
L 2938 2400 
z
M 2938 3226 
L 5542 3226 
L 5542 3706 
L 2938 3706 
L 2938 3226 
z
M 5958 4051 
L 5958 2048 
L 2534 2048 
L 2534 4051 
L 5958 4051 
z
M 6150 4845 
L 6150 4454 
L 2310 4454 
L 2310 4845 
L 6150 4845 
z
M 5459 902 
L 5459 550 
L 3034 550 
L 3034 902 
L 5459 902 
z
M 5440 58 
L 5440 -314 
L 3034 -314 
L 3034 58 
L 5440 58 
z
M 3923 5376 
L 3923 3885 
L 3501 3885 
L 3501 5376 
L 3923 5376 
z
M 3917 3898 
L 3917 2214 
L 3546 2214 
L 3546 3898 
L 3917 3898 
z
M 4947 5376 
L 4947 3885 
L 4525 3885 
L 4525 5376 
L 4947 5376 
z
M 4896 3898 
L 4896 2214 
L 4531 2214 
L 4531 3898 
L 4896 3898 
z
M 5702 1754 
L 5702 -506 
L 5235 -506 
L 5235 1376 
L 3245 1376 
L 3245 -531 
L 2790 -531 
L 2790 1754 
L 5702 1754 
z
M 2336 3987 
L 2336 3539 
L 333 3539 
L 333 3987 
L 2336 3987 
z
M 1626 5376 
L 1626 -506 
L 1190 -506 
L 1190 5376 
L 1626 5376 
z
M 1472 3622 
Q 1402 3245 1296 2832 
Q 1190 2419 1056 2022 
Q 922 1626 765 1283 
Q 608 941 442 704 
Q 403 794 329 915 
Q 256 1037 198 1120 
Q 352 1338 502 1638 
Q 653 1939 781 2291 
Q 909 2643 1014 3011 
Q 1120 3379 1178 3718 
L 1472 3622 
z
M 1594 3091 
Q 1645 3027 1753 2867 
Q 1862 2707 1990 2518 
Q 2118 2330 2220 2166 
Q 2323 2003 2368 1933 
L 2112 1581 
Q 2067 1702 1971 1884 
Q 1875 2067 1760 2268 
Q 1645 2470 1549 2640 
Q 1453 2810 1389 2899 
L 1594 3091 
z
" transform="scale(0.015625)"/>
     </defs>
     <use xlink:href="#SourceHanSansCN-Regular-3042"/>
     <use xlink:href="#SourceHanSansCN-Regular-4583" transform="translate(100 0)"/>
     <use xlink:href="#SourceHanSansCN-Regular-654d" transform="translate(200 0)"/>
     <use xlink:href="#SourceHanSansCN-Regular-5380" transform="translate(300 0)"/>
     <use xlink:href="#SourceHanSansCN-Regular-7782" transform="translate(400 0)"/>
     <use xlink:href="#SourceHanSansCN-Regular-6ad7" transform="translate(500 0)"/>
     <use xlink:href="#SourceHanSansCN-Regular-2c1a" transform="translate(600 0)"/>
     <use xlink:href="#SourceHanSansCN-Regular-51c3" transform="translate(700 0)"/>
     <use xlink:href="#SourceHanSansCN-Regular-61ed" transform="translate(800 0)"/>
     <use xlink:href="#SourceHanSansCN-Regular-27a5" transform="translate(900 0)"/>
     <use xlink:href="#SourceHanSansCN-Regular-25bd" transform="translate(1000 0)"/>
     <use xlink:href="#SourceHanSansCN-Regular-493f" transform="translate(1100 0)"/>
     <use xlink:href="#SourceHanSansCN-Regular-224c" transform="translate(1200 0)"/>
     <use xlink:href="#SourceHanSansCN-Regular-2457" transform="translate(1300 0)"/>
     <use xlink:href="#SourceHanSansCN-Regular-1" transform="translate(1400 0)"/>
     <use xlink:href="#SourceHanSansCN-Regular-31" transform="translate(1422.40625 0)"/>
     <use xlink:href="#SourceHanSansCN-Regular-24" transform="translate(1485.703125 0)"/>
     <use xlink:href="#SourceHanSansCN-Regular-2a" transform="translate(1549.5 0)"/>
     <use xlink:href="#SourceHanSansCN-Regular-46" transform="translate(1578.796875 0)"/>
     <use xlink:href="#SourceHanSansCN-Regular-1" transform="translate(1634.203125 0)"/>
     <use xlink:href="#SourceHanSansCN-Regular-37fd" transform="translate(1656.609375 0)"/>
     <use xlink:href="#SourceHanSansCN-Regular-3e23" transform="translate(1756.609375 0)"/>
    </g>
   </g>
   <g id="text_2">
    <!-- 32 MiB -->
    <g style="fill: #252525" transform="translate(58.683138 134.526428) scale(0.12 -0.12)">
     <defs>
      <path id="SourceHanSansCN-Regular-7788" d="M 1683 -83 
Q 1318 -83 1040 6 
Q 762 96 550 243 
Q 339 390 186 563 
L 486 941 
Q 691 730 969 566 
Q 1248 403 1645 403 
Q 1926 403 2140 505 
Q 2355 608 2476 797 
Q 2598 986 2598 1242 
Q 2598 1517 2460 1718 
Q 2323 1920 2003 2032 
Q 1683 2144 1139 2144 
L 1139 2598 
Q 1626 2598 1907 2710 
Q 2189 2822 2313 3017 
Q 2438 3213 2438 3450 
Q 2438 3782 2227 3977 
Q 2016 4173 1645 4173 
Q 1363 4173 1116 4041 
Q 870 3910 672 3706 
L 358 4077 
Q 627 4320 944 4483 
Q 1261 4646 1664 4646 
Q 2061 4646 2371 4512 
Q 2682 4378 2858 4118 
Q 3034 3859 3034 3494 
Q 3034 3078 2803 2809 
Q 2573 2541 2202 2406 
L 2202 2381 
Q 2477 2310 2701 2156 
Q 2925 2003 3059 1769 
Q 3194 1536 3194 1216 
Q 3194 806 2989 518 
Q 2784 230 2445 73 
Q 2106 -83 1683 -83 
z
" transform="scale(0.015625)"/>
      <path id="SourceHanSansCN-Regular-7787" d="M 282 0 
L 282 358 
Q 973 1030 1449 1548 
Q 1926 2067 2179 2489 
Q 2432 2912 2432 3283 
Q 2432 3546 2339 3747 
Q 2246 3949 2054 4061 
Q 1862 4173 1568 4173 
Q 1280 4173 1033 4013 
Q 787 3853 595 3629 
L 269 3942 
Q 550 4262 873 4454 
Q 1197 4646 1638 4646 
Q 2061 4646 2365 4480 
Q 2669 4314 2838 4013 
Q 3008 3712 3008 3315 
Q 3008 2874 2758 2432 
Q 2509 1990 2077 1510 
Q 1645 1030 1088 461 
Q 1274 474 1475 490 
Q 1677 506 1850 506 
L 3232 506 
L 3232 0 
L 282 0 
z
" transform="scale(0.015625)"/>
      <path id="SourceHanSansCN-Regular-2e" d="M 646 0 
L 646 4691 
L 1357 4691 
L 2253 2182 
Q 2342 1946 2425 1696 
Q 2509 1446 2592 1203 
L 2618 1203 
Q 2707 1446 2787 1696 
Q 2867 1946 2944 2182 
L 3840 4691 
L 4550 4691 
L 4550 0 
L 4000 0 
L 4000 2598 
Q 4000 2803 4013 3056 
Q 4026 3309 4045 3568 
Q 4064 3827 4077 4032 
L 4051 4032 
L 3674 2912 
L 2790 474 
L 2394 474 
L 1504 2912 
L 1126 4032 
L 1101 4032 
Q 1126 3827 1142 3568 
Q 1158 3309 1168 3056 
Q 1178 2803 1178 2598 
L 1178 0 
L 646 0 
z
" transform="scale(0.015625)"/>
      <path id="SourceHanSansCN-Regular-4a" d="M 589 0 
L 589 3475 
L 1178 3475 
L 1178 0 
L 589 0 
z
M 877 4192 
Q 704 4192 595 4297 
Q 486 4403 486 4582 
Q 486 4755 595 4857 
Q 704 4960 877 4960 
Q 1050 4960 1158 4857 
Q 1267 4755 1267 4582 
Q 1267 4403 1158 4297 
Q 1050 4192 877 4192 
z
" transform="scale(0.015625)"/>
      <path id="SourceHanSansCN-Regular-23" d="M 646 0 
L 646 4691 
L 2035 4691 
Q 2515 4691 2876 4576 
Q 3238 4461 3443 4211 
Q 3648 3962 3648 3546 
Q 3648 3181 3472 2909 
Q 3296 2637 2963 2528 
L 2963 2496 
Q 3398 2419 3657 2144 
Q 3917 1869 3917 1395 
Q 3917 928 3689 617 
Q 3462 307 3062 153 
Q 2662 0 2138 0 
L 646 0 
z
M 1235 2701 
L 1933 2701 
Q 2541 2701 2803 2905 
Q 3066 3110 3066 3469 
Q 3066 3885 2787 4054 
Q 2509 4224 1958 4224 
L 1235 4224 
L 1235 2701 
z
M 1235 474 
L 2054 474 
Q 2656 474 2995 698 
Q 3334 922 3334 1395 
Q 3334 1837 3001 2038 
Q 2669 2240 2054 2240 
L 1235 2240 
L 1235 474 
z
" transform="scale(0.015625)"/>
     </defs>
     <use xlink:href="#SourceHanSansCN-Regular-7788"/>
     <use xlink:href="#SourceHanSansCN-Regular-7787" transform="translate(55.5 0)"/>
     <use xlink:href="#SourceHanSansCN-Regular-1" transform="translate(111 0)"/>
     <use xlink:href="#SourceHanSansCN-Regular-2e" transform="translate(133.40625 0)"/>
     <use xlink:href="#SourceHanSansCN-Regular-4a" transform="translate(214.609375 0)"/>
     <use xlink:href="#SourceHanSansCN-Regular-23" transform="translate(242.109375 0)"/>
    </g>
   </g>
   <g id="text_3">
    <!-- PCIe Gen4 -->
    <g style="fill: #252525" transform="translate(175.946605 121.197008) scale(0.11 -0.11)">
     <defs>
      <path id="SourceHanSansCN-Regular-28" d="M 2490 -83 
Q 1869 -83 1392 205 
Q 915 493 643 1037 
Q 371 1581 371 2342 
Q 371 2912 531 3363 
Q 691 3814 982 4128 
Q 1274 4442 1664 4608 
Q 2054 4774 2522 4774 
Q 3014 4774 3340 4595 
Q 3667 4416 3872 4198 
L 3552 3834 
Q 3373 4019 3133 4137 
Q 2893 4256 2541 4256 
Q 2067 4256 1715 4025 
Q 1363 3795 1171 3369 
Q 979 2944 979 2362 
Q 979 1766 1161 1334 
Q 1344 902 1696 668 
Q 2048 435 2547 435 
Q 2797 435 3024 508 
Q 3251 582 3392 710 
L 3392 1939 
L 2394 1939 
L 2394 2432 
L 3936 2432 
L 3936 461 
Q 3706 224 3331 70 
Q 2957 -83 2490 -83 
z
" transform="scale(0.015625)"/>
      <path id="SourceHanSansCN-Regular-4f" d="M 589 0 
L 589 3475 
L 1069 3475 
L 1126 2970 
L 1139 2970 
Q 1389 3219 1667 3392 
Q 1946 3565 2304 3565 
Q 2854 3565 3110 3216 
Q 3366 2867 3366 2202 
L 3366 0 
L 2784 0 
L 2784 2125 
Q 2784 2618 2627 2835 
Q 2470 3053 2125 3053 
Q 1856 3053 1645 2918 
Q 1434 2784 1178 2522 
L 1178 0 
L 589 0 
z
" transform="scale(0.015625)"/>
      <path id="SourceHanSansCN-Regular-7789" d="M 2176 0 
L 2176 3066 
Q 2176 3238 2189 3497 
Q 2202 3757 2208 3936 
L 2182 3936 
Q 2093 3776 2000 3619 
Q 1907 3462 1805 3290 
L 736 1728 
L 3354 1728 
L 3354 1261 
L 128 1261 
L 128 1645 
L 2080 4563 
L 2726 4563 
L 2726 0 
L 2176 0 
z
" transform="scale(0.015625)"/>
     </defs>
     <use xlink:href="#SourceHanSansCN-Regular-31"/>
     <use xlink:href="#SourceHanSansCN-Regular-24" transform="translate(63.296875 0)"/>
     <use xlink:href="#SourceHanSansCN-Regular-2a" transform="translate(127.09375 0)"/>
     <use xlink:href="#SourceHanSansCN-Regular-46" transform="translate(156.390625 0)"/>
     <use xlink:href="#SourceHanSansCN-Regular-1" transform="translate(211.796875 0)"/>
     <use xlink:href="#SourceHanSansCN-Regular-28" transform="translate(234.203125 0)"/>
     <use xlink:href="#SourceHanSansCN-Regular-46" transform="translate(303.109375 0)"/>
     <use xlink:href="#SourceHanSansCN-Regular-4f" transform="translate(358.515625 0)"/>
     <use xlink:href="#SourceHanSansCN-Regular-7789" transform="translate(419.515625 0)"/>
    </g>
    <!-- x16 插槽 -->
    <g style="fill: #252525" transform="translate(180.996292 136.729352) scale(0.11 -0.11)">
     <defs>
      <path id="SourceHanSansCN-Regular-59" d="M 96 0 
L 1242 1811 
L 186 3475 
L 819 3475 
L 1286 2714 
Q 1363 2566 1449 2422 
Q 1536 2278 1626 2131 
L 1658 2131 
Q 1728 2278 1808 2422 
Q 1888 2566 1965 2714 
L 2394 3475 
L 3002 3475 
L 1946 1754 
L 3091 0 
L 2451 0 
L 1939 813 
Q 1850 973 1757 1129 
Q 1664 1286 1562 1434 
L 1530 1434 
Q 1446 1286 1360 1129 
Q 1274 973 1178 813 
L 710 0 
L 96 0 
z
" transform="scale(0.015625)"/>
      <path id="SourceHanSansCN-Regular-7786" d="M 563 0 
L 563 486 
L 1613 486 
L 1613 3853 
L 774 3853 
L 774 4224 
Q 1088 4282 1321 4365 
Q 1555 4448 1747 4563 
L 2195 4563 
L 2195 486 
L 3136 486 
L 3136 0 
L 563 0 
z
" transform="scale(0.015625)"/>
      <path id="SourceHanSansCN-Regular-778b" d="M 1920 -83 
Q 1581 -83 1293 51 
Q 1005 186 793 461 
Q 582 736 464 1149 
Q 346 1562 346 2112 
Q 346 2797 486 3280 
Q 627 3763 870 4067 
Q 1114 4371 1427 4508 
Q 1741 4646 2080 4646 
Q 2451 4646 2720 4508 
Q 2989 4371 3181 4166 
L 2854 3802 
Q 2720 3968 2518 4064 
Q 2317 4160 2106 4160 
Q 1779 4160 1504 3968 
Q 1229 3776 1062 3328 
Q 896 2880 896 2112 
Q 896 1549 1017 1161 
Q 1139 774 1366 576 
Q 1594 378 1914 378 
Q 2144 378 2326 502 
Q 2509 627 2614 851 
Q 2720 1075 2720 1376 
Q 2720 1677 2624 1894 
Q 2528 2112 2339 2230 
Q 2150 2349 1869 2349 
Q 1645 2349 1382 2201 
Q 1120 2054 883 1702 
L 864 2163 
Q 1011 2355 1190 2496 
Q 1370 2637 1571 2710 
Q 1773 2784 1958 2784 
Q 2355 2784 2649 2627 
Q 2944 2470 3104 2156 
Q 3264 1843 3264 1376 
Q 3264 941 3081 611 
Q 2899 282 2592 99 
Q 2285 -83 1920 -83 
z
" transform="scale(0.015625)"/>
     </defs>
     <use xlink:href="#SourceHanSansCN-Regular-59"/>
     <use xlink:href="#SourceHanSansCN-Regular-7786" transform="translate(49.796875 0)"/>
     <use xlink:href="#SourceHanSansCN-Regular-778b" transform="translate(105.296875 0)"/>
     <use xlink:href="#SourceHanSansCN-Regular-1" transform="translate(160.796875 0)"/>
     <use xlink:href="#SourceHanSansCN-Regular-37fd" transform="translate(183.203125 0)"/>
     <use xlink:href="#SourceHanSansCN-Regular-3e23" transform="translate(283.203125 0)"/>
    </g>
    <!-- 32 GB/s -->
    <g style="fill: #252525" transform="translate(182.601605 151.34818) scale(0.11 -0.11)">
     <defs>
      <path id="SourceHanSansCN-Regular-10" d="M 70 -1146 
L 1990 5082 
L 2413 5082 
L 499 -1146 
L 70 -1146 
z
" transform="scale(0.015625)"/>
      <path id="SourceHanSansCN-Regular-54" d="M 1498 -83 
Q 1114 -83 778 48 
Q 442 179 205 410 
L 474 755 
Q 698 570 944 470 
Q 1190 371 1517 371 
Q 1862 371 2032 528 
Q 2202 685 2202 915 
Q 2202 1094 2086 1212 
Q 1971 1331 1795 1414 
Q 1619 1498 1421 1568 
Q 1165 1664 928 1789 
Q 691 1914 544 2102 
Q 397 2291 397 2579 
Q 397 2861 537 3081 
Q 678 3302 947 3433 
Q 1216 3565 1594 3565 
Q 1914 3565 2192 3453 
Q 2470 3341 2669 3168 
L 2400 2829 
Q 2221 2963 2025 3036 
Q 1830 3110 1600 3110 
Q 1267 3110 1110 2956 
Q 954 2803 954 2605 
Q 954 2451 1050 2342 
Q 1146 2234 1315 2160 
Q 1485 2086 1690 2010 
Q 1901 1933 2089 1846 
Q 2278 1760 2432 1641 
Q 2586 1523 2672 1356 
Q 2758 1190 2758 947 
Q 2758 666 2614 429 
Q 2470 192 2192 54 
Q 1914 -83 1498 -83 
z
" transform="scale(0.015625)"/>
     </defs>
     <use xlink:href="#SourceHanSansCN-Regular-7788"/>
     <use xlink:href="#SourceHanSansCN-Regular-7787" transform="translate(55.5 0)"/>
     <use xlink:href="#SourceHanSansCN-Regular-1" transform="translate(111 0)"/>
     <use xlink:href="#SourceHanSansCN-Regular-28" transform="translate(133.40625 0)"/>
     <use xlink:href="#SourceHanSansCN-Regular-23" transform="translate(202.3125 0)"/>
     <use xlink:href="#SourceHanSansCN-Regular-10" transform="translate(268.015625 0)"/>
     <use xlink:href="#SourceHanSansCN-Regular-54" transform="translate(307.21875 0)"/>
    </g>
   </g>
   <g id="text_4">
    <!-- 16 MiB -->
    <g style="fill: #252525" transform="translate(327.630309 178.539892) scale(0.11 -0.11)">
     <use xlink:href="#SourceHanSansCN-Regular-7786"/>
     <use xlink:href="#SourceHanSansCN-Regular-778b" transform="translate(55.5 0)"/>
     <use xlink:href="#SourceHanSansCN-Regular-1" transform="translate(111 0)"/>
     <use xlink:href="#SourceHanSansCN-Regular-2e" transform="translate(133.40625 0)"/>
     <use xlink:href="#SourceHanSansCN-Regular-4a" transform="translate(214.609375 0)"/>
     <use xlink:href="#SourceHanSansCN-Regular-23" transform="translate(242.109375 0)"/>
    </g>
   </g>
   <g id="text_5">
    <!-- 16 MiB -->
    <g style="fill: #252525" transform="translate(327.630309 105.419572) scale(0.11 -0.11)">
     <use xlink:href="#SourceHanSansCN-Regular-7786"/>
     <use xlink:href="#SourceHanSansCN-Regular-778b" transform="translate(55.5 0)"/>
     <use xlink:href="#SourceHanSansCN-Regular-1" transform="translate(111 0)"/>
     <use xlink:href="#SourceHanSansCN-Regular-2e" transform="translate(133.40625 0)"/>
     <use xlink:href="#SourceHanSansCN-Regular-4a" transform="translate(214.609375 0)"/>
     <use xlink:href="#SourceHanSansCN-Regular-23" transform="translate(242.109375 0)"/>
    </g>
   </g>
   <g id="text_6">
    <!-- 接收階段至少 1.05 ms -->
    <g style="fill: #252525" transform="translate(146.2775 265.485537) scale(0.13 -0.13)">
     <defs>
      <path id="SourceHanSansCN-Regular-37d0" d="M 179 1978 
Q 531 2067 1030 2220 
Q 1530 2374 2042 2541 
L 2106 2093 
Q 1632 1946 1161 1789 
Q 691 1632 301 1504 
L 179 1978 
z
M 2112 4083 
L 2112 3635 
L 262 3635 
L 262 4083 
L 2112 4083 
z
M 1472 64 
Q 1472 -128 1424 -237 
Q 1376 -346 1254 -403 
Q 1146 -461 963 -480 
Q 781 -499 499 -493 
Q 493 -403 451 -272 
Q 410 -141 365 -45 
Q 557 -51 710 -51 
Q 864 -51 915 -51 
Q 1024 -51 1024 58 
L 1024 5370 
L 1472 5370 
L 1472 64 
z
M 5926 4704 
L 5926 4282 
L 2451 4282 
L 2451 4704 
L 5926 4704 
z
M 6093 3206 
L 6093 2790 
L 2227 2790 
L 2227 3206 
L 6093 3206 
z
M 3283 4218 
Q 3424 4026 3561 3798 
Q 3699 3571 3763 3405 
L 3379 3226 
Q 3315 3398 3187 3635 
Q 3059 3872 2918 4064 
L 3283 4218 
z
M 5376 4077 
Q 5229 3814 5065 3532 
Q 4902 3251 4749 3059 
L 4365 3181 
Q 4461 3322 4566 3501 
Q 4672 3680 4765 3872 
Q 4858 4064 4922 4211 
L 5376 4077 
z
M 6163 2086 
L 6163 1670 
L 2144 1670 
L 2144 2086 
L 6163 2086 
z
M 5395 1722 
Q 5267 1222 5024 848 
Q 4781 474 4403 211 
Q 4026 -51 3494 -220 
Q 2963 -390 2253 -499 
Q 2221 -397 2166 -281 
Q 2112 -166 2048 -90 
Q 2931 6 3513 227 
Q 4096 448 4438 835 
Q 4781 1222 4934 1805 
L 5395 1722 
z
M 2560 870 
Q 2752 1114 2963 1437 
Q 3174 1760 3366 2109 
Q 3558 2458 3686 2765 
L 4134 2675 
Q 3994 2355 3802 2012 
Q 3610 1670 3408 1360 
Q 3206 1050 3034 819 
L 2560 870 
z
M 2848 1190 
Q 3251 1082 3686 925 
Q 4122 768 4550 585 
Q 4979 403 5350 214 
Q 5722 26 5984 -160 
L 5670 -525 
Q 5421 -346 5059 -154 
Q 4698 38 4275 227 
Q 3853 416 3411 582 
Q 2970 749 2560 870 
L 2848 1190 
z
M 4077 5325 
Q 4205 5146 4323 4925 
Q 4442 4704 4506 4538 
L 4038 4442 
Q 3981 4608 3865 4838 
Q 3750 5069 3635 5254 
L 4077 5325 
z
" transform="scale(0.015625)"/>
      <path id="SourceHanSansCN-Regular-3961" d="M 6112 4128 
L 6112 3674 
L 3514 3674 
L 3514 4128 
L 6112 4128 
z
M 4186 5299 
Q 4077 4678 3904 4102 
Q 3731 3526 3500 3033 
Q 3270 2541 2963 2163 
Q 2938 2214 2874 2291 
Q 2810 2368 2742 2445 
Q 2675 2522 2618 2566 
Q 2899 2893 3104 3337 
Q 3309 3782 3456 4300 
Q 3603 4819 3693 5376 
L 4186 5299 
z
M 5664 3840 
Q 5491 2765 5171 1939 
Q 4851 1114 4332 509 
Q 3814 -96 3040 -518 
Q 3014 -467 2956 -393 
Q 2899 -320 2841 -246 
Q 2784 -173 2726 -122 
Q 3475 243 3968 800 
Q 4461 1357 4752 2131 
Q 5043 2906 5190 3904 
L 5664 3840 
z
M 3693 3725 
Q 3898 2880 4230 2125 
Q 4563 1370 5046 797 
Q 5530 224 6170 -96 
Q 6118 -141 6051 -211 
Q 5984 -282 5929 -355 
Q 5875 -429 5837 -486 
Q 5178 -128 4688 489 
Q 4198 1107 3859 1910 
Q 3520 2714 3302 3642 
L 3693 3725 
z
M 2547 5280 
L 2547 -518 
L 2074 -518 
L 2074 5280 
L 2547 5280 
z
M 544 1094 
L 762 1293 
L 2291 1798 
Q 2310 1696 2345 1574 
Q 2381 1453 2406 1376 
Q 1856 1184 1517 1056 
Q 1178 928 995 851 
Q 813 774 726 729 
Q 640 685 589 640 
L 544 1094 
z
M 589 640 
Q 570 704 538 784 
Q 506 864 467 947 
Q 429 1030 390 1082 
Q 461 1126 537 1225 
Q 614 1325 614 1517 
L 614 4666 
L 1088 4666 
L 1088 1082 
Q 1088 1082 1011 1040 
Q 934 998 838 928 
Q 742 858 665 781 
Q 589 704 589 640 
z
" transform="scale(0.015625)"/>
      <path id="SourceHanSansCN-Regular-6a8c" d="M 1965 5114 
L 1965 4678 
L 928 4678 
L 928 -499 
L 518 -499 
L 518 5114 
L 1965 5114 
z
M 1939 5114 
L 2003 5133 
L 2304 4947 
Q 2170 4557 2003 4112 
Q 1837 3667 1677 3283 
Q 2022 2880 2131 2534 
Q 2240 2189 2240 1882 
Q 2240 1626 2182 1430 
Q 2125 1235 1997 1133 
Q 1869 1043 1670 1018 
Q 1581 1005 1472 1005 
Q 1363 1005 1254 1005 
Q 1248 1094 1219 1216 
Q 1190 1338 1139 1427 
Q 1248 1421 1337 1417 
Q 1427 1414 1504 1421 
Q 1626 1434 1702 1478 
Q 1773 1536 1801 1657 
Q 1830 1779 1830 1926 
Q 1830 2189 1718 2518 
Q 1606 2848 1261 3232 
Q 1350 3450 1433 3686 
Q 1517 3923 1597 4160 
Q 1677 4397 1744 4608 
Q 1811 4819 1856 4986 
L 1856 5114 
L 1939 5114 
z
M 4102 4518 
L 4102 4102 
L 2848 4102 
L 2848 4518 
L 4102 4518 
z
M 4742 3206 
Q 4742 3078 4777 3040 
Q 4813 3002 4941 3002 
Q 4973 3002 5053 3002 
Q 5133 3002 5232 3002 
Q 5331 3002 5417 3002 
Q 5504 3002 5542 3002 
Q 5626 3002 5664 3053 
Q 5702 3104 5721 3245 
Q 5741 3386 5747 3674 
Q 5818 3616 5939 3568 
Q 6061 3520 6157 3494 
Q 6138 3136 6080 2941 
Q 6022 2746 5907 2669 
Q 5792 2592 5587 2592 
Q 5549 2592 5449 2592 
Q 5350 2592 5232 2592 
Q 5114 2592 5014 2592 
Q 4915 2592 4877 2592 
Q 4634 2592 4502 2646 
Q 4371 2701 4320 2835 
Q 4269 2970 4269 3206 
L 4269 5312 
L 4742 5312 
L 4742 3206 
z
M 6112 4557 
Q 5901 4416 5648 4281 
Q 5395 4147 5142 4028 
Q 4890 3910 4672 3814 
L 4410 4109 
Q 4621 4198 4877 4329 
Q 5133 4461 5379 4601 
Q 5626 4742 5798 4864 
L 6112 4557 
z
M 4397 2630 
Q 4288 2413 4179 2198 
Q 4070 1984 3974 1830 
L 3597 1946 
Q 3674 2118 3754 2345 
Q 3834 2573 3872 2746 
L 4397 2630 
z
M 5728 2125 
L 5728 -499 
L 5254 -499 
L 5254 1734 
L 3104 1734 
L 3104 -525 
L 2650 -525 
L 2650 2125 
L 5728 2125 
z
M 5542 1126 
L 5542 749 
L 2861 749 
L 2861 1126 
L 5542 1126 
z
M 5536 115 
L 5536 -275 
L 2861 -275 
L 2861 115 
L 5536 115 
z
M 3021 5312 
L 3021 2848 
L 2502 2464 
Q 2490 2522 2461 2614 
Q 2432 2707 2397 2803 
Q 2362 2899 2323 2963 
Q 2400 2995 2477 3075 
Q 2554 3155 2554 3328 
L 2554 5312 
L 3021 5312 
z
M 2464 2861 
L 2688 3027 
L 4064 3322 
Q 4064 3226 4077 3110 
Q 4090 2995 4102 2918 
Q 3616 2803 3318 2729 
Q 3021 2656 2857 2605 
Q 2694 2554 2617 2522 
Q 2541 2490 2496 2464 
L 2464 2861 
z
" transform="scale(0.015625)"/>
      <path id="SourceHanSansCN-Regular-3fda" d="M 4928 5139 
L 4928 4723 
L 3725 4723 
L 3725 5139 
L 4928 5139 
z
M 5299 2470 
L 5299 2054 
L 2989 2054 
L 2989 2470 
L 5299 2470 
z
M 2662 3814 
L 2662 3386 
L 941 3386 
L 941 3814 
L 2662 3814 
z
M 2656 2509 
L 2656 2074 
L 941 2074 
L 941 2509 
L 2656 2509 
z
M 3590 2093 
Q 3802 1555 4163 1120 
Q 4525 685 5024 374 
Q 5523 64 6144 -83 
Q 6099 -134 6038 -208 
Q 5978 -282 5930 -358 
Q 5882 -435 5843 -493 
Q 4883 -218 4217 422 
Q 3552 1062 3206 1984 
L 3590 2093 
z
M 211 1005 
Q 531 1043 944 1104 
Q 1357 1165 1824 1235 
Q 2291 1306 2758 1376 
L 2784 960 
Q 2118 845 1459 739 
Q 800 634 294 544 
L 211 1005 
z
M 2835 5056 
Q 2560 4934 2237 4822 
Q 1914 4710 1571 4617 
Q 1229 4525 909 4442 
Q 890 4518 842 4627 
Q 794 4736 755 4806 
Q 1062 4890 1372 4989 
Q 1683 5088 1961 5200 
Q 2240 5312 2438 5414 
L 2835 5056 
z
M 3891 4352 
Q 3891 4070 3824 3750 
Q 3757 3430 3577 3132 
Q 3398 2835 3046 2598 
Q 3014 2643 2953 2704 
Q 2893 2765 2825 2819 
Q 2758 2874 2707 2906 
Q 3027 3123 3184 3369 
Q 3341 3616 3392 3875 
Q 3443 4134 3443 4365 
L 3443 5139 
L 3891 5139 
L 3891 4352 
z
M 5293 2470 
L 5376 2490 
L 5670 2381 
Q 5472 1536 5053 960 
Q 4634 384 4054 25 
Q 3475 -333 2771 -531 
Q 2746 -467 2704 -393 
Q 2662 -320 2617 -246 
Q 2573 -173 2522 -122 
Q 3168 32 3712 349 
Q 4256 666 4643 1171 
Q 5030 1677 5197 2394 
L 5197 2470 
L 5293 2470 
z
M 1222 4646 
L 1222 -422 
L 755 -422 
L 755 4806 
L 1222 4646 
z
M 5229 3514 
Q 5229 3386 5251 3341 
Q 5274 3296 5338 3296 
Q 5382 3296 5468 3296 
Q 5555 3296 5648 3296 
Q 5741 3296 5773 3296 
Q 5837 3296 5926 3299 
Q 6016 3302 6074 3322 
Q 6080 3238 6086 3129 
Q 6093 3021 6106 2950 
Q 6054 2931 5964 2924 
Q 5875 2918 5779 2918 
Q 5741 2918 5638 2918 
Q 5536 2918 5437 2918 
Q 5338 2918 5299 2918 
Q 5088 2918 4976 2979 
Q 4864 3040 4825 3171 
Q 4787 3302 4787 3520 
L 4787 5139 
L 5229 5139 
L 5229 3514 
z
" transform="scale(0.015625)"/>
      <path id="SourceHanSansCN-Regular-55ff" d="M 5869 5024 
L 5869 4570 
L 493 4570 
L 493 5024 
L 5869 5024 
z
M 5530 1824 
L 5530 1376 
L 909 1376 
L 909 1824 
L 5530 1824 
z
M 6067 192 
L 6067 -262 
L 346 -262 
L 346 192 
L 6067 192 
z
M 3437 2656 
L 3437 -109 
L 2944 -109 
L 2944 2656 
L 3437 2656 
z
M 4179 4288 
Q 4474 4077 4784 3811 
Q 5094 3546 5372 3283 
Q 5651 3021 5824 2797 
L 5408 2509 
Q 5254 2726 4985 2995 
Q 4717 3264 4406 3539 
Q 4096 3814 3802 4038 
L 4179 4288 
z
M 934 2707 
Q 928 2758 899 2844 
Q 870 2931 838 3024 
Q 806 3117 781 3181 
Q 877 3200 985 3277 
Q 1094 3354 1222 3482 
Q 1293 3539 1430 3680 
Q 1568 3821 1737 4013 
Q 1907 4205 2083 4432 
Q 2259 4659 2419 4890 
L 2950 4736 
Q 2560 4211 2134 3753 
Q 1709 3296 1306 2970 
L 1306 2963 
Q 1306 2963 1251 2937 
Q 1197 2912 1120 2873 
Q 1043 2835 988 2790 
Q 934 2746 934 2707 
z
M 934 3059 
L 1274 3232 
L 5075 3379 
Q 5088 3283 5110 3161 
Q 5133 3040 5152 2970 
Q 4250 2925 3600 2893 
Q 2950 2861 2505 2841 
Q 2061 2822 1779 2803 
Q 1498 2784 1334 2771 
Q 1171 2758 1084 2742 
Q 998 2726 934 2707 
L 934 3059 
z
" transform="scale(0.015625)"/>
      <path id="SourceHanSansCN-Regular-3046" d="M 1914 4237 
Q 1760 3859 1568 3468 
Q 1376 3078 1168 2729 
Q 960 2381 755 2112 
Q 710 2144 633 2189 
Q 557 2234 477 2275 
Q 397 2317 339 2342 
Q 557 2605 758 2937 
Q 960 3270 1139 3638 
Q 1318 4006 1459 4365 
L 1914 4237 
z
M 4890 4371 
Q 5107 4064 5340 3705 
Q 5574 3347 5776 3008 
Q 5978 2669 6099 2406 
L 5690 2163 
Q 5568 2432 5369 2781 
Q 5171 3130 4944 3498 
Q 4717 3866 4499 4179 
L 4890 4371 
z
M 5312 1862 
Q 4877 1171 4166 694 
Q 3456 218 2515 -70 
Q 1574 -358 442 -506 
Q 410 -403 346 -272 
Q 282 -141 211 -45 
Q 1312 77 2214 329 
Q 3117 582 3795 1008 
Q 4474 1434 4877 2061 
L 5312 1862 
z
M 3347 5376 
L 3347 1427 
L 2874 1427 
L 2874 5376 
L 3347 5376 
z
" transform="scale(0.015625)"/>
      <path id="SourceHanSansCN-Regular-12" d="M 563 0 
L 563 486 
L 1613 486 
L 1613 3987 
L 774 3987 
L 774 4358 
Q 1088 4416 1321 4499 
Q 1555 4582 1747 4691 
L 2195 4691 
L 2195 486 
L 3136 486 
L 3136 0 
L 563 0 
z
" transform="scale(0.015625)"/>
      <path id="SourceHanSansCN-Regular-f" d="M 890 -83 
Q 717 -83 592 41 
Q 467 166 467 358 
Q 467 563 592 684 
Q 717 806 890 806 
Q 1062 806 1187 684 
Q 1312 563 1312 358 
Q 1312 166 1187 41 
Q 1062 -83 890 -83 
z
" transform="scale(0.015625)"/>
      <path id="SourceHanSansCN-Regular-11" d="M 1779 -83 
Q 1338 -83 1008 185 
Q 678 454 499 998 
Q 320 1542 320 2362 
Q 320 3181 499 3715 
Q 678 4250 1008 4512 
Q 1338 4774 1779 4774 
Q 2227 4774 2553 4508 
Q 2880 4243 3059 3712 
Q 3238 3181 3238 2362 
Q 3238 1542 3059 998 
Q 2880 454 2553 185 
Q 2227 -83 1779 -83 
z
M 1779 390 
Q 2048 390 2249 595 
Q 2451 800 2563 1238 
Q 2675 1677 2675 2362 
Q 2675 3046 2563 3478 
Q 2451 3910 2249 4112 
Q 2048 4314 1779 4314 
Q 1517 4314 1312 4112 
Q 1107 3910 995 3478 
Q 883 3046 883 2362 
Q 883 1677 995 1238 
Q 1107 800 1312 595 
Q 1517 390 1779 390 
z
" transform="scale(0.015625)"/>
      <path id="SourceHanSansCN-Regular-16" d="M 1677 -83 
Q 1312 -83 1033 6 
Q 755 96 547 237 
Q 339 378 173 538 
L 467 922 
Q 602 787 765 668 
Q 928 550 1139 476 
Q 1350 403 1619 403 
Q 1894 403 2121 537 
Q 2349 672 2483 921 
Q 2618 1171 2618 1510 
Q 2618 2010 2352 2294 
Q 2086 2579 1645 2579 
Q 1414 2579 1241 2508 
Q 1069 2438 864 2304 
L 550 2502 
L 704 4691 
L 2982 4691 
L 2982 4192 
L 1216 4192 
L 1094 2835 
Q 1248 2925 1417 2973 
Q 1587 3021 1798 3021 
Q 2189 3021 2509 2864 
Q 2829 2707 3021 2374 
Q 3213 2042 3213 1523 
Q 3213 1011 2992 652 
Q 2771 294 2419 105 
Q 2067 -83 1677 -83 
z
" transform="scale(0.015625)"/>
      <path id="SourceHanSansCN-Regular-4e" d="M 589 0 
L 589 3475 
L 1069 3475 
L 1126 2970 
L 1139 2970 
Q 1370 3219 1642 3392 
Q 1914 3565 2221 3565 
Q 2624 3565 2848 3385 
Q 3072 3206 3181 2899 
Q 3456 3194 3734 3379 
Q 4013 3565 4333 3565 
Q 4864 3565 5123 3216 
Q 5382 2867 5382 2202 
L 5382 0 
L 4800 0 
L 4800 2125 
Q 4800 2618 4643 2835 
Q 4486 3053 4154 3053 
Q 3955 3053 3740 2921 
Q 3526 2790 3277 2522 
L 3277 0 
L 2694 0 
L 2694 2125 
Q 2694 2618 2537 2835 
Q 2381 3053 2048 3053 
Q 1850 3053 1632 2921 
Q 1414 2790 1178 2522 
L 1178 0 
L 589 0 
z
" transform="scale(0.015625)"/>
     </defs>
     <use xlink:href="#SourceHanSansCN-Regular-37d0"/>
     <use xlink:href="#SourceHanSansCN-Regular-3961" transform="translate(100 0)"/>
     <use xlink:href="#SourceHanSansCN-Regular-6a8c" transform="translate(200 0)"/>
     <use xlink:href="#SourceHanSansCN-Regular-3fda" transform="translate(300 0)"/>
     <use xlink:href="#SourceHanSansCN-Regular-55ff" transform="translate(400 0)"/>
     <use xlink:href="#SourceHanSansCN-Regular-3046" transform="translate(500 0)"/>
     <use xlink:href="#SourceHanSansCN-Regular-1" transform="translate(600 0)"/>
     <use xlink:href="#SourceHanSansCN-Regular-12" transform="translate(622.40625 0)"/>
     <use xlink:href="#SourceHanSansCN-Regular-f" transform="translate(677.90625 0)"/>
     <use xlink:href="#SourceHanSansCN-Regular-11" transform="translate(705.703125 0)"/>
     <use xlink:href="#SourceHanSansCN-Regular-16" transform="translate(761.203125 0)"/>
     <use xlink:href="#SourceHanSansCN-Regular-1" transform="translate(816.703125 0)"/>
     <use xlink:href="#SourceHanSansCN-Regular-4e" transform="translate(839.109375 0)"/>
     <use xlink:href="#SourceHanSansCN-Regular-54" transform="translate(931.703125 0)"/>
    </g>
   </g>
  </g>
 </g>
 <defs>
  <clipPath id="pe8fa1f0361">
   <rect x="14.6916" y="9.828" width="390.3768" height="261.144"/>
  </clipPath>
 </defs>
</svg>
