<?xml version="1.0" encoding="utf-8" standalone="no"?>
<!DOCTYPE svg PUBLIC "-//W3C//DTD SVG 1.1//EN"
  "http://www.w3.org/Graphics/SVG/1.1/DTD/svg11.dtd">
<svg xmlns:xlink="http://www.w3.org/1999/xlink" width="864pt" height="504pt" viewBox="0 0 864 504" xmlns="http://www.w3.org/2000/svg" version="1.1">
 <metadata>
  <rdf:RDF xmlns:dc="http://purl.org/dc/elements/1.1/" xmlns:cc="http://creativecommons.org/ns#" xmlns:rdf="http://www.w3.org/1999/02/22-rdf-syntax-ns#">
   <cc:Work>
    <dc:type rdf:resource="http://purl.org/dc/dcmitype/StillImage"/>
    <dc:date>2026-09-09T14:44:28.582645</dc:date>
    <dc:format>image/svg+xml</dc:format>
    <dc:creator>
     <cc:Agent>
      <dc:title>Matplotlib v3.10.6, https://matplotlib.org/</dc:title>
     </cc:Agent>
    </dc:creator>
   </cc:Work>
  </rdf:RDF>
 </metadata>
 <defs>
  <style type="text/css">*{stroke-linejoin: round; stroke-linecap: butt}</style>
 </defs>
 <g id="figure_1">
  <g id="patch_1">
   <path d="M 0 504 
L 864 504 
L 864 0 
L 0 0 
z
" style="fill: #ffffff"/>
  </g>
  <g id="axes_1">
   <g id="patch_2">
    <path d="M 42.765865 239.630697 
L 860.99976 239.630697 
L 860.99976 18.118365 
L 42.765865 18.118365 
z
" style="fill: #ffffff"/>
   </g>
   <g id="matplotlib.axis_1">
    <g id="xtick_1">
     <g id="line2d_1">
      <path d="M 79.714958 239.630697 
L 79.714958 18.118365 
" clip-path="url(#pba00c9ffee)" style="fill: none; stroke: #b0b0b0; stroke-opacity: 0.2; stroke-width: 0.8; stroke-linecap: square"/>
     </g>
     <g id="line2d_2">
      <defs>
       <path id="mb5910efd70" d="M 0 0 
L 0 3.5 
" style="stroke: #000000; stroke-width: 0.8"/>
      </defs>
      <g>
       <use xlink:href="#mb5910efd70" x="79.714958" y="239.630697" style="stroke: #000000; stroke-width: 0.8"/>
      </g>
     </g>
    </g>
    <g id="xtick_2">
     <g id="line2d_3">
      <path d="M 189.807286 239.630697 
L 189.807286 18.118365 
" clip-path="url(#pba00c9ffee)" style="fill: none; stroke: #b0b0b0; stroke-opacity: 0.2; stroke-width: 0.8; stroke-linecap: square"/>
     </g>
     <g id="line2d_4">
      <g>
       <use xlink:href="#mb5910efd70" x="189.807286" y="239.630697" style="stroke: #000000; stroke-width: 0.8"/>
      </g>
     </g>
    </g>
    <g id="xtick_3">
     <g id="line2d_5">
      <path d="M 299.899614 239.630697 
L 299.899614 18.118365 
" clip-path="url(#pba00c9ffee)" style="fill: none; stroke: #b0b0b0; stroke-opacity: 0.2; stroke-width: 0.8; stroke-linecap: square"/>
     </g>
     <g id="line2d_6">
      <g>
       <use xlink:href="#mb5910efd70" x="299.899614" y="239.630697" style="stroke: #000000; stroke-width: 0.8"/>
      </g>
     </g>
    </g>
    <g id="xtick_4">
     <g id="line2d_7">
      <path d="M 409.991942 239.630697 
L 409.991942 18.118365 
" clip-path="url(#pba00c9ffee)" style="fill: none; stroke: #b0b0b0; stroke-opacity: 0.2; stroke-width: 0.8; stroke-linecap: square"/>
     </g>
     <g id="line2d_8">
      <g>
       <use xlink:href="#mb5910efd70" x="409.991942" y="239.630697" style="stroke: #000000; stroke-width: 0.8"/>
      </g>
     </g>
    </g>
    <g id="xtick_5">
     <g id="line2d_9">
      <path d="M 520.084271 239.630697 
L 520.084271 18.118365 
" clip-path="url(#pba00c9ffee)" style="fill: none; stroke: #b0b0b0; stroke-opacity: 0.2; stroke-width: 0.8; stroke-linecap: square"/>
     </g>
     <g id="line2d_10">
      <g>
       <use xlink:href="#mb5910efd70" x="520.084271" y="239.630697" style="stroke: #000000; stroke-width: 0.8"/>
      </g>
     </g>
    </g>
    <g id="xtick_6">
     <g id="line2d_11">
      <path d="M 630.176599 239.630697 
L 630.176599 18.118365 
" clip-path="url(#pba00c9ffee)" style="fill: none; stroke: #b0b0b0; stroke-opacity: 0.2; stroke-width: 0.8; stroke-linecap: square"/>
     </g>
     <g id="line2d_12">
      <g>
       <use xlink:href="#mb5910efd70" x="630.176599" y="239.630697" style="stroke: #000000; stroke-width: 0.8"/>
      </g>
     </g>
    </g>
    <g id="xtick_7">
     <g id="line2d_13">
      <path d="M 740.268927 239.630697 
L 740.268927 18.118365 
" clip-path="url(#pba00c9ffee)" style="fill: none; stroke: #b0b0b0; stroke-opacity: 0.2; stroke-width: 0.8; stroke-linecap: square"/>
     </g>
     <g id="line2d_14">
      <g>
       <use xlink:href="#mb5910efd70" x="740.268927" y="239.630697" style="stroke: #000000; stroke-width: 0.8"/>
      </g>
     </g>
    </g>
    <g id="xtick_8">
     <g id="line2d_15">
      <path d="M 850.361255 239.630697 
L 850.361255 18.118365 
" clip-path="url(#pba00c9ffee)" style="fill: none; stroke: #b0b0b0; stroke-opacity: 0.2; stroke-width: 0.8; stroke-linecap: square"/>
     </g>
     <g id="line2d_16">
      <g>
       <use xlink:href="#mb5910efd70" x="850.361255" y="239.630697" style="stroke: #000000; stroke-width: 0.8"/>
      </g>
     </g>
    </g>
   </g>
   <g id="matplotlib.axis_2">
    <g id="ytick_1">
     <g id="line2d_17">
      <path d="M 42.765865 229.587592 
L 860.99976 229.587592 
" clip-path="url(#pba00c9ffee)" style="fill: none; stroke: #b0b0b0; stroke-opacity: 0.2; stroke-width: 0.8; stroke-linecap: square"/>
     </g>
     <g id="line2d_18">
      <defs>
       <path id="m7fb5e450b1" d="M 0 0 
L -3.5 0 
" style="stroke: #000000; stroke-width: 0.8"/>
      </defs>
      <g>
       <use xlink:href="#m7fb5e450b1" x="42.765865" y="229.587592" style="stroke: #000000; stroke-width: 0.8"/>
      </g>
     </g>
     <g id="text_1">
      <!-- 0 -->
      <g transform="translate(29.403365 233.38681) scale(0.1 -0.1)">
       <defs>
        <path id="DejaVuSans-30" d="M 2034 4250 
Q 1547 4250 1301 3770 
Q 1056 3291 1056 2328 
Q 1056 1369 1301 889 
Q 1547 409 2034 409 
Q 2525 409 2770 889 
Q 3016 1369 3016 2328 
Q 3016 3291 2770 3770 
Q 2525 4250 2034 4250 
z
M 2034 4750 
Q 2819 4750 3233 4129 
Q 3647 3509 3647 2328 
Q 3647 1150 3233 529 
Q 2819 -91 2034 -91 
Q 1250 -91 836 529 
Q 422 1150 422 2328 
Q 422 3509 836 4129 
Q 1250 4750 2034 4750 
z
" transform="scale(0.015625)"/>
       </defs>
       <use xlink:href="#DejaVuSans-30"/>
      </g>
     </g>
    </g>
    <g id="ytick_2">
     <g id="line2d_19">
      <path d="M 42.765865 202.935012 
L 860.99976 202.935012 
" clip-path="url(#pba00c9ffee)" style="fill: none; stroke: #b0b0b0; stroke-opacity: 0.2; stroke-width: 0.8; stroke-linecap: square"/>
     </g>
     <g id="line2d_20">
      <g>
       <use xlink:href="#m7fb5e450b1" x="42.765865" y="202.935012" style="stroke: #000000; stroke-width: 0.8"/>
      </g>
     </g>
     <g id="text_2">
      <!-- 20 -->
      <g transform="translate(23.040865 206.734231) scale(0.1 -0.1)">
       <defs>
        <path id="DejaVuSans-32" d="M 1228 531 
L 3431 531 
L 3431 0 
L 469 0 
L 469 531 
Q 828 903 1448 1529 
Q 2069 2156 2228 2338 
Q 2531 2678 2651 2914 
Q 2772 3150 2772 3378 
Q 2772 3750 2511 3984 
Q 2250 4219 1831 4219 
Q 1534 4219 1204 4116 
Q 875 4013 500 3803 
L 500 4441 
Q 881 4594 1212 4672 
Q 1544 4750 1819 4750 
Q 2544 4750 2975 4387 
Q 3406 4025 3406 3419 
Q 3406 3131 3298 2873 
Q 3191 2616 2906 2266 
Q 2828 2175 2409 1742 
Q 1991 1309 1228 531 
z
" transform="scale(0.015625)"/>
       </defs>
       <use xlink:href="#DejaVuSans-32"/>
       <use xlink:href="#DejaVuSans-30" transform="translate(63.623047 0)"/>
      </g>
     </g>
    </g>
    <g id="ytick_3">
     <g id="line2d_21">
      <path d="M 42.765865 176.282432 
L 860.99976 176.282432 
" clip-path="url(#pba00c9ffee)" style="fill: none; stroke: #b0b0b0; stroke-opacity: 0.2; stroke-width: 0.8; stroke-linecap: square"/>
     </g>
     <g id="line2d_22">
      <g>
       <use xlink:href="#m7fb5e450b1" x="42.765865" y="176.282432" style="stroke: #000000; stroke-width: 0.8"/>
      </g>
     </g>
     <g id="text_3">
      <!-- 40 -->
      <g transform="translate(23.040865 180.081651) scale(0.1 -0.1)">
       <defs>
        <path id="DejaVuSans-34" d="M 2419 4116 
L 825 1625 
L 2419 1625 
L 2419 4116 
z
M 2253 4666 
L 3047 4666 
L 3047 1625 
L 3713 1625 
L 3713 1100 
L 3047 1100 
L 3047 0 
L 2419 0 
L 2419 1100 
L 313 1100 
L 313 1709 
L 2253 4666 
z
" transform="scale(0.015625)"/>
       </defs>
       <use xlink:href="#DejaVuSans-34"/>
       <use xlink:href="#DejaVuSans-30" transform="translate(63.623047 0)"/>
      </g>
     </g>
    </g>
    <g id="ytick_4">
     <g id="line2d_23">
      <path d="M 42.765865 149.629853 
L 860.99976 149.629853 
" clip-path="url(#pba00c9ffee)" style="fill: none; stroke: #b0b0b0; stroke-opacity: 0.2; stroke-width: 0.8; stroke-linecap: square"/>
     </g>
     <g id="line2d_24">
      <g>
       <use xlink:href="#m7fb5e450b1" x="42.765865" y="149.629853" style="stroke: #000000; stroke-width: 0.8"/>
      </g>
     </g>
     <g id="text_4">
      <!-- 60 -->
      <g transform="translate(23.040865 153.429071) scale(0.1 -0.1)">
       <defs>
        <path id="DejaVuSans-36" d="M 2113 2584 
Q 1688 2584 1439 2293 
Q 1191 2003 1191 1497 
Q 1191 994 1439 701 
Q 1688 409 2113 409 
Q 2538 409 2786 701 
Q 3034 994 3034 1497 
Q 3034 2003 2786 2293 
Q 2538 2584 2113 2584 
z
M 3366 4563 
L 3366 3988 
Q 3128 4100 2886 4159 
Q 2644 4219 2406 4219 
Q 1781 4219 1451 3797 
Q 1122 3375 1075 2522 
Q 1259 2794 1537 2939 
Q 1816 3084 2150 3084 
Q 2853 3084 3261 2657 
Q 3669 2231 3669 1497 
Q 3669 778 3244 343 
Q 2819 -91 2113 -91 
Q 1303 -91 875 529 
Q 447 1150 447 2328 
Q 447 3434 972 4092 
Q 1497 4750 2381 4750 
Q 2619 4750 2861 4703 
Q 3103 4656 3366 4563 
z
" transform="scale(0.015625)"/>
       </defs>
       <use xlink:href="#DejaVuSans-36"/>
       <use xlink:href="#DejaVuSans-30" transform="translate(63.623047 0)"/>
      </g>
     </g>
    </g>
    <g id="ytick_5">
     <g id="line2d_25">
      <path d="M 42.765865 122.977273 
L 860.99976 122.977273 
" clip-path="url(#pba00c9ffee)" style="fill: none; stroke: #b0b0b0; stroke-opacity: 0.2; stroke-width: 0.8; stroke-linecap: square"/>
     </g>
     <g id="line2d_26">
      <g>
       <use xlink:href="#m7fb5e450b1" x="42.765865" y="122.977273" style="stroke: #000000; stroke-width: 0.8"/>
      </g>
     </g>
     <g id="text_5">
      <!-- 80 -->
      <g transform="translate(23.040865 126.776492) scale(0.1 -0.1)">
       <defs>
        <path id="DejaVuSans-38" d="M 2034 2216 
Q 1584 2216 1326 1975 
Q 1069 1734 1069 1313 
Q 1069 891 1326 650 
Q 1584 409 2034 409 
Q 2484 409 2743 651 
Q 3003 894 3003 1313 
Q 3003 1734 2745 1975 
Q 2488 2216 2034 2216 
z
M 1403 2484 
Q 997 2584 770 2862 
Q 544 3141 544 3541 
Q 544 4100 942 4425 
Q 1341 4750 2034 4750 
Q 2731 4750 3128 4425 
Q 3525 4100 3525 3541 
Q 3525 3141 3298 2862 
Q 3072 2584 2669 2484 
Q 3125 2378 3379 2068 
Q 3634 1759 3634 1313 
Q 3634 634 3220 271 
Q 2806 -91 2034 -91 
Q 1263 -91 848 271 
Q 434 634 434 1313 
Q 434 1759 690 2068 
Q 947 2378 1403 2484 
z
M 1172 3481 
Q 1172 3119 1398 2916 
Q 1625 2713 2034 2713 
Q 2441 2713 2670 2916 
Q 2900 3119 2900 3481 
Q 2900 3844 2670 4047 
Q 2441 4250 2034 4250 
Q 1625 4250 1398 4047 
Q 1172 3844 1172 3481 
z
" transform="scale(0.015625)"/>
       </defs>
       <use xlink:href="#DejaVuSans-38"/>
       <use xlink:href="#DejaVuSans-30" transform="translate(63.623047 0)"/>
      </g>
     </g>
    </g>
    <g id="ytick_6">
     <g id="line2d_27">
      <path d="M 42.765865 96.324693 
L 860.99976 96.324693 
" clip-path="url(#pba00c9ffee)" style="fill: none; stroke: #b0b0b0; stroke-opacity: 0.2; stroke-width: 0.8; stroke-linecap: square"/>
     </g>
     <g id="line2d_28">
      <g>
       <use xlink:href="#m7fb5e450b1" x="42.765865" y="96.324693" style="stroke: #000000; stroke-width: 0.8"/>
      </g>
     </g>
     <g id="text_6">
      <!-- 100 -->
      <g transform="translate(16.678365 100.123912) scale(0.1 -0.1)">
       <defs>
        <path id="DejaVuSans-31" d="M 794 531 
L 1825 531 
L 1825 4091 
L 703 3866 
L 703 4441 
L 1819 4666 
L 2450 4666 
L 2450 531 
L 3481 531 
L 3481 0 
L 794 0 
L 794 531 
z
" transform="scale(0.015625)"/>
       </defs>
       <use xlink:href="#DejaVuSans-31"/>
       <use xlink:href="#DejaVuSans-30" transform="translate(63.623047 0)"/>
       <use xlink:href="#DejaVuSans-30" transform="translate(127.246094 0)"/>
      </g>
     </g>
    </g>
    <g id="ytick_7">
     <g id="line2d_29">
      <path d="M 42.765865 69.672113 
L 860.99976 69.672113 
" clip-path="url(#pba00c9ffee)" style="fill: none; stroke: #b0b0b0; stroke-opacity: 0.2; stroke-width: 0.8; stroke-linecap: square"/>
     </g>
     <g id="line2d_30">
      <g>
       <use xlink:href="#m7fb5e450b1" x="42.765865" y="69.672113" style="stroke: #000000; stroke-width: 0.8"/>
      </g>
     </g>
     <g id="text_7">
      <!-- 120 -->
      <g transform="translate(16.678365 73.471332) scale(0.1 -0.1)">
       <use xlink:href="#DejaVuSans-31"/>
       <use xlink:href="#DejaVuSans-32" transform="translate(63.623047 0)"/>
       <use xlink:href="#DejaVuSans-30" transform="translate(127.246094 0)"/>
      </g>
     </g>
    </g>
    <g id="ytick_8">
     <g id="line2d_31">
      <path d="M 42.765865 43.019534 
L 860.99976 43.019534 
" clip-path="url(#pba00c9ffee)" style="fill: none; stroke: #b0b0b0; stroke-opacity: 0.2; stroke-width: 0.8; stroke-linecap: square"/>
     </g>
     <g id="line2d_32">
      <g>
       <use xlink:href="#m7fb5e450b1" x="42.765865" y="43.019534" style="stroke: #000000; stroke-width: 0.8"/>
      </g>
     </g>
     <g id="text_8">
      <!-- 140 -->
      <g transform="translate(16.678365 46.818753) scale(0.1 -0.1)">
       <use xlink:href="#DejaVuSans-31"/>
       <use xlink:href="#DejaVuSans-34" transform="translate(63.623047 0)"/>
       <use xlink:href="#DejaVuSans-30" transform="translate(127.246094 0)"/>
      </g>
     </g>
    </g>
    <g id="text_9">
     <!-- GiB -->
     <g transform="translate(10.598678 137.568281) rotate(-90) scale(0.1 -0.1)">
      <defs>
       <path id="DejaVuSans-47" d="M 3809 666 
L 3809 1919 
L 2778 1919 
L 2778 2438 
L 4434 2438 
L 4434 434 
Q 4069 175 3628 42 
Q 3188 -91 2688 -91 
Q 1594 -91 976 548 
Q 359 1188 359 2328 
Q 359 3472 976 4111 
Q 1594 4750 2688 4750 
Q 3144 4750 3555 4637 
Q 3966 4525 4313 4306 
L 4313 3634 
Q 3963 3931 3569 4081 
Q 3175 4231 2741 4231 
Q 1884 4231 1454 3753 
Q 1025 3275 1025 2328 
Q 1025 1384 1454 906 
Q 1884 428 2741 428 
Q 3075 428 3337 486 
Q 3600 544 3809 666 
z
" transform="scale(0.015625)"/>
       <path id="DejaVuSans-69" d="M 603 3500 
L 1178 3500 
L 1178 0 
L 603 0 
L 603 3500 
z
M 603 4863 
L 1178 4863 
L 1178 4134 
L 603 4134 
L 603 4863 
z
" transform="scale(0.015625)"/>
       <path id="DejaVuSans-42" d="M 1259 2228 
L 1259 519 
L 2272 519 
Q 2781 519 3026 730 
Q 3272 941 3272 1375 
Q 3272 1813 3026 2020 
Q 2781 2228 2272 2228 
L 1259 2228 
z
M 1259 4147 
L 1259 2741 
L 2194 2741 
Q 2656 2741 2882 2914 
Q 3109 3088 3109 3444 
Q 3109 3797 2882 3972 
Q 2656 4147 2194 4147 
L 1259 4147 
z
M 628 4666 
L 2241 4666 
Q 2963 4666 3353 4366 
Q 3744 4066 3744 3513 
Q 3744 3084 3544 2831 
Q 3344 2578 2956 2516 
Q 3422 2416 3680 2098 
Q 3938 1781 3938 1306 
Q 3938 681 3513 340 
Q 3088 0 2303 0 
L 628 0 
L 628 4666 
z
" transform="scale(0.015625)"/>
      </defs>
      <use xlink:href="#DejaVuSans-47"/>
      <use xlink:href="#DejaVuSans-69" transform="translate(77.490234 0)"/>
      <use xlink:href="#DejaVuSans-42" transform="translate(105.273438 0)"/>
     </g>
    </g>
   </g>
   <g id="line2d_33">
    <path d="M 79.958315 229.437372 
L 81.194391 228.654481 
L 83.683109 228.268775 
L 85.062463 226.764336 
L 86.315762 225.88016 
L 87.588603 225.5821 
L 90.231415 224.706626 
L 91.489099 224.495404 
L 92.742968 222.559171 
L 95.247662 209.507323 
L 112.991063 107.164433 
L 116.842552 85.099206 
L 118.131613 82.803957 
L 120.729899 82.746609 
L 129.804061 82.746604 
L 131.135571 77.454092 
L 142.624662 76.465642 
L 143.869297 77.263245 
L 145.108079 77.901254 
L 147.621692 77.847546 
L 161.55933 76.80736 
L 171.743682 76.868302 
L 193.241687 76.898951 
L 195.803872 76.426758 
L 197.05776 75.979266 
L 198.320654 75.83204 
L 199.605288 75.801051 
L 202.277351 75.016386 
L 203.530553 74.837433 
L 204.798431 73.93884 
L 206.047911 67.431095 
L 207.306622 59.758627 
L 208.674808 52.174394 
L 209.977362 47.394185 
L 211.336371 42.830186 
L 212.684105 39.780086 
L 214.019308 39.867488 
L 215.381676 39.327998 
L 216.692488 39.682547 
L 218.036375 38.861814 
L 219.357208 38.313317 
L 222.185138 37.379906 
L 223.500441 38.166345 
L 224.838606 39.725249 
L 226.146171 73.556123 
L 227.512477 76.062845 
L 228.798341 74.738151 
L 230.169944 75.165131 
L 231.515094 77.699141 
L 234.036636 73.592069 
L 235.333817 74.179517 
L 236.662772 74.081826 
L 237.964646 74.626196 
L 239.325578 74.957741 
L 242.020074 75.008048 
L 243.270419 75.318299 
L 244.573648 75.451458 
L 245.905385 75.890425 
L 247.225562 76.019741 
L 248.588959 76.439568 
L 251.154914 76.833601 
L 252.391881 72.137419 
L 253.635331 75.67359 
L 254.872618 78.28571 
L 257.440624 76.296379 
L 258.712241 78.008253 
L 259.986219 78.265131 
L 261.328767 77.13218 
L 262.629769 77.940586 
L 263.946764 75.680148 
L 265.289999 77.689508 
L 266.603277 75.771734 
L 267.968913 78.122613 
L 269.381739 76.787305 
L 270.772698 77.174618 
L 272.165457 77.833043 
L 273.510624 78.141072 
L 274.817208 78.157009 
L 276.105968 76.006417 
L 277.396757 77.681476 
L 278.752506 76.001257 
L 280.132152 78.09867 
L 281.547298 77.090144 
L 284.157085 78.329413 
L 285.44412 75.718544 
L 286.747727 77.788373 
L 288.082148 77.219704 
L 289.437178 77.907837 
L 290.745965 78.308764 
L 292.097249 75.68271 
L 293.492254 78.149627 
L 294.785621 76.859822 
L 296.132856 77.074461 
L 297.428713 77.525552 
L 298.744528 77.213436 
L 300.061562 77.592091 
L 301.337269 77.318773 
L 302.609727 76.703884 
L 303.904616 77.69119 
L 305.183102 75.683991 
L 306.466366 78.099432 
L 309.061921 77.282415 
L 310.426611 77.01662 
L 311.81792 76.332178 
L 313.181811 77.682935 
L 314.4758 75.683991 
L 315.863247 78.286787 
L 317.248999 77.982261 
L 318.629474 78.061473 
L 321.152004 76.802063 
L 322.511159 78.038953 
L 323.818061 76.356355 
L 325.14929 77.723237 
L 326.419372 78.095686 
L 329.107025 77.814925 
L 330.788594 77.160206 
L 336.101919 77.339 
L 338.595927 76.927881 
L 340.157482 76.340057 
L 341.495275 76.91562 
L 345.62798 76.915462 
L 347.020342 76.575096 
L 348.398288 76.857906 
L 349.766445 76.925619 
L 351.199096 76.332325 
L 352.568354 76.762894 
L 355.168587 76.474711 
L 356.476925 76.618703 
L 357.942535 76.080968 
L 359.427037 76.61 
L 362.298335 76.512457 
L 363.697511 76.204082 
L 365.023851 76.520504 
L 368.945998 76.493175 
L 370.276896 76.216806 
L 371.64468 76.198327 
L 374.411358 76.018033 
L 375.774856 76.141437 
L 377.189912 75.952973 
L 378.511579 76.246108 
L 381.472242 75.909849 
L 384.435678 76.492458 
L 385.891327 76.053044 
L 387.416891 76.143247 
L 388.840847 75.984639 
L 390.19999 75.990877 
L 391.720751 76.110625 
L 394.576273 75.963476 
L 395.941301 76.089686 
L 397.549293 75.878992 
L 398.905281 76.436513 
L 400.443422 76.057715 
L 401.792938 76.440636 
L 404.496415 76.424658 
L 405.993598 76.234309 
L 407.238024 76.418421 
L 413.729996 76.431928 
L 417.713641 76.38521 
L 421.615136 76.383517 
L 423.150218 75.858449 
L 424.569601 76.37093 
L 436.12127 76.370488 
L 813.776481 76.333693 
L 815.002469 228.444387 
L 822.553671 228.444387 
L 823.80731 229.551229 
L 823.80731 229.551229 
" clip-path="url(#pba00c9ffee)" style="fill: none; stroke: #1f77b4; stroke-width: 1.5; stroke-linecap: square"/>
   </g>
   <g id="line2d_34">
    <path d="M 79.958315 229.507368 
L 81.194391 229.083662 
L 83.683109 228.815935 
L 85.062463 227.894959 
L 86.315762 227.388889 
L 87.588603 227.170768 
L 90.231415 226.323183 
L 91.489099 226.288183 
L 92.742968 225.998277 
L 175.59529 225.893733 
L 194.514043 225.667666 
L 195.803872 225.619255 
L 197.05776 225.384872 
L 199.605288 225.663483 
L 202.277351 225.377506 
L 203.530553 225.44802 
L 204.798431 225.847066 
L 206.047911 225.727241 
L 208.674808 225.768448 
L 214.019308 225.303652 
L 219.357208 225.177955 
L 222.185138 224.933196 
L 231.515094 224.885573 
L 232.778103 224.721435 
L 252.391881 224.697959 
L 253.635331 222.552425 
L 254.872618 225.164545 
L 257.440624 223.175214 
L 258.712241 224.887088 
L 259.986219 225.143967 
L 261.328767 224.011015 
L 262.629769 224.819421 
L 263.946764 222.558983 
L 265.289999 224.568343 
L 266.603277 222.650569 
L 267.968913 225.001448 
L 269.381739 223.66614 
L 270.772698 224.053453 
L 272.165457 224.711878 
L 273.510624 225.019907 
L 274.817208 225.035844 
L 276.105968 222.885252 
L 277.396757 224.560311 
L 278.752506 222.880092 
L 280.132152 224.977505 
L 281.547298 223.968979 
L 284.157085 225.208248 
L 285.44412 222.59738 
L 286.747727 224.667208 
L 288.082148 224.098539 
L 289.437178 224.786672 
L 290.745965 225.187599 
L 292.097249 222.561545 
L 293.492254 225.028463 
L 294.785621 223.738658 
L 296.132856 223.953296 
L 297.428713 224.404388 
L 298.744528 224.092271 
L 300.061562 224.470926 
L 301.337269 224.197608 
L 302.609727 223.582719 
L 303.904616 224.570026 
L 305.183102 222.562826 
L 306.466366 224.978267 
L 309.061921 224.16125 
L 310.426611 223.895455 
L 311.81792 223.211013 
L 313.181811 224.56177 
L 314.4758 222.562826 
L 315.863247 225.165623 
L 317.248999 224.861096 
L 318.629474 224.940308 
L 321.152004 223.680898 
L 322.511159 224.917788 
L 323.818061 223.23519 
L 325.14929 224.602073 
L 326.419372 225.004448 
L 329.107025 224.846735 
L 330.788594 224.228801 
L 333.517052 224.456179 
L 334.788717 224.339857 
L 336.101919 224.430278 
L 338.595927 224.223438 
L 340.157482 223.658871 
L 341.495275 224.221572 
L 345.62798 224.221572 
L 347.020342 223.916568 
L 348.398288 224.176013 
L 349.766445 224.223239 
L 351.199096 223.653625 
L 352.568354 224.098738 
L 355.168587 223.827219 
L 356.476925 223.954572 
L 357.942535 223.437217 
L 359.427037 223.953393 
L 363.697511 223.580136 
L 365.023851 223.85773 
L 368.945998 223.843156 
L 370.276896 223.603607 
L 371.64468 223.575805 
L 373.059357 223.419114 
L 374.411358 223.405043 
L 375.774856 223.526144 
L 377.189912 223.314759 
L 378.511579 223.652206 
L 381.472242 223.272499 
L 383.046224 223.640631 
L 384.435678 223.842286 
L 385.891327 223.441085 
L 387.416891 223.528884 
L 388.840847 223.347532 
L 393.183194 223.408179 
L 394.576273 223.353841 
L 395.941301 223.477596 
L 397.549293 223.244209 
L 398.905281 223.788868 
L 400.443422 223.446062 
L 401.792938 223.783424 
L 404.496415 223.77713 
L 405.993598 223.614598 
L 407.238024 223.776759 
L 421.615136 223.733874 
L 423.150218 223.232374 
L 424.569601 223.732064 
L 480.524304 223.700577 
L 813.776481 223.693658 
L 815.002469 228.472646 
L 822.553671 228.472646 
L 823.80731 229.561955 
L 823.80731 229.561955 
" clip-path="url(#pba00c9ffee)" style="fill: none; stroke: #ff7f0e; stroke-width: 1.5; stroke-linecap: square"/>
   </g>
   <g id="line2d_35">
    <path d="M 79.958315 32.438309 
L 81.194391 33.022341 
L 83.683109 33.237996 
L 85.062463 34.192229 
L 86.315762 34.672591 
L 87.588603 34.930776 
L 90.231415 35.896117 
L 91.489099 35.940354 
L 92.742968 37.777462 
L 96.539003 58.612316 
L 99.007301 73.025576 
L 104.022161 102.799359 
L 106.533843 117.380515 
L 116.842552 177.394149 
L 118.131613 179.356257 
L 119.441614 179.505475 
L 120.729899 179.524534 
L 122.015459 179.698961 
L 123.284128 179.736585 
L 124.619453 180.002248 
L 125.893753 180.095114 
L 127.238779 179.719697 
L 129.804061 179.839756 
L 131.135571 185.34622 
L 133.736004 185.642201 
L 135.046639 184.986638 
L 136.290549 185.07493 
L 137.587356 184.89307 
L 140.070409 184.975286 
L 142.624662 185.035171 
L 143.869297 184.899922 
L 160.312018 185.006505 
L 161.55933 184.850327 
L 162.815546 185.005915 
L 171.743682 185.157604 
L 172.999497 184.891494 
L 174.303853 184.985748 
L 175.59529 184.868201 
L 176.83896 184.903837 
L 178.082929 184.757043 
L 181.844658 185.26596 
L 183.093217 184.991112 
L 184.346133 184.894961 
L 185.58285 185.070568 
L 186.826357 184.873976 
L 189.399533 185.212054 
L 190.658775 185.628938 
L 193.241687 185.710234 
L 194.514043 185.991636 
L 195.803872 186.096312 
L 197.05776 186.47119 
L 199.605288 186.007435 
L 200.953267 186.214606 
L 202.277351 186.096881 
L 203.530553 186.144621 
L 204.798431 185.70052 
L 208.674808 185.739236 
L 211.336371 186.148632 
L 214.019308 185.660192 
L 215.381676 185.917405 
L 216.692488 185.581152 
L 218.036375 185.426296 
L 219.357208 185.425376 
L 220.784857 185.808393 
L 222.185138 185.933663 
L 223.500441 186.526209 
L 226.146171 186.65307 
L 230.169944 186.359082 
L 231.515094 186.638134 
L 232.778103 186.5591 
L 234.036636 186.33587 
L 235.333817 186.836617 
L 236.662772 186.476248 
L 237.964646 186.608004 
L 239.325578 186.514629 
L 244.573648 186.688009 
L 245.905385 186.898017 
L 247.225562 186.949946 
L 248.588959 186.661382 
L 249.879714 186.569486 
L 251.154914 186.662063 
L 252.391881 186.629086 
L 253.635331 188.81453 
L 254.872618 187.659552 
L 256.106838 188.095524 
L 257.440624 189.232746 
L 258.712241 187.896675 
L 259.986219 187.100303 
L 261.328767 188.356393 
L 262.629769 188.083842 
L 263.946764 189.62622 
L 265.289999 187.854954 
L 266.603277 189.260812 
L 267.968913 187.371069 
L 269.381739 188.144383 
L 270.772698 187.910579 
L 272.165457 187.553015 
L 273.510624 186.497899 
L 274.817208 187.447363 
L 276.105968 189.457643 
L 277.396757 187.876244 
L 278.752506 188.72539 
L 280.132152 187.41829 
L 281.547298 187.760618 
L 282.86663 187.359763 
L 284.157085 187.26101 
L 285.44412 189.006186 
L 286.747727 187.54177 
L 288.082148 187.514248 
L 289.437178 187.253013 
L 290.745965 186.693937 
L 292.097249 188.848651 
L 293.492254 187.080975 
L 294.785621 188.161667 
L 296.132856 188.688178 
L 297.428713 188.548878 
L 298.744528 188.859062 
L 300.061562 188.764747 
L 301.337269 188.981978 
L 302.609727 190.60615 
L 303.904616 190.321312 
L 305.183102 192.471482 
L 306.466366 190.76826 
L 307.719013 190.67823 
L 309.061921 191.182267 
L 310.426611 191.31047 
L 311.81792 192.083412 
L 313.181811 191.066981 
L 314.4758 192.918415 
L 315.863247 191.402401 
L 317.248999 190.091855 
L 318.629474 190.732487 
L 321.152004 192.12493 
L 322.511159 191.592461 
L 323.818061 192.856731 
L 325.14929 191.47688 
L 326.419372 191.474964 
L 327.761966 191.769511 
L 329.107025 191.51061 
L 330.788594 191.737027 
L 332.170707 190.139259 
L 336.101919 191.80078 
L 338.595927 191.235512 
L 340.157482 191.184839 
L 341.495275 190.460287 
L 342.874196 190.861717 
L 347.020342 191.591922 
L 348.398288 191.280197 
L 349.766445 191.269674 
L 351.199096 191.781758 
L 353.809102 191.6116 
L 355.168587 191.677244 
L 357.942535 192.281834 
L 359.427037 191.892808 
L 360.754791 191.915481 
L 362.298335 191.643693 
L 363.697511 191.87738 
L 365.023851 191.687086 
L 370.276896 191.915334 
L 371.64468 192.361662 
L 373.059357 192.521347 
L 374.411358 192.352394 
L 377.189912 192.386464 
L 379.909785 191.975869 
L 381.472242 192.484857 
L 383.046224 191.950878 
L 385.891327 192.260341 
L 387.416891 192.151522 
L 388.840847 192.345902 
L 390.19999 192.207309 
L 394.576273 192.543054 
L 395.941301 192.422192 
L 401.792938 192.605622 
L 404.496415 192.6277 
L 405.993598 192.07901 
L 408.504 192.306734 
L 409.848132 192.137105 
L 411.186035 192.199511 
L 412.454603 191.94917 
L 413.729996 191.962357 
L 415.059197 191.574643 
L 417.713641 191.704442 
L 420.284089 191.537502 
L 421.615136 191.569239 
L 423.150218 191.986468 
L 424.569601 192.065645 
L 427.13377 191.940843 
L 428.438182 192.04497 
L 429.71171 192.030873 
L 431.028786 192.271438 
L 433.56916 192.429954 
L 434.849838 192.156392 
L 436.12127 192.162828 
L 440.048886 191.848546 
L 442.655218 191.846675 
L 446.588979 191.578806 
L 449.154847 191.447238 
L 454.514492 191.788173 
L 455.853265 191.39202 
L 472.688455 191.109023 
L 475.294374 191.157418 
L 477.89266 191.137587 
L 479.175929 191.223398 
L 484.337109 191.133302 
L 488.184698 191.325059 
L 493.186166 191.098825 
L 494.460982 191.298315 
L 497.102559 191.324409 
L 498.391478 191.43305 
L 499.632594 191.718874 
L 500.882417 191.679024 
L 502.120618 191.440706 
L 505.871239 191.312716 
L 513.378054 191.181606 
L 515.836363 191.10186 
L 520.782512 191.128869 
L 522.037204 191.392554 
L 523.277495 191.26366 
L 524.517582 191.266354 
L 525.815712 191.577271 
L 527.051247 191.357833 
L 530.819362 191.439201 
L 532.048017 191.36953 
L 534.5154 191.480256 
L 536.968169 191.419355 
L 545.634347 191.221085 
L 548.141762 191.516431 
L 549.413895 191.428312 
L 551.917048 192.004861 
L 553.170655 192.130791 
L 554.441657 191.632758 
L 559.416867 191.489289 
L 560.656575 191.635376 
L 561.903099 191.597702 
L 563.13989 191.441494 
L 564.383415 191.637679 
L 566.89769 191.620446 
L 568.18927 191.996554 
L 569.427064 191.68334 
L 570.669152 191.795412 
L 574.510387 191.812564 
L 575.746525 192.288646 
L 579.549054 192.326788 
L 582.119436 191.901522 
L 584.58807 191.880877 
L 590.857916 191.767773 
L 594.605073 191.479788 
L 597.072547 191.453933 
L 598.385403 191.459718 
L 599.618913 191.634537 
L 600.891485 191.624553 
L 602.177397 191.796841 
L 603.507579 191.645452 
L 604.812851 191.620161 
L 606.142073 191.709246 
L 608.628561 191.698956 
L 611.168104 191.809804 
L 612.433388 191.501886 
L 613.758018 191.659025 
L 616.327137 191.583295 
L 617.569224 191.783334 
L 618.804562 191.773812 
L 621.270477 191.431281 
L 626.329111 191.361986 
L 627.622442 191.220206 
L 628.887716 191.249939 
L 630.155734 191.16176 
L 632.649887 191.217359 
L 635.134053 191.11341 
L 638.879891 191.13717 
L 640.194194 191.424067 
L 646.76845 191.830174 
L 648.041456 192.138442 
L 650.69689 191.748298 
L 653.331322 191.659198 
L 657.262522 191.547852 
L 658.639545 191.779368 
L 661.273566 191.759614 
L 663.912036 191.53223 
L 674.206663 191.340844 
L 675.452286 191.196653 
L 677.919981 191.305803 
L 686.702869 191.302834 
L 690.506408 191.351057 
L 691.78827 191.076173 
L 695.799857 191.196963 
L 697.075747 191.094443 
L 704.8883 191.137501 
L 707.424145 191.080534 
L 708.7691 190.442545 
L 710.057523 190.351366 
L 715.037175 190.401572 
L 718.829452 190.396707 
L 720.064471 190.42519 
L 721.366953 190.33184 
L 726.572334 190.495684 
L 727.907033 190.777533 
L 729.201281 190.898985 
L 730.550113 190.625076 
L 731.903628 190.758607 
L 733.238103 190.595093 
L 734.502309 190.784701 
L 735.743848 190.669303 
L 743.574499 190.675109 
L 744.836006 190.534833 
L 748.726259 190.567479 
L 752.55881 190.640119 
L 756.303177 190.647851 
L 760.109655 190.382386 
L 762.65974 190.529053 
L 765.225801 190.423914 
L 771.56784 190.350512 
L 777.871653 190.448727 
L 779.230518 190.869119 
L 780.572973 190.780786 
L 781.915266 190.879728 
L 783.157306 190.534934 
L 784.436 190.629275 
L 785.687938 190.524889 
L 790.969148 190.748963 
L 792.208316 190.742426 
L 793.457045 190.35373 
L 798.578252 190.483712 
L 803.69249 190.515398 
L 804.924063 190.426354 
L 807.47928 190.499665 
L 808.788095 190.412547 
L 812.533783 190.458665 
L 813.776481 180.69886 
L 815.002469 176.822806 
L 816.227096 176.522199 
L 817.447479 177.411357 
L 822.553671 162.483573 
L 823.80731 28.187107 
L 823.80731 28.187107 
" clip-path="url(#pba00c9ffee)" style="fill: none; stroke: #2ca02c; stroke-width: 1.5; stroke-linecap: square"/>
   </g>
   <g id="patch_3">
    <path d="M 42.765865 239.630697 
L 42.765865 18.118365 
" style="fill: none; stroke: #000000; stroke-width: 0.8; stroke-linejoin: miter; stroke-linecap: square"/>
   </g>
   <g id="patch_4">
    <path d="M 42.765865 239.630697 
L 860.99976 239.630697 
" style="fill: none; stroke: #000000; stroke-width: 0.8; stroke-linejoin: miter; stroke-linecap: square"/>
   </g>
   <g id="text_10">
    <!-- Actual watchdog samples: n=572, max interval=4.638s; no continuous-peak claim -->
    <g transform="translate(202.612813 12.118365) scale(0.12 -0.12)">
     <defs>
      <path id="DejaVuSans-41" d="M 2188 4044 
L 1331 1722 
L 3047 1722 
L 2188 4044 
z
M 1831 4666 
L 2547 4666 
L 4325 0 
L 3669 0 
L 3244 1197 
L 1141 1197 
L 716 0 
L 50 0 
L 1831 4666 
z
" transform="scale(0.015625)"/>
      <path id="DejaVuSans-63" d="M 3122 3366 
L 3122 2828 
Q 2878 2963 2633 3030 
Q 2388 3097 2138 3097 
Q 1578 3097 1268 2742 
Q 959 2388 959 1747 
Q 959 1106 1268 751 
Q 1578 397 2138 397 
Q 2388 397 2633 464 
Q 2878 531 3122 666 
L 3122 134 
Q 2881 22 2623 -34 
Q 2366 -91 2075 -91 
Q 1284 -91 818 406 
Q 353 903 353 1747 
Q 353 2603 823 3093 
Q 1294 3584 2113 3584 
Q 2378 3584 2631 3529 
Q 2884 3475 3122 3366 
z
" transform="scale(0.015625)"/>
      <path id="DejaVuSans-74" d="M 1172 4494 
L 1172 3500 
L 2356 3500 
L 2356 3053 
L 1172 3053 
L 1172 1153 
Q 1172 725 1289 603 
Q 1406 481 1766 481 
L 2356 481 
L 2356 0 
L 1766 0 
Q 1100 0 847 248 
Q 594 497 594 1153 
L 594 3053 
L 172 3053 
L 172 3500 
L 594 3500 
L 594 4494 
L 1172 4494 
z
" transform="scale(0.015625)"/>
      <path id="DejaVuSans-75" d="M 544 1381 
L 544 3500 
L 1119 3500 
L 1119 1403 
Q 1119 906 1312 657 
Q 1506 409 1894 409 
Q 2359 409 2629 706 
Q 2900 1003 2900 1516 
L 2900 3500 
L 3475 3500 
L 3475 0 
L 2900 0 
L 2900 538 
Q 2691 219 2414 64 
Q 2138 -91 1772 -91 
Q 1169 -91 856 284 
Q 544 659 544 1381 
z
M 1991 3584 
L 1991 3584 
z
" transform="scale(0.015625)"/>
      <path id="DejaVuSans-61" d="M 2194 1759 
Q 1497 1759 1228 1600 
Q 959 1441 959 1056 
Q 959 750 1161 570 
Q 1363 391 1709 391 
Q 2188 391 2477 730 
Q 2766 1069 2766 1631 
L 2766 1759 
L 2194 1759 
z
M 3341 1997 
L 3341 0 
L 2766 0 
L 2766 531 
Q 2569 213 2275 61 
Q 1981 -91 1556 -91 
Q 1019 -91 701 211 
Q 384 513 384 1019 
Q 384 1609 779 1909 
Q 1175 2209 1959 2209 
L 2766 2209 
L 2766 2266 
Q 2766 2663 2505 2880 
Q 2244 3097 1772 3097 
Q 1472 3097 1187 3025 
Q 903 2953 641 2809 
L 641 3341 
Q 956 3463 1253 3523 
Q 1550 3584 1831 3584 
Q 2591 3584 2966 3190 
Q 3341 2797 3341 1997 
z
" transform="scale(0.015625)"/>
      <path id="DejaVuSans-6c" d="M 603 4863 
L 1178 4863 
L 1178 0 
L 603 0 
L 603 4863 
z
" transform="scale(0.015625)"/>
      <path id="DejaVuSans-20" transform="scale(0.015625)"/>
      <path id="DejaVuSans-77" d="M 269 3500 
L 844 3500 
L 1563 769 
L 2278 3500 
L 2956 3500 
L 3675 769 
L 4391 3500 
L 4966 3500 
L 4050 0 
L 3372 0 
L 2619 2869 
L 1863 0 
L 1184 0 
L 269 3500 
z
" transform="scale(0.015625)"/>
      <path id="DejaVuSans-68" d="M 3513 2113 
L 3513 0 
L 2938 0 
L 2938 2094 
Q 2938 2591 2744 2837 
Q 2550 3084 2163 3084 
Q 1697 3084 1428 2787 
Q 1159 2491 1159 1978 
L 1159 0 
L 581 0 
L 581 4863 
L 1159 4863 
L 1159 2956 
Q 1366 3272 1645 3428 
Q 1925 3584 2291 3584 
Q 2894 3584 3203 3211 
Q 3513 2838 3513 2113 
z
" transform="scale(0.015625)"/>
      <path id="DejaVuSans-64" d="M 2906 2969 
L 2906 4863 
L 3481 4863 
L 3481 0 
L 2906 0 
L 2906 525 
Q 2725 213 2448 61 
Q 2172 -91 1784 -91 
Q 1150 -91 751 415 
Q 353 922 353 1747 
Q 353 2572 751 3078 
Q 1150 3584 1784 3584 
Q 2172 3584 2448 3432 
Q 2725 3281 2906 2969 
z
M 947 1747 
Q 947 1113 1208 752 
Q 1469 391 1925 391 
Q 2381 391 2643 752 
Q 2906 1113 2906 1747 
Q 2906 2381 2643 2742 
Q 2381 3103 1925 3103 
Q 1469 3103 1208 2742 
Q 947 2381 947 1747 
z
" transform="scale(0.015625)"/>
      <path id="DejaVuSans-6f" d="M 1959 3097 
Q 1497 3097 1228 2736 
Q 959 2375 959 1747 
Q 959 1119 1226 758 
Q 1494 397 1959 397 
Q 2419 397 2687 759 
Q 2956 1122 2956 1747 
Q 2956 2369 2687 2733 
Q 2419 3097 1959 3097 
z
M 1959 3584 
Q 2709 3584 3137 3096 
Q 3566 2609 3566 1747 
Q 3566 888 3137 398 
Q 2709 -91 1959 -91 
Q 1206 -91 779 398 
Q 353 888 353 1747 
Q 353 2609 779 3096 
Q 1206 3584 1959 3584 
z
" transform="scale(0.015625)"/>
      <path id="DejaVuSans-67" d="M 2906 1791 
Q 2906 2416 2648 2759 
Q 2391 3103 1925 3103 
Q 1463 3103 1205 2759 
Q 947 2416 947 1791 
Q 947 1169 1205 825 
Q 1463 481 1925 481 
Q 2391 481 2648 825 
Q 2906 1169 2906 1791 
z
M 3481 434 
Q 3481 -459 3084 -895 
Q 2688 -1331 1869 -1331 
Q 1566 -1331 1297 -1286 
Q 1028 -1241 775 -1147 
L 775 -588 
Q 1028 -725 1275 -790 
Q 1522 -856 1778 -856 
Q 2344 -856 2625 -561 
Q 2906 -266 2906 331 
L 2906 616 
Q 2728 306 2450 153 
Q 2172 0 1784 0 
Q 1141 0 747 490 
Q 353 981 353 1791 
Q 353 2603 747 3093 
Q 1141 3584 1784 3584 
Q 2172 3584 2450 3431 
Q 2728 3278 2906 2969 
L 2906 3500 
L 3481 3500 
L 3481 434 
z
" transform="scale(0.015625)"/>
      <path id="DejaVuSans-73" d="M 2834 3397 
L 2834 2853 
Q 2591 2978 2328 3040 
Q 2066 3103 1784 3103 
Q 1356 3103 1142 2972 
Q 928 2841 928 2578 
Q 928 2378 1081 2264 
Q 1234 2150 1697 2047 
L 1894 2003 
Q 2506 1872 2764 1633 
Q 3022 1394 3022 966 
Q 3022 478 2636 193 
Q 2250 -91 1575 -91 
Q 1294 -91 989 -36 
Q 684 19 347 128 
L 347 722 
Q 666 556 975 473 
Q 1284 391 1588 391 
Q 1994 391 2212 530 
Q 2431 669 2431 922 
Q 2431 1156 2273 1281 
Q 2116 1406 1581 1522 
L 1381 1569 
Q 847 1681 609 1914 
Q 372 2147 372 2553 
Q 372 3047 722 3315 
Q 1072 3584 1716 3584 
Q 2034 3584 2315 3537 
Q 2597 3491 2834 3397 
z
" transform="scale(0.015625)"/>
      <path id="DejaVuSans-6d" d="M 3328 2828 
Q 3544 3216 3844 3400 
Q 4144 3584 4550 3584 
Q 5097 3584 5394 3201 
Q 5691 2819 5691 2113 
L 5691 0 
L 5113 0 
L 5113 2094 
Q 5113 2597 4934 2840 
Q 4756 3084 4391 3084 
Q 3944 3084 3684 2787 
Q 3425 2491 3425 1978 
L 3425 0 
L 2847 0 
L 2847 2094 
Q 2847 2600 2669 2842 
Q 2491 3084 2119 3084 
Q 1678 3084 1418 2786 
Q 1159 2488 1159 1978 
L 1159 0 
L 581 0 
L 581 3500 
L 1159 3500 
L 1159 2956 
Q 1356 3278 1631 3431 
Q 1906 3584 2284 3584 
Q 2666 3584 2933 3390 
Q 3200 3197 3328 2828 
z
" transform="scale(0.015625)"/>
      <path id="DejaVuSans-70" d="M 1159 525 
L 1159 -1331 
L 581 -1331 
L 581 3500 
L 1159 3500 
L 1159 2969 
Q 1341 3281 1617 3432 
Q 1894 3584 2278 3584 
Q 2916 3584 3314 3078 
Q 3713 2572 3713 1747 
Q 3713 922 3314 415 
Q 2916 -91 2278 -91 
Q 1894 -91 1617 61 
Q 1341 213 1159 525 
z
M 3116 1747 
Q 3116 2381 2855 2742 
Q 2594 3103 2138 3103 
Q 1681 3103 1420 2742 
Q 1159 2381 1159 1747 
Q 1159 1113 1420 752 
Q 1681 391 2138 391 
Q 2594 391 2855 752 
Q 3116 1113 3116 1747 
z
" transform="scale(0.015625)"/>
      <path id="DejaVuSans-65" d="M 3597 1894 
L 3597 1613 
L 953 1613 
Q 991 1019 1311 708 
Q 1631 397 2203 397 
Q 2534 397 2845 478 
Q 3156 559 3463 722 
L 3463 178 
Q 3153 47 2828 -22 
Q 2503 -91 2169 -91 
Q 1331 -91 842 396 
Q 353 884 353 1716 
Q 353 2575 817 3079 
Q 1281 3584 2069 3584 
Q 2775 3584 3186 3129 
Q 3597 2675 3597 1894 
z
M 3022 2063 
Q 3016 2534 2758 2815 
Q 2500 3097 2075 3097 
Q 1594 3097 1305 2825 
Q 1016 2553 972 2059 
L 3022 2063 
z
" transform="scale(0.015625)"/>
      <path id="DejaVuSans-3a" d="M 750 794 
L 1409 794 
L 1409 0 
L 750 0 
L 750 794 
z
M 750 3309 
L 1409 3309 
L 1409 2516 
L 750 2516 
L 750 3309 
z
" transform="scale(0.015625)"/>
      <path id="DejaVuSans-6e" d="M 3513 2113 
L 3513 0 
L 2938 0 
L 2938 2094 
Q 2938 2591 2744 2837 
Q 2550 3084 2163 3084 
Q 1697 3084 1428 2787 
Q 1159 2491 1159 1978 
L 1159 0 
L 581 0 
L 581 3500 
L 1159 3500 
L 1159 2956 
Q 1366 3272 1645 3428 
Q 1925 3584 2291 3584 
Q 2894 3584 3203 3211 
Q 3513 2838 3513 2113 
z
" transform="scale(0.015625)"/>
      <path id="DejaVuSans-3d" d="M 678 2906 
L 4684 2906 
L 4684 2381 
L 678 2381 
L 678 2906 
z
M 678 1631 
L 4684 1631 
L 4684 1100 
L 678 1100 
L 678 1631 
z
" transform="scale(0.015625)"/>
      <path id="DejaVuSans-35" d="M 691 4666 
L 3169 4666 
L 3169 4134 
L 1269 4134 
L 1269 2991 
Q 1406 3038 1543 3061 
Q 1681 3084 1819 3084 
Q 2600 3084 3056 2656 
Q 3513 2228 3513 1497 
Q 3513 744 3044 326 
Q 2575 -91 1722 -91 
Q 1428 -91 1123 -41 
Q 819 9 494 109 
L 494 744 
Q 775 591 1075 516 
Q 1375 441 1709 441 
Q 2250 441 2565 725 
Q 2881 1009 2881 1497 
Q 2881 1984 2565 2268 
Q 2250 2553 1709 2553 
Q 1456 2553 1204 2497 
Q 953 2441 691 2322 
L 691 4666 
z
" transform="scale(0.015625)"/>
      <path id="DejaVuSans-37" d="M 525 4666 
L 3525 4666 
L 3525 4397 
L 1831 0 
L 1172 0 
L 2766 4134 
L 525 4134 
L 525 4666 
z
" transform="scale(0.015625)"/>
      <path id="DejaVuSans-2c" d="M 750 794 
L 1409 794 
L 1409 256 
L 897 -744 
L 494 -744 
L 750 256 
L 750 794 
z
" transform="scale(0.015625)"/>
      <path id="DejaVuSans-78" d="M 3513 3500 
L 2247 1797 
L 3578 0 
L 2900 0 
L 1881 1375 
L 863 0 
L 184 0 
L 1544 1831 
L 300 3500 
L 978 3500 
L 1906 2253 
L 2834 3500 
L 3513 3500 
z
" transform="scale(0.015625)"/>
      <path id="DejaVuSans-72" d="M 2631 2963 
Q 2534 3019 2420 3045 
Q 2306 3072 2169 3072 
Q 1681 3072 1420 2755 
Q 1159 2438 1159 1844 
L 1159 0 
L 581 0 
L 581 3500 
L 1159 3500 
L 1159 2956 
Q 1341 3275 1631 3429 
Q 1922 3584 2338 3584 
Q 2397 3584 2469 3576 
Q 2541 3569 2628 3553 
L 2631 2963 
z
" transform="scale(0.015625)"/>
      <path id="DejaVuSans-76" d="M 191 3500 
L 800 3500 
L 1894 563 
L 2988 3500 
L 3597 3500 
L 2284 0 
L 1503 0 
L 191 3500 
z
" transform="scale(0.015625)"/>
      <path id="DejaVuSans-2e" d="M 684 794 
L 1344 794 
L 1344 0 
L 684 0 
L 684 794 
z
" transform="scale(0.015625)"/>
      <path id="DejaVuSans-33" d="M 2597 2516 
Q 3050 2419 3304 2112 
Q 3559 1806 3559 1356 
Q 3559 666 3084 287 
Q 2609 -91 1734 -91 
Q 1441 -91 1130 -33 
Q 819 25 488 141 
L 488 750 
Q 750 597 1062 519 
Q 1375 441 1716 441 
Q 2309 441 2620 675 
Q 2931 909 2931 1356 
Q 2931 1769 2642 2001 
Q 2353 2234 1838 2234 
L 1294 2234 
L 1294 2753 
L 1863 2753 
Q 2328 2753 2575 2939 
Q 2822 3125 2822 3475 
Q 2822 3834 2567 4026 
Q 2313 4219 1838 4219 
Q 1578 4219 1281 4162 
Q 984 4106 628 3988 
L 628 4550 
Q 988 4650 1302 4700 
Q 1616 4750 1894 4750 
Q 2613 4750 3031 4423 
Q 3450 4097 3450 3541 
Q 3450 3153 3228 2886 
Q 3006 2619 2597 2516 
z
" transform="scale(0.015625)"/>
      <path id="DejaVuSans-3b" d="M 750 3309 
L 1409 3309 
L 1409 2516 
L 750 2516 
L 750 3309 
z
M 750 794 
L 1409 794 
L 1409 256 
L 897 -744 
L 494 -744 
L 750 256 
L 750 794 
z
" transform="scale(0.015625)"/>
      <path id="DejaVuSans-2d" d="M 313 2009 
L 1997 2009 
L 1997 1497 
L 313 1497 
L 313 2009 
z
" transform="scale(0.015625)"/>
      <path id="DejaVuSans-6b" d="M 581 4863 
L 1159 4863 
L 1159 1991 
L 2875 3500 
L 3609 3500 
L 1753 1863 
L 3688 0 
L 2938 0 
L 1159 1709 
L 1159 0 
L 581 0 
L 581 4863 
z
" transform="scale(0.015625)"/>
     </defs>
     <use xlink:href="#DejaVuSans-41"/>
     <use xlink:href="#DejaVuSans-63" transform="translate(66.658203 0)"/>
     <use xlink:href="#DejaVuSans-74" transform="translate(121.638672 0)"/>
     <use xlink:href="#DejaVuSans-75" transform="translate(160.847656 0)"/>
     <use xlink:href="#DejaVuSans-61" transform="translate(224.226562 0)"/>
     <use xlink:href="#DejaVuSans-6c" transform="translate(285.505859 0)"/>
     <use xlink:href="#DejaVuSans-20" transform="translate(313.289062 0)"/>
     <use xlink:href="#DejaVuSans-77" transform="translate(345.076172 0)"/>
     <use xlink:href="#DejaVuSans-61" transform="translate(426.863281 0)"/>
     <use xlink:href="#DejaVuSans-74" transform="translate(488.142578 0)"/>
     <use xlink:href="#DejaVuSans-63" transform="translate(527.351562 0)"/>
     <use xlink:href="#DejaVuSans-68" transform="translate(582.332031 0)"/>
     <use xlink:href="#DejaVuSans-64" transform="translate(645.710938 0)"/>
     <use xlink:href="#DejaVuSans-6f" transform="translate(709.1875 0)"/>
     <use xlink:href="#DejaVuSans-67" transform="translate(770.369141 0)"/>
     <use xlink:href="#DejaVuSans-20" transform="translate(833.845703 0)"/>
     <use xlink:href="#DejaVuSans-73" transform="translate(865.632812 0)"/>
     <use xlink:href="#DejaVuSans-61" transform="translate(917.732422 0)"/>
     <use xlink:href="#DejaVuSans-6d" transform="translate(979.011719 0)"/>
     <use xlink:href="#DejaVuSans-70" transform="translate(1076.423828 0)"/>
     <use xlink:href="#DejaVuSans-6c" transform="translate(1139.900391 0)"/>
     <use xlink:href="#DejaVuSans-65" transform="translate(1167.683594 0)"/>
     <use xlink:href="#DejaVuSans-73" transform="translate(1229.207031 0)"/>
     <use xlink:href="#DejaVuSans-3a" transform="translate(1281.306641 0)"/>
     <use xlink:href="#DejaVuSans-20" transform="translate(1314.998047 0)"/>
     <use xlink:href="#DejaVuSans-6e" transform="translate(1346.785156 0)"/>
     <use xlink:href="#DejaVuSans-3d" transform="translate(1410.164062 0)"/>
     <use xlink:href="#DejaVuSans-35" transform="translate(1493.953125 0)"/>
     <use xlink:href="#DejaVuSans-37" transform="translate(1557.576172 0)"/>
     <use xlink:href="#DejaVuSans-32" transform="translate(1621.199219 0)"/>
     <use xlink:href="#DejaVuSans-2c" transform="translate(1684.822266 0)"/>
     <use xlink:href="#DejaVuSans-20" transform="translate(1716.609375 0)"/>
     <use xlink:href="#DejaVuSans-6d" transform="translate(1748.396484 0)"/>
     <use xlink:href="#DejaVuSans-61" transform="translate(1845.808594 0)"/>
     <use xlink:href="#DejaVuSans-78" transform="translate(1907.087891 0)"/>
     <use xlink:href="#DejaVuSans-20" transform="translate(1966.267578 0)"/>
     <use xlink:href="#DejaVuSans-69" transform="translate(1998.054688 0)"/>
     <use xlink:href="#DejaVuSans-6e" transform="translate(2025.837891 0)"/>
     <use xlink:href="#DejaVuSans-74" transform="translate(2089.216797 0)"/>
     <use xlink:href="#DejaVuSans-65" transform="translate(2128.425781 0)"/>
     <use xlink:href="#DejaVuSans-72" transform="translate(2189.949219 0)"/>
     <use xlink:href="#DejaVuSans-76" transform="translate(2231.0625 0)"/>
     <use xlink:href="#DejaVuSans-61" transform="translate(2290.242188 0)"/>
     <use xlink:href="#DejaVuSans-6c" transform="translate(2351.521484 0)"/>
     <use xlink:href="#DejaVuSans-3d" transform="translate(2379.304688 0)"/>
     <use xlink:href="#DejaVuSans-34" transform="translate(2463.09375 0)"/>
     <use xlink:href="#DejaVuSans-2e" transform="translate(2526.716797 0)"/>
     <use xlink:href="#DejaVuSans-36" transform="translate(2558.503906 0)"/>
     <use xlink:href="#DejaVuSans-33" transform="translate(2622.126953 0)"/>
     <use xlink:href="#DejaVuSans-38" transform="translate(2685.75 0)"/>
     <use xlink:href="#DejaVuSans-73" transform="translate(2749.373047 0)"/>
     <use xlink:href="#DejaVuSans-3b" transform="translate(2801.472656 0)"/>
     <use xlink:href="#DejaVuSans-20" transform="translate(2835.164062 0)"/>
     <use xlink:href="#DejaVuSans-6e" transform="translate(2866.951172 0)"/>
     <use xlink:href="#DejaVuSans-6f" transform="translate(2930.330078 0)"/>
     <use xlink:href="#DejaVuSans-20" transform="translate(2991.511719 0)"/>
     <use xlink:href="#DejaVuSans-63" transform="translate(3023.298828 0)"/>
     <use xlink:href="#DejaVuSans-6f" transform="translate(3078.279297 0)"/>
     <use xlink:href="#DejaVuSans-6e" transform="translate(3139.460938 0)"/>
     <use xlink:href="#DejaVuSans-74" transform="translate(3202.839844 0)"/>
     <use xlink:href="#DejaVuSans-69" transform="translate(3242.048828 0)"/>
     <use xlink:href="#DejaVuSans-6e" transform="translate(3269.832031 0)"/>
     <use xlink:href="#DejaVuSans-75" transform="translate(3333.210938 0)"/>
     <use xlink:href="#DejaVuSans-6f" transform="translate(3396.589844 0)"/>
     <use xlink:href="#DejaVuSans-75" transform="translate(3457.771484 0)"/>
     <use xlink:href="#DejaVuSans-73" transform="translate(3521.150391 0)"/>
     <use xlink:href="#DejaVuSans-2d" transform="translate(3573.25 0)"/>
     <use xlink:href="#DejaVuSans-70" transform="translate(3609.333984 0)"/>
     <use xlink:href="#DejaVuSans-65" transform="translate(3672.810547 0)"/>
     <use xlink:href="#DejaVuSans-61" transform="translate(3734.333984 0)"/>
     <use xlink:href="#DejaVuSans-6b" transform="translate(3795.613281 0)"/>
     <use xlink:href="#DejaVuSans-20" transform="translate(3853.523438 0)"/>
     <use xlink:href="#DejaVuSans-63" transform="translate(3885.310547 0)"/>
     <use xlink:href="#DejaVuSans-6c" transform="translate(3940.291016 0)"/>
     <use xlink:href="#DejaVuSans-61" transform="translate(3968.074219 0)"/>
     <use xlink:href="#DejaVuSans-69" transform="translate(4029.353516 0)"/>
     <use xlink:href="#DejaVuSans-6d" transform="translate(4057.136719 0)"/>
    </g>
   </g>
   <g id="legend_1">
    <g id="patch_5">
     <path d="M 323.702344 70.15274 
L 580.063281 70.15274 
Q 582.063281 70.15274 582.063281 68.15274 
L 582.063281 25.118365 
Q 582.063281 23.118365 580.063281 23.118365 
L 323.702344 23.118365 
Q 321.702344 23.118365 321.702344 25.118365 
L 321.702344 68.15274 
Q 321.702344 70.15274 323.702344 70.15274 
z
" style="fill: #ffffff; opacity: 0.8; stroke: #cccccc; stroke-linejoin: miter"/>
    </g>
    <g id="line2d_36">
     <path d="M 325.702344 31.216802 
L 335.702344 31.216802 
L 345.702344 31.216802 
" style="fill: none; stroke: #1f77b4; stroke-width: 1.5; stroke-linecap: square"/>
    </g>
    <g id="text_11">
     <!-- Process RSS sum (shared pages may repeat) -->
     <g transform="translate(353.702344 34.716802) scale(0.1 -0.1)">
      <defs>
       <path id="DejaVuSans-50" d="M 1259 4147 
L 1259 2394 
L 2053 2394 
Q 2494 2394 2734 2622 
Q 2975 2850 2975 3272 
Q 2975 3691 2734 3919 
Q 2494 4147 2053 4147 
L 1259 4147 
z
M 628 4666 
L 2053 4666 
Q 2838 4666 3239 4311 
Q 3641 3956 3641 3272 
Q 3641 2581 3239 2228 
Q 2838 1875 2053 1875 
L 1259 1875 
L 1259 0 
L 628 0 
L 628 4666 
z
" transform="scale(0.015625)"/>
       <path id="DejaVuSans-52" d="M 2841 2188 
Q 3044 2119 3236 1894 
Q 3428 1669 3622 1275 
L 4263 0 
L 3584 0 
L 2988 1197 
Q 2756 1666 2539 1819 
Q 2322 1972 1947 1972 
L 1259 1972 
L 1259 0 
L 628 0 
L 628 4666 
L 2053 4666 
Q 2853 4666 3247 4331 
Q 3641 3997 3641 3322 
Q 3641 2881 3436 2590 
Q 3231 2300 2841 2188 
z
M 1259 4147 
L 1259 2491 
L 2053 2491 
Q 2509 2491 2742 2702 
Q 2975 2913 2975 3322 
Q 2975 3731 2742 3939 
Q 2509 4147 2053 4147 
L 1259 4147 
z
" transform="scale(0.015625)"/>
       <path id="DejaVuSans-53" d="M 3425 4513 
L 3425 3897 
Q 3066 4069 2747 4153 
Q 2428 4238 2131 4238 
Q 1616 4238 1336 4038 
Q 1056 3838 1056 3469 
Q 1056 3159 1242 3001 
Q 1428 2844 1947 2747 
L 2328 2669 
Q 3034 2534 3370 2195 
Q 3706 1856 3706 1288 
Q 3706 609 3251 259 
Q 2797 -91 1919 -91 
Q 1588 -91 1214 -16 
Q 841 59 441 206 
L 441 856 
Q 825 641 1194 531 
Q 1563 422 1919 422 
Q 2459 422 2753 634 
Q 3047 847 3047 1241 
Q 3047 1584 2836 1778 
Q 2625 1972 2144 2069 
L 1759 2144 
Q 1053 2284 737 2584 
Q 422 2884 422 3419 
Q 422 4038 858 4394 
Q 1294 4750 2059 4750 
Q 2388 4750 2728 4690 
Q 3069 4631 3425 4513 
z
" transform="scale(0.015625)"/>
       <path id="DejaVuSans-28" d="M 1984 4856 
Q 1566 4138 1362 3434 
Q 1159 2731 1159 2009 
Q 1159 1288 1364 580 
Q 1569 -128 1984 -844 
L 1484 -844 
Q 1016 -109 783 600 
Q 550 1309 550 2009 
Q 550 2706 781 3412 
Q 1013 4119 1484 4856 
L 1984 4856 
z
" transform="scale(0.015625)"/>
       <path id="DejaVuSans-79" d="M 2059 -325 
Q 1816 -950 1584 -1140 
Q 1353 -1331 966 -1331 
L 506 -1331 
L 506 -850 
L 844 -850 
Q 1081 -850 1212 -737 
Q 1344 -625 1503 -206 
L 1606 56 
L 191 3500 
L 800 3500 
L 1894 763 
L 2988 3500 
L 3597 3500 
L 2059 -325 
z
" transform="scale(0.015625)"/>
       <path id="DejaVuSans-29" d="M 513 4856 
L 1013 4856 
Q 1481 4119 1714 3412 
Q 1947 2706 1947 2009 
Q 1947 1309 1714 600 
Q 1481 -109 1013 -844 
L 513 -844 
Q 928 -128 1133 580 
Q 1338 1288 1338 2009 
Q 1338 2731 1133 3434 
Q 928 4138 513 4856 
z
" transform="scale(0.015625)"/>
      </defs>
      <use xlink:href="#DejaVuSans-50"/>
      <use xlink:href="#DejaVuSans-72" transform="translate(58.552734 0)"/>
      <use xlink:href="#DejaVuSans-6f" transform="translate(97.416016 0)"/>
      <use xlink:href="#DejaVuSans-63" transform="translate(158.597656 0)"/>
      <use xlink:href="#DejaVuSans-65" transform="translate(213.578125 0)"/>
      <use xlink:href="#DejaVuSans-73" transform="translate(275.101562 0)"/>
      <use xlink:href="#DejaVuSans-73" transform="translate(327.201172 0)"/>
      <use xlink:href="#DejaVuSans-20" transform="translate(379.300781 0)"/>
      <use xlink:href="#DejaVuSans-52" transform="translate(411.087891 0)"/>
      <use xlink:href="#DejaVuSans-53" transform="translate(480.570312 0)"/>
      <use xlink:href="#DejaVuSans-53" transform="translate(544.046875 0)"/>
      <use xlink:href="#DejaVuSans-20" transform="translate(607.523438 0)"/>
      <use xlink:href="#DejaVuSans-73" transform="translate(639.310547 0)"/>
      <use xlink:href="#DejaVuSans-75" transform="translate(691.410156 0)"/>
      <use xlink:href="#DejaVuSans-6d" transform="translate(754.789062 0)"/>
      <use xlink:href="#DejaVuSans-20" transform="translate(852.201172 0)"/>
      <use xlink:href="#DejaVuSans-28" transform="translate(883.988281 0)"/>
      <use xlink:href="#DejaVuSans-73" transform="translate(923.001953 0)"/>
      <use xlink:href="#DejaVuSans-68" transform="translate(975.101562 0)"/>
      <use xlink:href="#DejaVuSans-61" transform="translate(1038.480469 0)"/>
      <use xlink:href="#DejaVuSans-72" transform="translate(1099.759766 0)"/>
      <use xlink:href="#DejaVuSans-65" transform="translate(1138.623047 0)"/>
      <use xlink:href="#DejaVuSans-64" transform="translate(1200.146484 0)"/>
      <use xlink:href="#DejaVuSans-20" transform="translate(1263.623047 0)"/>
      <use xlink:href="#DejaVuSans-70" transform="translate(1295.410156 0)"/>
      <use xlink:href="#DejaVuSans-61" transform="translate(1358.886719 0)"/>
      <use xlink:href="#DejaVuSans-67" transform="translate(1420.166016 0)"/>
      <use xlink:href="#DejaVuSans-65" transform="translate(1483.642578 0)"/>
      <use xlink:href="#DejaVuSans-73" transform="translate(1545.166016 0)"/>
      <use xlink:href="#DejaVuSans-20" transform="translate(1597.265625 0)"/>
      <use xlink:href="#DejaVuSans-6d" transform="translate(1629.052734 0)"/>
      <use xlink:href="#DejaVuSans-61" transform="translate(1726.464844 0)"/>
      <use xlink:href="#DejaVuSans-79" transform="translate(1787.744141 0)"/>
      <use xlink:href="#DejaVuSans-20" transform="translate(1846.923828 0)"/>
      <use xlink:href="#DejaVuSans-72" transform="translate(1878.710938 0)"/>
      <use xlink:href="#DejaVuSans-65" transform="translate(1917.574219 0)"/>
      <use xlink:href="#DejaVuSans-70" transform="translate(1979.097656 0)"/>
      <use xlink:href="#DejaVuSans-65" transform="translate(2042.574219 0)"/>
      <use xlink:href="#DejaVuSans-61" transform="translate(2104.097656 0)"/>
      <use xlink:href="#DejaVuSans-74" transform="translate(2165.376953 0)"/>
      <use xlink:href="#DejaVuSans-29" transform="translate(2204.585938 0)"/>
     </g>
    </g>
    <g id="line2d_37">
     <path d="M 325.702344 45.894927 
L 335.702344 45.894927 
L 345.702344 45.894927 
" style="fill: none; stroke: #ff7f0e; stroke-width: 1.5; stroke-linecap: square"/>
    </g>
    <g id="text_12">
     <!-- Process anonymous RSS sum -->
     <g transform="translate(353.702344 49.394927) scale(0.1 -0.1)">
      <use xlink:href="#DejaVuSans-50"/>
      <use xlink:href="#DejaVuSans-72" transform="translate(58.552734 0)"/>
      <use xlink:href="#DejaVuSans-6f" transform="translate(97.416016 0)"/>
      <use xlink:href="#DejaVuSans-63" transform="translate(158.597656 0)"/>
      <use xlink:href="#DejaVuSans-65" transform="translate(213.578125 0)"/>
      <use xlink:href="#DejaVuSans-73" transform="translate(275.101562 0)"/>
      <use xlink:href="#DejaVuSans-73" transform="translate(327.201172 0)"/>
      <use xlink:href="#DejaVuSans-20" transform="translate(379.300781 0)"/>
      <use xlink:href="#DejaVuSans-61" transform="translate(411.087891 0)"/>
      <use xlink:href="#DejaVuSans-6e" transform="translate(472.367188 0)"/>
      <use xlink:href="#DejaVuSans-6f" transform="translate(535.746094 0)"/>
      <use xlink:href="#DejaVuSans-6e" transform="translate(596.927734 0)"/>
      <use xlink:href="#DejaVuSans-79" transform="translate(660.306641 0)"/>
      <use xlink:href="#DejaVuSans-6d" transform="translate(719.486328 0)"/>
      <use xlink:href="#DejaVuSans-6f" transform="translate(816.898438 0)"/>
      <use xlink:href="#DejaVuSans-75" transform="translate(878.080078 0)"/>
      <use xlink:href="#DejaVuSans-73" transform="translate(941.458984 0)"/>
      <use xlink:href="#DejaVuSans-20" transform="translate(993.558594 0)"/>
      <use xlink:href="#DejaVuSans-52" transform="translate(1025.345703 0)"/>
      <use xlink:href="#DejaVuSans-53" transform="translate(1094.828125 0)"/>
      <use xlink:href="#DejaVuSans-53" transform="translate(1158.304688 0)"/>
      <use xlink:href="#DejaVuSans-20" transform="translate(1221.78125 0)"/>
      <use xlink:href="#DejaVuSans-73" transform="translate(1253.568359 0)"/>
      <use xlink:href="#DejaVuSans-75" transform="translate(1305.667969 0)"/>
      <use xlink:href="#DejaVuSans-6d" transform="translate(1369.046875 0)"/>
     </g>
    </g>
    <g id="line2d_38">
     <path d="M 325.702344 60.573052 
L 335.702344 60.573052 
L 345.702344 60.573052 
" style="fill: none; stroke: #2ca02c; stroke-width: 1.5; stroke-linecap: square"/>
    </g>
    <g id="text_13">
     <!-- Host MemAvailable -->
     <g transform="translate(353.702344 64.073052) scale(0.1 -0.1)">
      <defs>
       <path id="DejaVuSans-48" d="M 628 4666 
L 1259 4666 
L 1259 2753 
L 3553 2753 
L 3553 4666 
L 4184 4666 
L 4184 0 
L 3553 0 
L 3553 2222 
L 1259 2222 
L 1259 0 
L 628 0 
L 628 4666 
z
" transform="scale(0.015625)"/>
       <path id="DejaVuSans-4d" d="M 628 4666 
L 1569 4666 
L 2759 1491 
L 3956 4666 
L 4897 4666 
L 4897 0 
L 4281 0 
L 4281 4097 
L 3078 897 
L 2444 897 
L 1241 4097 
L 1241 0 
L 628 0 
L 628 4666 
z
" transform="scale(0.015625)"/>
       <path id="DejaVuSans-62" d="M 3116 1747 
Q 3116 2381 2855 2742 
Q 2594 3103 2138 3103 
Q 1681 3103 1420 2742 
Q 1159 2381 1159 1747 
Q 1159 1113 1420 752 
Q 1681 391 2138 391 
Q 2594 391 2855 752 
Q 3116 1113 3116 1747 
z
M 1159 2969 
Q 1341 3281 1617 3432 
Q 1894 3584 2278 3584 
Q 2916 3584 3314 3078 
Q 3713 2572 3713 1747 
Q 3713 922 3314 415 
Q 2916 -91 2278 -91 
Q 1894 -91 1617 61 
Q 1341 213 1159 525 
L 1159 0 
L 581 0 
L 581 4863 
L 1159 4863 
L 1159 2969 
z
" transform="scale(0.015625)"/>
      </defs>
      <use xlink:href="#DejaVuSans-48"/>
      <use xlink:href="#DejaVuSans-6f" transform="translate(75.195312 0)"/>
      <use xlink:href="#DejaVuSans-73" transform="translate(136.376953 0)"/>
      <use xlink:href="#DejaVuSans-74" transform="translate(188.476562 0)"/>
      <use xlink:href="#DejaVuSans-20" transform="translate(227.685547 0)"/>
      <use xlink:href="#DejaVuSans-4d" transform="translate(259.472656 0)"/>
      <use xlink:href="#DejaVuSans-65" transform="translate(345.751953 0)"/>
      <use xlink:href="#DejaVuSans-6d" transform="translate(407.275391 0)"/>
      <use xlink:href="#DejaVuSans-41" transform="translate(504.6875 0)"/>
      <use xlink:href="#DejaVuSans-76" transform="translate(567.220703 0)"/>
      <use xlink:href="#DejaVuSans-61" transform="translate(626.400391 0)"/>
      <use xlink:href="#DejaVuSans-69" transform="translate(687.679688 0)"/>
      <use xlink:href="#DejaVuSans-6c" transform="translate(715.462891 0)"/>
      <use xlink:href="#DejaVuSans-61" transform="translate(743.246094 0)"/>
      <use xlink:href="#DejaVuSans-62" transform="translate(804.525391 0)"/>
      <use xlink:href="#DejaVuSans-6c" transform="translate(868.001953 0)"/>
      <use xlink:href="#DejaVuSans-65" transform="translate(895.785156 0)"/>
     </g>
    </g>
   </g>
  </g>
  <g id="axes_2">
   <g id="patch_6">
    <path d="M 42.765865 470.64351 
L 860.99976 470.64351 
L 860.99976 249.131177 
L 42.765865 249.131177 
z
" style="fill: #ffffff"/>
   </g>
   <g id="matplotlib.axis_3">
    <g id="xtick_9">
     <g id="line2d_39">
      <path d="M 79.714958 470.64351 
L 79.714958 249.131177 
" clip-path="url(#pf95833b0c2)" style="fill: none; stroke: #b0b0b0; stroke-opacity: 0.2; stroke-width: 0.8; stroke-linecap: square"/>
     </g>
     <g id="line2d_40">
      <g>
       <use xlink:href="#mb5910efd70" x="79.714958" y="470.64351" style="stroke: #000000; stroke-width: 0.8"/>
      </g>
     </g>
     <g id="text_14">
      <!-- 0 -->
      <g transform="translate(76.533708 485.241947) scale(0.1 -0.1)">
       <use xlink:href="#DejaVuSans-30"/>
      </g>
     </g>
    </g>
    <g id="xtick_10">
     <g id="line2d_41">
      <path d="M 189.807286 470.64351 
L 189.807286 249.131177 
" clip-path="url(#pf95833b0c2)" style="fill: none; stroke: #b0b0b0; stroke-opacity: 0.2; stroke-width: 0.8; stroke-linecap: square"/>
     </g>
     <g id="line2d_42">
      <g>
       <use xlink:href="#mb5910efd70" x="189.807286" y="470.64351" style="stroke: #000000; stroke-width: 0.8"/>
      </g>
     </g>
     <g id="text_15">
      <!-- 100 -->
      <g transform="translate(180.263536 485.241947) scale(0.1 -0.1)">
       <use xlink:href="#DejaVuSans-31"/>
       <use xlink:href="#DejaVuSans-30" transform="translate(63.623047 0)"/>
       <use xlink:href="#DejaVuSans-30" transform="translate(127.246094 0)"/>
      </g>
     </g>
    </g>
    <g id="xtick_11">
     <g id="line2d_43">
      <path d="M 299.899614 470.64351 
L 299.899614 249.131177 
" clip-path="url(#pf95833b0c2)" style="fill: none; stroke: #b0b0b0; stroke-opacity: 0.2; stroke-width: 0.8; stroke-linecap: square"/>
     </g>
     <g id="line2d_44">
      <g>
       <use xlink:href="#mb5910efd70" x="299.899614" y="470.64351" style="stroke: #000000; stroke-width: 0.8"/>
      </g>
     </g>
     <g id="text_16">
      <!-- 200 -->
      <g transform="translate(290.355864 485.241947) scale(0.1 -0.1)">
       <use xlink:href="#DejaVuSans-32"/>
       <use xlink:href="#DejaVuSans-30" transform="translate(63.623047 0)"/>
       <use xlink:href="#DejaVuSans-30" transform="translate(127.246094 0)"/>
      </g>
     </g>
    </g>
    <g id="xtick_12">
     <g id="line2d_45">
      <path d="M 409.991942 470.64351 
L 409.991942 249.131177 
" clip-path="url(#pf95833b0c2)" style="fill: none; stroke: #b0b0b0; stroke-opacity: 0.2; stroke-width: 0.8; stroke-linecap: square"/>
     </g>
     <g id="line2d_46">
      <g>
       <use xlink:href="#mb5910efd70" x="409.991942" y="470.64351" style="stroke: #000000; stroke-width: 0.8"/>
      </g>
     </g>
     <g id="text_17">
      <!-- 300 -->
      <g transform="translate(400.448192 485.241947) scale(0.1 -0.1)">
       <use xlink:href="#DejaVuSans-33"/>
       <use xlink:href="#DejaVuSans-30" transform="translate(63.623047 0)"/>
       <use xlink:href="#DejaVuSans-30" transform="translate(127.246094 0)"/>
      </g>
     </g>
    </g>
    <g id="xtick_13">
     <g id="line2d_47">
      <path d="M 520.084271 470.64351 
L 520.084271 249.131177 
" clip-path="url(#pf95833b0c2)" style="fill: none; stroke: #b0b0b0; stroke-opacity: 0.2; stroke-width: 0.8; stroke-linecap: square"/>
     </g>
     <g id="line2d_48">
      <g>
       <use xlink:href="#mb5910efd70" x="520.084271" y="470.64351" style="stroke: #000000; stroke-width: 0.8"/>
      </g>
     </g>
     <g id="text_18">
      <!-- 400 -->
      <g transform="translate(510.540521 485.241947) scale(0.1 -0.1)">
       <use xlink:href="#DejaVuSans-34"/>
       <use xlink:href="#DejaVuSans-30" transform="translate(63.623047 0)"/>
       <use xlink:href="#DejaVuSans-30" transform="translate(127.246094 0)"/>
      </g>
     </g>
    </g>
    <g id="xtick_14">
     <g id="line2d_49">
      <path d="M 630.176599 470.64351 
L 630.176599 249.131177 
" clip-path="url(#pf95833b0c2)" style="fill: none; stroke: #b0b0b0; stroke-opacity: 0.2; stroke-width: 0.8; stroke-linecap: square"/>
     </g>
     <g id="line2d_50">
      <g>
       <use xlink:href="#mb5910efd70" x="630.176599" y="470.64351" style="stroke: #000000; stroke-width: 0.8"/>
      </g>
     </g>
     <g id="text_19">
      <!-- 500 -->
      <g transform="translate(620.632849 485.241947) scale(0.1 -0.1)">
       <use xlink:href="#DejaVuSans-35"/>
       <use xlink:href="#DejaVuSans-30" transform="translate(63.623047 0)"/>
       <use xlink:href="#DejaVuSans-30" transform="translate(127.246094 0)"/>
      </g>
     </g>
    </g>
    <g id="xtick_15">
     <g id="line2d_51">
      <path d="M 740.268927 470.64351 
L 740.268927 249.131177 
" clip-path="url(#pf95833b0c2)" style="fill: none; stroke: #b0b0b0; stroke-opacity: 0.2; stroke-width: 0.8; stroke-linecap: square"/>
     </g>
     <g id="line2d_52">
      <g>
       <use xlink:href="#mb5910efd70" x="740.268927" y="470.64351" style="stroke: #000000; stroke-width: 0.8"/>
      </g>
     </g>
     <g id="text_20">
      <!-- 600 -->
      <g transform="translate(730.725177 485.241947) scale(0.1 -0.1)">
       <use xlink:href="#DejaVuSans-36"/>
       <use xlink:href="#DejaVuSans-30" transform="translate(63.623047 0)"/>
       <use xlink:href="#DejaVuSans-30" transform="translate(127.246094 0)"/>
      </g>
     </g>
    </g>
    <g id="xtick_16">
     <g id="line2d_53">
      <path d="M 850.361255 470.64351 
L 850.361255 249.131177 
" clip-path="url(#pf95833b0c2)" style="fill: none; stroke: #b0b0b0; stroke-opacity: 0.2; stroke-width: 0.8; stroke-linecap: square"/>
     </g>
     <g id="line2d_54">
      <g>
       <use xlink:href="#mb5910efd70" x="850.361255" y="470.64351" style="stroke: #000000; stroke-width: 0.8"/>
      </g>
     </g>
     <g id="text_21">
      <!-- 700 -->
      <g transform="translate(840.817505 485.241947) scale(0.1 -0.1)">
       <use xlink:href="#DejaVuSans-37"/>
       <use xlink:href="#DejaVuSans-30" transform="translate(63.623047 0)"/>
       <use xlink:href="#DejaVuSans-30" transform="translate(127.246094 0)"/>
      </g>
     </g>
    </g>
    <g id="text_22">
     <!-- Seconds since watchdog launch -->
     <g transform="translate(371.972656 498.920073) scale(0.1 -0.1)">
      <use xlink:href="#DejaVuSans-53"/>
      <use xlink:href="#DejaVuSans-65" transform="translate(63.476562 0)"/>
      <use xlink:href="#DejaVuSans-63" transform="translate(125 0)"/>
      <use xlink:href="#DejaVuSans-6f" transform="translate(179.980469 0)"/>
      <use xlink:href="#DejaVuSans-6e" transform="translate(241.162109 0)"/>
      <use xlink:href="#DejaVuSans-64" transform="translate(304.541016 0)"/>
      <use xlink:href="#DejaVuSans-73" transform="translate(368.017578 0)"/>
      <use xlink:href="#DejaVuSans-20" transform="translate(420.117188 0)"/>
      <use xlink:href="#DejaVuSans-73" transform="translate(451.904297 0)"/>
      <use xlink:href="#DejaVuSans-69" transform="translate(504.003906 0)"/>
      <use xlink:href="#DejaVuSans-6e" transform="translate(531.787109 0)"/>
      <use xlink:href="#DejaVuSans-63" transform="translate(595.166016 0)"/>
      <use xlink:href="#DejaVuSans-65" transform="translate(650.146484 0)"/>
      <use xlink:href="#DejaVuSans-20" transform="translate(711.669922 0)"/>
      <use xlink:href="#DejaVuSans-77" transform="translate(743.457031 0)"/>
      <use xlink:href="#DejaVuSans-61" transform="translate(825.244141 0)"/>
      <use xlink:href="#DejaVuSans-74" transform="translate(886.523438 0)"/>
      <use xlink:href="#DejaVuSans-63" transform="translate(925.732422 0)"/>
      <use xlink:href="#DejaVuSans-68" transform="translate(980.712891 0)"/>
      <use xlink:href="#DejaVuSans-64" transform="translate(1044.091797 0)"/>
      <use xlink:href="#DejaVuSans-6f" transform="translate(1107.568359 0)"/>
      <use xlink:href="#DejaVuSans-67" transform="translate(1168.75 0)"/>
      <use xlink:href="#DejaVuSans-20" transform="translate(1232.226562 0)"/>
      <use xlink:href="#DejaVuSans-6c" transform="translate(1264.013672 0)"/>
      <use xlink:href="#DejaVuSans-61" transform="translate(1291.796875 0)"/>
      <use xlink:href="#DejaVuSans-75" transform="translate(1353.076172 0)"/>
      <use xlink:href="#DejaVuSans-6e" transform="translate(1416.455078 0)"/>
      <use xlink:href="#DejaVuSans-63" transform="translate(1479.833984 0)"/>
      <use xlink:href="#DejaVuSans-68" transform="translate(1534.814453 0)"/>
     </g>
    </g>
   </g>
   <g id="matplotlib.axis_4">
    <g id="ytick_9">
     <g id="line2d_55">
      <path d="M 42.765865 460.574768 
L 860.99976 460.574768 
" clip-path="url(#pf95833b0c2)" style="fill: none; stroke: #b0b0b0; stroke-opacity: 0.2; stroke-width: 0.8; stroke-linecap: square"/>
     </g>
     <g id="line2d_56">
      <g>
       <use xlink:href="#m7fb5e450b1" x="42.765865" y="460.574768" style="stroke: #000000; stroke-width: 0.8"/>
      </g>
     </g>
     <g id="text_23">
      <!-- 0 -->
      <g transform="translate(29.403365 464.373986) scale(0.1 -0.1)">
       <use xlink:href="#DejaVuSans-30"/>
      </g>
     </g>
    </g>
    <g id="ytick_10">
     <g id="line2d_57">
      <path d="M 42.765865 412.599372 
L 860.99976 412.599372 
" clip-path="url(#pf95833b0c2)" style="fill: none; stroke: #b0b0b0; stroke-opacity: 0.2; stroke-width: 0.8; stroke-linecap: square"/>
     </g>
     <g id="line2d_58">
      <g>
       <use xlink:href="#m7fb5e450b1" x="42.765865" y="412.599372" style="stroke: #000000; stroke-width: 0.8"/>
      </g>
     </g>
     <g id="text_24">
      <!-- 20 -->
      <g transform="translate(23.040865 416.398591) scale(0.1 -0.1)">
       <use xlink:href="#DejaVuSans-32"/>
       <use xlink:href="#DejaVuSans-30" transform="translate(63.623047 0)"/>
      </g>
     </g>
    </g>
    <g id="ytick_11">
     <g id="line2d_59">
      <path d="M 42.765865 364.623977 
L 860.99976 364.623977 
" clip-path="url(#pf95833b0c2)" style="fill: none; stroke: #b0b0b0; stroke-opacity: 0.2; stroke-width: 0.8; stroke-linecap: square"/>
     </g>
     <g id="line2d_60">
      <g>
       <use xlink:href="#m7fb5e450b1" x="42.765865" y="364.623977" style="stroke: #000000; stroke-width: 0.8"/>
      </g>
     </g>
     <g id="text_25">
      <!-- 40 -->
      <g transform="translate(23.040865 368.423196) scale(0.1 -0.1)">
       <use xlink:href="#DejaVuSans-34"/>
       <use xlink:href="#DejaVuSans-30" transform="translate(63.623047 0)"/>
      </g>
     </g>
    </g>
    <g id="ytick_12">
     <g id="line2d_61">
      <path d="M 42.765865 316.648582 
L 860.99976 316.648582 
" clip-path="url(#pf95833b0c2)" style="fill: none; stroke: #b0b0b0; stroke-opacity: 0.2; stroke-width: 0.8; stroke-linecap: square"/>
     </g>
     <g id="line2d_62">
      <g>
       <use xlink:href="#m7fb5e450b1" x="42.765865" y="316.648582" style="stroke: #000000; stroke-width: 0.8"/>
      </g>
     </g>
     <g id="text_26">
      <!-- 60 -->
      <g transform="translate(23.040865 320.4478) scale(0.1 -0.1)">
       <use xlink:href="#DejaVuSans-36"/>
       <use xlink:href="#DejaVuSans-30" transform="translate(63.623047 0)"/>
      </g>
     </g>
    </g>
    <g id="ytick_13">
     <g id="line2d_63">
      <path d="M 42.765865 268.673186 
L 860.99976 268.673186 
" clip-path="url(#pf95833b0c2)" style="fill: none; stroke: #b0b0b0; stroke-opacity: 0.2; stroke-width: 0.8; stroke-linecap: square"/>
     </g>
     <g id="line2d_64">
      <g>
       <use xlink:href="#m7fb5e450b1" x="42.765865" y="268.673186" style="stroke: #000000; stroke-width: 0.8"/>
      </g>
     </g>
     <g id="text_27">
      <!-- 80 -->
      <g transform="translate(23.040865 272.472405) scale(0.1 -0.1)">
       <use xlink:href="#DejaVuSans-38"/>
       <use xlink:href="#DejaVuSans-30" transform="translate(63.623047 0)"/>
      </g>
     </g>
    </g>
    <g id="text_28">
     <!-- GiB -->
     <g transform="translate(16.961178 368.581094) rotate(-90) scale(0.1 -0.1)">
      <use xlink:href="#DejaVuSans-47"/>
      <use xlink:href="#DejaVuSans-69" transform="translate(77.490234 0)"/>
      <use xlink:href="#DejaVuSans-42" transform="translate(105.273438 0)"/>
     </g>
    </g>
   </g>
   <g id="line2d_65">
    <path d="M 79.958315 460.574768 
L 90.231415 460.574768 
L 91.489099 458.831911 
L 92.742968 444.973394 
L 93.994692 444.973394 
L 95.247662 443.774009 
L 129.804061 443.774009 
L 131.135571 350.465613 
L 132.420392 310.408032 
L 252.391881 310.408032 
L 253.635331 301.187761 
L 325.14929 301.187761 
L 326.419372 309.114945 
L 334.788717 309.10089 
L 336.101919 299.590143 
L 340.157482 299.538607 
L 348.398288 299.538607 
L 349.766445 298.938914 
L 366.312146 298.938914 
L 367.590256 298.339222 
L 817.447479 298.329852 
L 822.553671 460.574768 
L 823.80731 460.574768 
L 823.80731 460.574768 
" clip-path="url(#pf95833b0c2)" style="fill: none; stroke: #1f77b4; stroke-width: 1.5; stroke-linecap: square"/>
   </g>
   <g id="line2d_66">
    <path d="M 79.958315 259.19992 
L 90.231415 259.19992 
L 91.489099 260.956831 
L 92.742968 274.815349 
L 93.994692 274.838774 
L 95.247662 276.061585 
L 125.893753 276.511354 
L 129.804061 276.511354 
L 131.135571 369.83849 
L 132.420392 409.896071 
L 252.391881 409.896071 
L 253.635331 419.116343 
L 325.14929 419.116343 
L 326.419372 411.189158 
L 334.788717 411.203213 
L 336.101919 420.713961 
L 340.157482 420.765497 
L 348.398288 420.765497 
L 349.766445 421.365189 
L 366.312146 421.365189 
L 367.590256 421.964882 
L 815.002469 421.974252 
L 816.227096 421.458891 
L 817.447479 421.458891 
L 822.553671 259.19992 
L 823.80731 259.19992 
L 823.80731 259.19992 
" clip-path="url(#pf95833b0c2)" style="fill: none; stroke: #ff7f0e; stroke-width: 1.5; stroke-linecap: square"/>
   </g>
   <g id="patch_7">
    <path d="M 42.765865 470.64351 
L 42.765865 249.131177 
" style="fill: none; stroke: #000000; stroke-width: 0.8; stroke-linejoin: miter; stroke-linecap: square"/>
   </g>
   <g id="patch_8">
    <path d="M 42.765865 470.64351 
L 860.99976 470.64351 
" style="fill: none; stroke: #000000; stroke-width: 0.8; stroke-linejoin: miter; stroke-linecap: square"/>
   </g>
   <g id="legend_2">
    <g id="patch_9">
     <path d="M 368.974219 465.64351 
L 534.791406 465.64351 
Q 536.791406 465.64351 536.791406 463.64351 
L 536.791406 435.28726 
Q 536.791406 433.28726 534.791406 433.28726 
L 368.974219 433.28726 
Q 366.974219 433.28726 366.974219 435.28726 
L 366.974219 463.64351 
Q 366.974219 465.64351 368.974219 465.64351 
z
" style="fill: #ffffff; opacity: 0.8; stroke: #cccccc; stroke-linejoin: miter"/>
    </g>
    <g id="line2d_67">
     <path d="M 370.974219 441.385697 
L 380.974219 441.385697 
L 390.974219 441.385697 
" style="fill: none; stroke: #1f77b4; stroke-width: 1.5; stroke-linecap: square"/>
    </g>
    <g id="text_29">
     <!-- Experiment GPU allocation -->
     <g transform="translate(398.974219 444.885697) scale(0.1 -0.1)">
      <defs>
       <path id="DejaVuSans-45" d="M 628 4666 
L 3578 4666 
L 3578 4134 
L 1259 4134 
L 1259 2753 
L 3481 2753 
L 3481 2222 
L 1259 2222 
L 1259 531 
L 3634 531 
L 3634 0 
L 628 0 
L 628 4666 
z
" transform="scale(0.015625)"/>
       <path id="DejaVuSans-55" d="M 556 4666 
L 1191 4666 
L 1191 1831 
Q 1191 1081 1462 751 
Q 1734 422 2344 422 
Q 2950 422 3222 751 
Q 3494 1081 3494 1831 
L 3494 4666 
L 4128 4666 
L 4128 1753 
Q 4128 841 3676 375 
Q 3225 -91 2344 -91 
Q 1459 -91 1007 375 
Q 556 841 556 1753 
L 556 4666 
z
" transform="scale(0.015625)"/>
      </defs>
      <use xlink:href="#DejaVuSans-45"/>
      <use xlink:href="#DejaVuSans-78" transform="translate(63.183594 0)"/>
      <use xlink:href="#DejaVuSans-70" transform="translate(122.363281 0)"/>
      <use xlink:href="#DejaVuSans-65" transform="translate(185.839844 0)"/>
      <use xlink:href="#DejaVuSans-72" transform="translate(247.363281 0)"/>
      <use xlink:href="#DejaVuSans-69" transform="translate(288.476562 0)"/>
      <use xlink:href="#DejaVuSans-6d" transform="translate(316.259766 0)"/>
      <use xlink:href="#DejaVuSans-65" transform="translate(413.671875 0)"/>
      <use xlink:href="#DejaVuSans-6e" transform="translate(475.195312 0)"/>
      <use xlink:href="#DejaVuSans-74" transform="translate(538.574219 0)"/>
      <use xlink:href="#DejaVuSans-20" transform="translate(577.783203 0)"/>
      <use xlink:href="#DejaVuSans-47" transform="translate(609.570312 0)"/>
      <use xlink:href="#DejaVuSans-50" transform="translate(687.060547 0)"/>
      <use xlink:href="#DejaVuSans-55" transform="translate(747.363281 0)"/>
      <use xlink:href="#DejaVuSans-20" transform="translate(820.556641 0)"/>
      <use xlink:href="#DejaVuSans-61" transform="translate(852.34375 0)"/>
      <use xlink:href="#DejaVuSans-6c" transform="translate(913.623047 0)"/>
      <use xlink:href="#DejaVuSans-6c" transform="translate(941.40625 0)"/>
      <use xlink:href="#DejaVuSans-6f" transform="translate(969.189453 0)"/>
      <use xlink:href="#DejaVuSans-63" transform="translate(1030.371094 0)"/>
      <use xlink:href="#DejaVuSans-61" transform="translate(1085.351562 0)"/>
      <use xlink:href="#DejaVuSans-74" transform="translate(1146.630859 0)"/>
      <use xlink:href="#DejaVuSans-69" transform="translate(1185.839844 0)"/>
      <use xlink:href="#DejaVuSans-6f" transform="translate(1213.623047 0)"/>
      <use xlink:href="#DejaVuSans-6e" transform="translate(1274.804688 0)"/>
     </g>
    </g>
    <g id="line2d_68">
     <path d="M 370.974219 456.063823 
L 380.974219 456.063823 
L 390.974219 456.063823 
" style="fill: none; stroke: #ff7f0e; stroke-width: 1.5; stroke-linecap: square"/>
    </g>
    <g id="text_30">
     <!-- Shared-host GPU free -->
     <g transform="translate(398.974219 459.563823) scale(0.1 -0.1)">
      <defs>
       <path id="DejaVuSans-66" d="M 2375 4863 
L 2375 4384 
L 1825 4384 
Q 1516 4384 1395 4259 
Q 1275 4134 1275 3809 
L 1275 3500 
L 2222 3500 
L 2222 3053 
L 1275 3053 
L 1275 0 
L 697 0 
L 697 3053 
L 147 3053 
L 147 3500 
L 697 3500 
L 697 3744 
Q 697 4328 969 4595 
Q 1241 4863 1831 4863 
L 2375 4863 
z
" transform="scale(0.015625)"/>
      </defs>
      <use xlink:href="#DejaVuSans-53"/>
      <use xlink:href="#DejaVuSans-68" transform="translate(63.476562 0)"/>
      <use xlink:href="#DejaVuSans-61" transform="translate(126.855469 0)"/>
      <use xlink:href="#DejaVuSans-72" transform="translate(188.134766 0)"/>
      <use xlink:href="#DejaVuSans-65" transform="translate(226.998047 0)"/>
      <use xlink:href="#DejaVuSans-64" transform="translate(288.521484 0)"/>
      <use xlink:href="#DejaVuSans-2d" transform="translate(351.998047 0)"/>
      <use xlink:href="#DejaVuSans-68" transform="translate(388.082031 0)"/>
      <use xlink:href="#DejaVuSans-6f" transform="translate(451.460938 0)"/>
      <use xlink:href="#DejaVuSans-73" transform="translate(512.642578 0)"/>
      <use xlink:href="#DejaVuSans-74" transform="translate(564.742188 0)"/>
      <use xlink:href="#DejaVuSans-20" transform="translate(603.951172 0)"/>
      <use xlink:href="#DejaVuSans-47" transform="translate(635.738281 0)"/>
      <use xlink:href="#DejaVuSans-50" transform="translate(713.228516 0)"/>
      <use xlink:href="#DejaVuSans-55" transform="translate(773.53125 0)"/>
      <use xlink:href="#DejaVuSans-20" transform="translate(846.724609 0)"/>
      <use xlink:href="#DejaVuSans-66" transform="translate(878.511719 0)"/>
      <use xlink:href="#DejaVuSans-72" transform="translate(913.716797 0)"/>
      <use xlink:href="#DejaVuSans-65" transform="translate(952.580078 0)"/>
      <use xlink:href="#DejaVuSans-65" transform="translate(1014.103516 0)"/>
     </g>
    </g>
   </g>
  </g>
 </g>
 <defs>
  <clipPath id="pba00c9ffee">
   <rect x="42.765865" y="18.118365" width="818.233895" height="221.512333"/>
  </clipPath>
  <clipPath id="pf95833b0c2">
   <rect x="42.765865" y="249.131177" width="818.233895" height="221.512333"/>
  </clipPath>
 </defs>
</svg>
