<?xml version="1.0" encoding="utf-8" standalone="no"?>
<!DOCTYPE svg PUBLIC "-//W3C//DTD SVG 1.1//EN"
  "http://www.w3.org/Graphics/SVG/1.1/DTD/svg11.dtd">
<svg xmlns:xlink="http://www.w3.org/1999/xlink" width="419.76pt" height="324pt" viewBox="0 0 419.76 324" xmlns="http://www.w3.org/2000/svg" version="1.1">
 <metadata>
  <rdf:RDF xmlns:dc="http://purl.org/dc/elements/1.1/" xmlns:cc="http://creativecommons.org/ns#" xmlns:rdf="http://www.w3.org/1999/02/22-rdf-syntax-ns#">
   <cc:Work>
    <dc:type rdf:resource="http://purl.org/dc/dcmitype/StillImage"/>
    <dc:date>2026-09-22T19:50:59.891333</dc:date>
    <dc:format>image/svg+xml</dc:format>
    <dc:creator>
     <cc:Agent>
      <dc:title>Matplotlib v3.11.2, https://matplotlib.org/</dc:title>
     </cc:Agent>
    </dc:creator>
   </cc:Work>
  </rdf:RDF>
 </metadata>
 <defs>
  <style type="text/css">*{stroke-linejoin: round; stroke-linecap: butt}</style>
 </defs>
 <g id="figure_1">
  <g id="patch_1">
   <path d="M 0 324 
L 419.76 324 
L 419.76 0 
L 0 0 
z
" style="fill: #ffffff"/>
  </g>
  <g id="axes_1">
   <g id="patch_2">
    <path d="M 32.648933 102.33864 
L 387.111067 102.33864 
Q 390.234082 102.33864 390.234082 99.92808 
L 390.234082 49.30632 
Q 390.234082 46.89576 387.111067 46.89576 
L 32.648933 46.89576 
Q 29.525918 46.89576 29.525918 49.30632 
L 29.525918 99.92808 
Q 29.525918 102.33864 32.648933 102.33864 
z
" clip-path="url(#p92e50b13e7)" style="fill: #cbe3f3; stroke: #454545; stroke-width: 0.9; stroke-linejoin: miter"/>
   </g>
   <g id="patch_3">
    <path d="M 209.88 104.733751 
Q 209.88 116.802066 209.88 127.752347 
" clip-path="url(#p92e50b13e7)" style="fill: none; stroke-dasharray: 3.7,1.6; stroke-dashoffset: 0; stroke: #454545; stroke-linecap: round"/>
    <path d="M 212.08 123.352347 
L 209.88 127.752347 
L 207.68 123.352347 
z
" clip-path="url(#p92e50b13e7)" style="fill: #454545; stroke-dasharray: 3.7,1.6; stroke-dashoffset: 0; stroke: #454545; stroke-linecap: round"/>
   </g>
   <g id="patch_4">
    <path d="M 32.648933 186.70824 
L 387.111067 186.70824 
Q 390.234082 186.70824 390.234082 184.29768 
L 390.234082 133.67592 
Q 390.234082 131.26536 387.111067 131.26536 
L 32.648933 131.26536 
Q 29.525918 131.26536 29.525918 133.67592 
L 29.525918 184.29768 
Q 29.525918 186.70824 32.648933 186.70824 
z
" clip-path="url(#p92e50b13e7)" style="fill: #f9dec0; stroke: #454545; stroke-width: 0.9; stroke-linejoin: miter"/>
   </g>
   <g id="patch_5">
    <path d="M 209.88 189.103351 
Q 209.88 201.171666 209.88 212.121947 
" clip-path="url(#p92e50b13e7)" style="fill: none; stroke-dasharray: 3.7,1.6; stroke-dashoffset: 0; stroke: #454545; stroke-linecap: round"/>
    <path d="M 212.08 207.721947 
L 209.88 212.121947 
L 207.68 207.721947 
z
" clip-path="url(#p92e50b13e7)" style="fill: #454545; stroke-dasharray: 3.7,1.6; stroke-dashoffset: 0; stroke: #454545; stroke-linecap: round"/>
   </g>
   <g id="patch_6">
    <path d="M 32.648933 271.07784 
L 387.111067 271.07784 
Q 390.234082 271.07784 390.234082 268.66728 
L 390.234082 218.04552 
Q 390.234082 215.63496 387.111067 215.63496 
L 32.648933 215.63496 
Q 29.525918 215.63496 29.525918 218.04552 
L 29.525918 268.66728 
Q 29.525918 271.07784 32.648933 271.07784 
z
" clip-path="url(#p92e50b13e7)" style="fill: #cfe8db; stroke: #454545; stroke-width: 0.9; stroke-linejoin: miter"/>
   </g>
   <g id="text_1">
    <!-- μ：實際生成樣本的策略 -->
    <g style="fill: #252525" transform="translate(146.112188 78.505013) scale(0.12 -0.12)">
     <defs>
      <path id="SourceHanSansCN-Regular-124" d="M 589 -1280 
L 589 3475 
L 1178 3475 
L 1178 1344 
Q 1178 890 1325 656 
Q 1472 422 1811 422 
Q 1971 422 2121 470 
Q 2272 518 2422 665 
Q 2573 813 2733 1094 
L 2733 3475 
L 3322 3475 
Q 3315 3008 3305 2525 
Q 3296 2042 3289 1578 
Q 3283 1114 3283 698 
Q 3283 550 3353 483 
Q 3424 416 3533 416 
Q 3584 416 3635 425 
Q 3686 435 3750 461 
L 3827 13 
Q 3744 -19 3648 -44 
Q 3552 -70 3411 -70 
Q 3110 -70 2966 86 
Q 2822 243 2784 589 
L 2771 589 
Q 2586 256 2336 93 
Q 2086 -70 1805 -70 
Q 1594 -70 1424 -3 
Q 1254 64 1126 262 
Q 1126 6 1129 -189 
Q 1133 -384 1139 -557 
Q 1146 -730 1155 -902 
Q 1165 -1075 1178 -1280 
L 589 -1280 
z
" transform="scale(0.015625)"/>
      <path id="SourceHanSansCN-Regular-7782" d="M 1600 3110 
Q 1408 3110 1261 3238 
Q 1114 3366 1114 3584 
Q 1114 3808 1261 3939 
Q 1408 4070 1600 4070 
Q 1792 4070 1939 3939 
Q 2086 3808 2086 3584 
Q 2086 3366 1939 3238 
Q 1792 3110 1600 3110 
z
M 1600 -26 
Q 1408 -26 1261 105 
Q 1114 237 1114 454 
Q 1114 672 1261 803 
Q 1408 934 1600 934 
Q 1792 934 1939 803 
Q 2086 672 2086 454 
Q 2086 237 1939 105 
Q 1792 -26 1600 -26 
z
" transform="scale(0.015625)"/>
      <path id="SourceHanSansCN-Regular-301b" d="M 5894 4813 
L 5894 3789 
L 5434 3789 
L 5434 4422 
L 960 4422 
L 960 3789 
L 518 3789 
L 518 4813 
L 5894 4813 
z
M 3450 3987 
Q 3430 3686 3398 3347 
Q 3366 3008 3328 2771 
L 2912 2771 
Q 2950 3021 2985 3357 
Q 3021 3693 3040 3987 
L 3450 3987 
z
M 1645 1235 
L 4781 1235 
L 4781 1536 
L 1645 1536 
L 1645 1235 
z
M 1645 659 
L 4781 659 
L 4781 960 
L 1645 960 
L 1645 659 
z
M 1645 1811 
L 4781 1811 
L 4781 2093 
L 1645 2093 
L 1645 1811 
z
M 5267 2387 
L 5267 371 
L 1178 371 
L 1178 2387 
L 5267 2387 
z
M 3859 378 
Q 4237 282 4608 179 
Q 4979 77 5312 -25 
Q 5645 -128 5894 -224 
L 5574 -531 
Q 5344 -442 5027 -336 
Q 4710 -230 4345 -118 
Q 3981 -6 3610 96 
L 3859 378 
z
M 1734 2944 
L 4563 2944 
L 4634 3840 
L 1850 3840 
L 1734 2944 
z
M 5107 4122 
L 4979 2650 
L 1261 2650 
L 1453 4122 
L 5107 4122 
z
M 2816 122 
Q 2554 -19 2195 -147 
Q 1837 -275 1453 -371 
Q 1069 -467 710 -525 
Q 666 -454 589 -355 
Q 512 -256 448 -192 
Q 794 -134 1171 -44 
Q 1549 45 1881 157 
Q 2214 269 2413 378 
L 2816 122 
z
M 1683 3584 
L 1683 3546 
L 4698 3546 
L 4698 3584 
L 6112 3584 
L 6112 3213 
L 4698 3213 
L 4698 3258 
L 1683 3258 
L 1683 3213 
L 307 3213 
L 307 3584 
L 1683 3584 
z
M 3136 5427 
Q 3258 5261 3379 5056 
Q 3501 4851 3552 4698 
L 3117 4557 
Q 3066 4710 2954 4918 
Q 2842 5126 2720 5293 
L 3136 5427 
z
" transform="scale(0.015625)"/>
      <path id="SourceHanSansCN-Regular-6a99" d="M 1971 5120 
L 1971 4685 
L 915 4685 
L 915 -493 
L 499 -493 
L 499 5120 
L 1971 5120 
z
M 1914 5120 
L 1984 5139 
L 2291 4954 
Q 2157 4563 1993 4115 
Q 1830 3667 1670 3283 
Q 2010 2880 2118 2534 
Q 2227 2189 2227 1888 
Q 2227 1632 2169 1433 
Q 2112 1235 1984 1139 
Q 1914 1088 1834 1062 
Q 1754 1037 1658 1018 
Q 1459 998 1235 1011 
Q 1229 1094 1200 1219 
Q 1171 1344 1120 1434 
Q 1229 1427 1318 1427 
Q 1408 1427 1485 1427 
Q 1606 1440 1670 1485 
Q 1747 1542 1776 1664 
Q 1805 1786 1805 1933 
Q 1805 2195 1693 2521 
Q 1581 2848 1248 3232 
Q 1338 3450 1421 3690 
Q 1504 3930 1581 4163 
Q 1658 4397 1722 4611 
Q 1786 4826 1837 4992 
L 1837 5120 
L 1914 5120 
z
M 5222 2810 
L 5222 2413 
L 3181 2413 
L 3181 2810 
L 5222 2810 
z
M 5843 1818 
L 5843 1408 
L 2547 1408 
L 2547 1818 
L 5843 1818 
z
M 3942 4883 
L 3942 4557 
L 2918 4557 
L 2918 4883 
L 3942 4883 
z
M 3117 4275 
Q 3283 4186 3472 4070 
Q 3661 3955 3763 3859 
L 3597 3597 
Q 3488 3699 3299 3824 
Q 3110 3949 2938 4045 
L 3117 4275 
z
M 2675 3648 
Q 2848 3546 3033 3402 
Q 3219 3258 3322 3149 
L 3123 2912 
Q 3021 3027 2835 3177 
Q 2650 3328 2477 3443 
L 2675 3648 
z
M 5338 1120 
Q 5472 947 5622 742 
Q 5773 538 5907 349 
Q 6042 160 6131 19 
L 5747 -211 
Q 5664 -70 5533 128 
Q 5402 326 5254 537 
Q 5107 749 4973 928 
L 5338 1120 
z
M 3917 4883 
L 3981 4902 
L 4224 4806 
Q 4090 4173 3824 3654 
Q 3558 3136 3212 2752 
Q 2867 2368 2477 2112 
Q 2438 2182 2368 2272 
Q 2298 2362 2234 2413 
Q 2592 2624 2912 2979 
Q 3232 3334 3478 3801 
Q 3725 4269 3846 4806 
L 3846 4883 
L 3917 4883 
z
M 5824 4832 
L 5824 4486 
L 4499 4486 
L 4499 4832 
L 5824 4832 
z
M 3392 5293 
Q 3213 4755 2931 4278 
Q 2650 3802 2317 3475 
Q 2266 3526 2166 3603 
Q 2067 3680 2003 3718 
Q 2336 4019 2601 4454 
Q 2867 4890 3014 5376 
L 3392 5293 
z
M 5792 4832 
L 5869 4858 
L 6144 4691 
Q 5984 4275 5741 3856 
Q 5498 3437 5235 3155 
Q 5190 3226 5110 3306 
Q 5030 3386 4966 3430 
Q 5120 3597 5261 3824 
Q 5402 4051 5517 4294 
Q 5632 4538 5702 4749 
L 5702 4832 
L 5792 4832 
z
M 4410 0 
Q 4410 -179 4368 -278 
Q 4326 -378 4198 -435 
Q 4064 -486 3869 -496 
Q 3674 -506 3392 -506 
Q 3379 -410 3334 -291 
Q 3290 -173 3238 -83 
Q 3469 -90 3635 -93 
Q 3802 -96 3859 -90 
Q 3923 -83 3942 -64 
Q 3962 -45 3962 6 
L 3962 1645 
L 4410 1645 
L 4410 0 
z
M 3290 966 
Q 3130 666 2922 342 
Q 2714 19 2528 -218 
Q 2464 -166 2355 -92 
Q 2246 -19 2170 19 
Q 2355 243 2547 531 
Q 2739 819 2874 1094 
L 3290 966 
z
M 4493 5248 
Q 4614 4608 4838 4057 
Q 5062 3507 5401 3091 
Q 5741 2675 6202 2445 
Q 6131 2387 6048 2281 
Q 5965 2176 5920 2093 
Q 5434 2368 5082 2819 
Q 4730 3270 4499 3872 
Q 4269 4474 4128 5184 
L 4493 5248 
z
" transform="scale(0.015625)"/>
      <path id="SourceHanSansCN-Regular-4936" d="M 5766 4134 
L 5766 3667 
L 1338 3667 
L 1338 4134 
L 5766 4134 
z
M 5536 2253 
L 5536 1792 
L 1056 1792 
L 1056 2253 
L 5536 2253 
z
M 6074 160 
L 6074 -307 
L 352 -307 
L 352 160 
L 6074 160 
z
M 3462 5376 
L 3462 -70 
L 2963 -70 
L 2963 5376 
L 3462 5376 
z
M 2016 5165 
Q 1882 4672 1690 4201 
Q 1498 3731 1267 3324 
Q 1037 2918 774 2611 
Q 730 2656 650 2710 
Q 570 2765 490 2816 
Q 410 2867 346 2899 
Q 608 3181 829 3561 
Q 1050 3942 1229 4377 
Q 1408 4813 1530 5274 
L 2016 5165 
z
" transform="scale(0.015625)"/>
      <path id="SourceHanSansCN-Regular-363f" d="M 2682 2976 
L 2682 2528 
L 1094 2528 
L 1094 2976 
L 2682 2976 
z
M 2963 2976 
Q 2963 2976 2963 2941 
Q 2963 2906 2963 2854 
Q 2963 2803 2957 2771 
Q 2944 2054 2921 1609 
Q 2899 1165 2864 934 
Q 2829 704 2758 614 
Q 2682 525 2595 486 
Q 2509 448 2374 429 
Q 2246 416 2041 419 
Q 1837 422 1600 435 
Q 1594 538 1558 662 
Q 1523 787 1466 883 
Q 1690 858 1878 854 
Q 2067 851 2144 851 
Q 2214 851 2262 864 
Q 2310 877 2349 922 
Q 2394 979 2422 1180 
Q 2451 1382 2467 1795 
Q 2483 2208 2496 2899 
L 2496 2976 
L 2963 2976 
z
M 4582 5344 
Q 4787 5254 5008 5123 
Q 5229 4992 5421 4861 
Q 5613 4730 5741 4621 
L 5440 4288 
Q 5318 4403 5126 4540 
Q 4934 4678 4716 4812 
Q 4499 4947 4294 5056 
L 4582 5344 
z
M 5690 3200 
Q 5280 1946 4573 1024 
Q 3866 102 2880 -474 
Q 2848 -422 2784 -348 
Q 2720 -275 2653 -201 
Q 2586 -128 2534 -83 
Q 3507 429 4179 1296 
Q 4851 2163 5216 3322 
L 5690 3200 
z
M 6086 4288 
L 6086 3821 
L 1133 3821 
L 1133 4288 
L 6086 4288 
z
M 1318 2483 
Q 1318 2144 1292 1747 
Q 1267 1350 1196 937 
Q 1126 525 992 141 
Q 858 -243 640 -557 
Q 595 -512 521 -448 
Q 448 -384 368 -326 
Q 288 -269 230 -237 
Q 499 160 624 633 
Q 749 1107 784 1590 
Q 819 2074 819 2490 
L 819 4288 
L 1318 4288 
L 1318 2483 
z
M 3981 5370 
Q 3974 4480 4044 3680 
Q 4115 2880 4243 2211 
Q 4371 1542 4553 1052 
Q 4736 563 4957 291 
Q 5178 19 5421 19 
Q 5562 19 5629 294 
Q 5696 570 5722 1203 
Q 5805 1126 5923 1052 
Q 6042 979 6138 941 
Q 6093 397 6013 89 
Q 5933 -218 5782 -342 
Q 5632 -467 5382 -467 
Q 5062 -467 4793 -249 
Q 4525 -32 4317 361 
Q 4109 755 3952 1296 
Q 3795 1837 3692 2489 
Q 3590 3142 3539 3872 
Q 3488 4602 3482 5370 
L 3981 5370 
z
" transform="scale(0.015625)"/>
      <path id="SourceHanSansCN-Regular-3e49" d="M 3488 1331 
L 3488 979 
L 2355 979 
L 2355 1331 
L 3488 1331 
z
M 4294 2048 
L 4294 1690 
L 2861 1690 
L 2861 2048 
L 4294 2048 
z
M 6029 4640 
L 6029 4275 
L 2554 4275 
L 2554 4640 
L 6029 4640 
z
M 6106 3104 
L 6106 2726 
L 2394 2726 
L 2394 3104 
L 6106 3104 
z
M 5830 3878 
L 5830 3520 
L 2816 3520 
L 2816 3878 
L 5830 3878 
z
M 4493 4448 
L 4493 2938 
L 4032 2938 
L 4032 4448 
L 4493 4448 
z
M 4486 -32 
Q 4486 -205 4444 -301 
Q 4403 -397 4275 -448 
Q 4154 -499 3949 -508 
Q 3744 -518 3443 -518 
Q 3430 -435 3392 -320 
Q 3354 -205 3315 -115 
Q 3526 -122 3702 -122 
Q 3878 -122 3936 -122 
Q 4000 -122 4019 -99 
Q 4038 -77 4038 -26 
L 4038 2048 
L 4486 2048 
L 4486 -32 
z
M 3763 2784 
Q 4006 2720 4278 2627 
Q 4550 2534 4800 2428 
Q 5050 2323 5216 2221 
L 4966 1907 
Q 4806 2003 4560 2112 
Q 4314 2221 4042 2326 
Q 3770 2432 3520 2502 
L 3763 2784 
z
M 3392 5376 
Q 3507 5229 3625 5040 
Q 3744 4851 3802 4717 
L 3424 4544 
Q 3366 4685 3257 4877 
Q 3149 5069 3027 5229 
L 3392 5376 
z
M 3469 1331 
L 3539 1344 
L 3808 1235 
Q 3635 653 3254 249 
Q 2874 -154 2419 -365 
Q 2374 -294 2297 -198 
Q 2221 -102 2157 -45 
Q 2426 64 2675 253 
Q 2925 442 3113 701 
Q 3302 960 3392 1261 
L 3392 1331 
L 3469 1331 
z
M 6022 1587 
Q 5766 1370 5472 1142 
Q 5178 915 4934 768 
L 4672 979 
Q 4826 1094 5011 1244 
Q 5197 1395 5369 1558 
Q 5542 1722 5664 1856 
L 6022 1587 
z
M 5504 5242 
Q 5382 5050 5260 4870 
Q 5139 4691 5030 4550 
L 4691 4678 
Q 4787 4826 4899 5030 
Q 5011 5235 5082 5382 
L 5504 5242 
z
M 4480 1696 
Q 4640 1325 4902 998 
Q 5165 672 5504 422 
Q 5843 173 6234 32 
Q 6163 -32 6073 -134 
Q 5984 -237 5933 -326 
Q 5542 -154 5200 137 
Q 4858 429 4595 803 
Q 4333 1178 4166 1600 
L 4480 1696 
z
M 2413 3987 
L 2413 3539 
L 339 3539 
L 339 3987 
L 2413 3987 
z
M 1677 5376 
L 1677 -506 
L 1235 -506 
L 1235 5376 
L 1677 5376 
z
M 1523 3622 
Q 1446 3238 1334 2828 
Q 1222 2419 1081 2022 
Q 941 1626 781 1286 
Q 621 947 448 704 
Q 416 800 339 918 
Q 262 1037 205 1120 
Q 365 1338 518 1638 
Q 672 1939 806 2291 
Q 941 2643 1049 3011 
Q 1158 3379 1222 3718 
L 1523 3622 
z
M 1645 3174 
Q 1702 3110 1814 2944 
Q 1926 2778 2057 2586 
Q 2189 2394 2297 2227 
Q 2406 2061 2451 1990 
L 2182 1632 
Q 2125 1754 2029 1939 
Q 1933 2125 1814 2329 
Q 1696 2534 1593 2707 
Q 1491 2880 1427 2976 
L 1645 3174 
z
" transform="scale(0.015625)"/>
      <path id="SourceHanSansCN-Regular-3b53" d="M 5997 4026 
L 5997 3539 
L 416 3539 
L 416 4026 
L 5997 4026 
z
M 4941 1171 
L 4941 685 
L 1446 685 
L 1446 1171 
L 4941 1171 
z
M 3450 5370 
L 3450 -512 
L 2944 -512 
L 2944 5370 
L 3450 5370 
z
M 2912 3731 
Q 2669 3066 2310 2454 
Q 1952 1843 1517 1340 
Q 1082 838 595 506 
Q 557 563 493 636 
Q 429 710 361 777 
Q 294 845 237 896 
Q 710 1184 1139 1651 
Q 1568 2118 1913 2691 
Q 2259 3264 2477 3866 
L 2912 3731 
z
M 3898 3846 
Q 4115 3251 4464 2688 
Q 4813 2125 5251 1670 
Q 5690 1216 6176 934 
Q 6118 890 6044 816 
Q 5971 742 5907 665 
Q 5843 589 5798 518 
Q 5306 845 4864 1341 
Q 4422 1837 4067 2448 
Q 3712 3059 3469 3718 
L 3898 3846 
z
" transform="scale(0.015625)"/>
      <path id="SourceHanSansCN-Regular-4a9b" d="M 2784 4346 
L 2784 160 
L 838 160 
L 838 595 
L 2342 595 
L 2342 3917 
L 838 3917 
L 838 4346 
L 2784 4346 
z
M 998 4346 
L 998 -346 
L 557 -346 
L 557 4346 
L 998 4346 
z
M 2573 2566 
L 2573 2144 
L 806 2144 
L 806 2566 
L 2573 2566 
z
M 2054 5299 
Q 1958 5005 1846 4694 
Q 1734 4384 1638 4173 
L 1248 4269 
Q 1306 4422 1360 4620 
Q 1414 4819 1462 5024 
Q 1510 5229 1536 5389 
L 2054 5299 
z
M 5664 4365 
L 5664 3923 
L 3699 3923 
L 3699 4365 
L 5664 4365 
z
M 5946 4365 
Q 5946 4365 5946 4320 
Q 5946 4275 5946 4214 
Q 5946 4154 5939 4122 
Q 5901 3021 5865 2259 
Q 5830 1498 5779 1014 
Q 5728 531 5661 262 
Q 5594 -6 5498 -122 
Q 5389 -262 5270 -316 
Q 5152 -371 4979 -390 
Q 4819 -403 4560 -400 
Q 4301 -397 4026 -378 
Q 4019 -275 3977 -140 
Q 3936 -6 3866 83 
Q 4186 58 4445 51 
Q 4704 45 4819 45 
Q 4915 45 4976 67 
Q 5037 90 5094 154 
Q 5171 237 5232 496 
Q 5293 755 5337 1235 
Q 5382 1715 5420 2460 
Q 5459 3206 5491 4262 
L 5491 4365 
L 5946 4365 
z
M 4288 5299 
Q 4173 4819 4009 4361 
Q 3846 3904 3654 3501 
Q 3462 3098 3238 2790 
Q 3200 2829 3123 2883 
Q 3046 2938 2969 2986 
Q 2893 3034 2835 3066 
Q 3059 3354 3244 3728 
Q 3430 4102 3577 4531 
Q 3725 4960 3827 5402 
L 4288 5299 
z
M 3910 2918 
Q 4090 2694 4282 2425 
Q 4474 2157 4643 1907 
Q 4813 1658 4915 1466 
L 4512 1216 
Q 4416 1408 4253 1667 
Q 4090 1926 3901 2198 
Q 3712 2470 3533 2707 
L 3910 2918 
z
" transform="scale(0.015625)"/>
      <path id="SourceHanSansCN-Regular-4f69" d="M 5946 3514 
L 5946 3091 
L 435 3091 
L 435 3514 
L 5946 3514 
z
M 3488 3923 
L 3488 -512 
L 2976 -512 
L 2976 3923 
L 3488 3923 
z
M 5331 2592 
L 5331 2176 
L 1395 2176 
L 1395 934 
L 896 934 
L 896 2592 
L 5331 2592 
z
M 5581 1402 
Q 5581 1235 5539 1145 
Q 5498 1056 5363 1005 
Q 5242 960 5046 950 
Q 4851 941 4576 941 
Q 4557 1030 4509 1136 
Q 4461 1242 4416 1318 
Q 4614 1312 4777 1312 
Q 4941 1312 4998 1318 
Q 5050 1318 5069 1337 
Q 5088 1357 5088 1402 
L 5088 2592 
L 5581 2592 
L 5581 1402 
z
M 3398 1536 
Q 3091 1107 2643 748 
Q 2195 390 1664 121 
Q 1133 -147 582 -307 
Q 550 -243 496 -169 
Q 442 -96 384 -25 
Q 326 45 275 96 
Q 819 224 1347 461 
Q 1875 698 2313 1008 
Q 2752 1318 3027 1683 
L 3398 1536 
z
M 3373 1702 
Q 3610 1402 4029 1094 
Q 4448 787 5005 534 
Q 5562 282 6195 141 
Q 6144 96 6086 19 
Q 6029 -58 5977 -138 
Q 5926 -218 5888 -275 
Q 5261 -109 4720 176 
Q 4179 461 3769 793 
Q 3360 1126 3110 1434 
L 3373 1702 
z
M 3104 4813 
L 3104 4403 
L 1088 4403 
L 1088 4813 
L 3104 4813 
z
M 6029 4813 
L 6029 4403 
L 3539 4403 
L 3539 4813 
L 6029 4813 
z
M 1677 5280 
Q 1485 4813 1200 4384 
Q 915 3955 614 3654 
Q 570 3693 496 3744 
Q 422 3795 345 3843 
Q 269 3891 211 3923 
Q 525 4192 790 4585 
Q 1056 4979 1222 5402 
L 1677 5280 
z
M 4173 5286 
Q 3994 4800 3699 4374 
Q 3405 3949 3078 3654 
Q 3034 3699 2960 3750 
Q 2886 3802 2809 3856 
Q 2733 3910 2669 3942 
Q 3002 4205 3274 4585 
Q 3546 4966 3699 5402 
L 4173 5286 
z
M 1875 4634 
Q 1990 4442 2112 4208 
Q 2234 3974 2285 3808 
L 1862 3654 
Q 1811 3821 1699 4061 
Q 1587 4301 1466 4499 
L 1875 4634 
z
M 4525 4653 
Q 4666 4461 4806 4224 
Q 4947 3987 5005 3814 
L 4582 3667 
Q 4525 3846 4390 4086 
Q 4256 4326 4115 4525 
L 4525 4653 
z
" transform="scale(0.015625)"/>
      <path id="SourceHanSansCN-Regular-497c" d="M 2611 4998 
L 2611 826 
L 742 826 
L 742 1248 
L 2227 1248 
L 2227 4576 
L 742 4576 
L 742 4998 
L 2611 4998 
z
M 864 4998 
L 864 250 
L 486 250 
L 486 4998 
L 864 4998 
z
M 2432 3187 
L 2432 2778 
L 704 2778 
L 704 3187 
L 2432 3187 
z
M 5574 166 
L 5574 -262 
L 3373 -262 
L 3373 166 
L 5574 166 
z
M 5498 4698 
L 5498 4282 
L 3667 4282 
L 3667 4698 
L 5498 4698 
z
M 1702 4781 
L 1702 1037 
L 1370 1037 
L 1370 4781 
L 1702 4781 
z
M 5786 1830 
L 5786 -467 
L 5318 -467 
L 5318 1402 
L 3539 1402 
L 3539 -480 
L 3085 -480 
L 3085 1830 
L 5786 1830 
z
M 5466 4698 
L 5549 4717 
L 5862 4557 
Q 5651 4019 5318 3555 
Q 4986 3091 4573 2710 
Q 4160 2330 3699 2038 
Q 3238 1747 2778 1555 
Q 2733 1645 2653 1753 
Q 2573 1862 2496 1926 
Q 2931 2093 3366 2358 
Q 3802 2624 4192 2973 
Q 4582 3322 4892 3734 
Q 5203 4147 5382 4608 
L 5382 4698 
L 5466 4698 
z
M 4358 5274 
Q 4186 4864 3949 4480 
Q 3712 4096 3433 3769 
Q 3155 3443 2854 3200 
Q 2822 3251 2755 3312 
Q 2688 3373 2617 3433 
Q 2547 3494 2496 3533 
Q 2938 3859 3309 4355 
Q 3680 4851 3904 5402 
L 4358 5274 
z
M 3661 4358 
Q 3814 4045 4064 3705 
Q 4314 3366 4653 3049 
Q 4992 2733 5408 2464 
Q 5824 2195 6304 2022 
Q 6259 1978 6198 1907 
Q 6138 1837 6083 1763 
Q 6029 1690 5997 1626 
Q 5357 1894 4832 2310 
Q 4307 2726 3926 3203 
Q 3546 3680 3322 4128 
L 3661 4358 
z
" transform="scale(0.015625)"/>
     </defs>
     <use xlink:href="#SourceHanSansCN-Regular-124"/>
     <use xlink:href="#SourceHanSansCN-Regular-7782" transform="translate(62.796875 0)"/>
     <use xlink:href="#SourceHanSansCN-Regular-301b" transform="translate(162.796875 0)"/>
     <use xlink:href="#SourceHanSansCN-Regular-6a99" transform="translate(262.796875 0)"/>
     <use xlink:href="#SourceHanSansCN-Regular-4936" transform="translate(362.796875 0)"/>
     <use xlink:href="#SourceHanSansCN-Regular-363f" transform="translate(462.796875 0)"/>
     <use xlink:href="#SourceHanSansCN-Regular-3e49" transform="translate(562.796875 0)"/>
     <use xlink:href="#SourceHanSansCN-Regular-3b53" transform="translate(662.796875 0)"/>
     <use xlink:href="#SourceHanSansCN-Regular-4a9b" transform="translate(762.796875 0)"/>
     <use xlink:href="#SourceHanSansCN-Regular-4f69" transform="translate(862.796875 0)"/>
     <use xlink:href="#SourceHanSansCN-Regular-497c" transform="translate(962.796875 0)"/>
    </g>
   </g>
   <g id="text_2">
    <!-- πold：本輪最佳化開始時的策略 -->
    <g style="fill: #252525" transform="translate(124.895625 163.583363) scale(0.12 -0.12)">
     <defs>
      <path id="SourceHanSansCN-Regular-128" d="M 3488 -70 
Q 3213 -70 3040 32 
Q 2867 134 2790 329 
Q 2714 525 2714 806 
Q 2714 941 2717 1190 
Q 2720 1440 2726 1750 
Q 2733 2061 2736 2384 
Q 2739 2707 2746 2995 
L 1504 2995 
Q 1504 2259 1440 1478 
Q 1376 698 1306 -32 
L 717 0 
Q 838 736 902 1513 
Q 966 2291 966 2995 
L 160 2995 
L 160 3443 
L 659 3475 
L 4006 3475 
L 4006 2995 
L 3309 2995 
Q 3290 2701 3280 2365 
Q 3270 2029 3267 1709 
Q 3264 1389 3264 1139 
Q 3264 890 3264 762 
Q 3264 576 3350 496 
Q 3437 416 3603 416 
Q 3648 416 3715 425 
Q 3782 435 3859 461 
L 3942 13 
Q 3859 -19 3744 -44 
Q 3629 -70 3488 -70 
z
" transform="scale(0.015625)"/>
      <path id="SourceHanSansCN-Regular-50" d="M 1939 -83 
Q 1517 -83 1145 131 
Q 774 346 553 752 
Q 333 1158 333 1734 
Q 333 2317 553 2723 
Q 774 3130 1145 3347 
Q 1517 3565 1939 3565 
Q 2259 3565 2550 3443 
Q 2842 3322 3066 3085 
Q 3290 2848 3418 2509 
Q 3546 2170 3546 1734 
Q 3546 1158 3322 752 
Q 3098 346 2733 131 
Q 2368 -83 1939 -83 
z
M 1939 403 
Q 2240 403 2467 569 
Q 2694 736 2822 1037 
Q 2950 1338 2950 1734 
Q 2950 2138 2822 2438 
Q 2694 2739 2467 2905 
Q 2240 3072 1939 3072 
Q 1638 3072 1411 2905 
Q 1184 2739 1059 2438 
Q 934 2138 934 1734 
Q 934 1338 1059 1037 
Q 1184 736 1411 569 
Q 1638 403 1939 403 
z
" transform="scale(0.015625)"/>
      <path id="SourceHanSansCN-Regular-4d" d="M 1203 -70 
Q 986 -70 851 22 
Q 717 115 653 288 
Q 589 461 589 710 
L 589 5094 
L 1178 5094 
L 1178 672 
Q 1178 531 1226 473 
Q 1274 416 1344 416 
Q 1370 416 1395 419 
Q 1421 422 1459 429 
L 1542 0 
Q 1478 -38 1395 -54 
Q 1312 -70 1203 -70 
z
" transform="scale(0.015625)"/>
      <path id="SourceHanSansCN-Regular-45" d="M 1773 -83 
Q 1338 -83 1014 128 
Q 691 339 515 745 
Q 339 1152 339 1734 
Q 339 2298 550 2707 
Q 762 3117 1104 3341 
Q 1446 3565 1843 3565 
Q 2150 3565 2371 3459 
Q 2592 3354 2822 3162 
L 2790 3757 
L 2790 5094 
L 3379 5094 
L 3379 0 
L 2899 0 
L 2848 410 
L 2829 410 
Q 2624 205 2355 61 
Q 2086 -83 1773 -83 
z
M 1901 410 
Q 2144 410 2361 528 
Q 2579 646 2790 883 
L 2790 2707 
Q 2573 2906 2368 2989 
Q 2163 3072 1946 3072 
Q 1670 3072 1443 2902 
Q 1216 2733 1078 2435 
Q 941 2138 941 1741 
Q 941 1325 1056 1024 
Q 1171 723 1385 566 
Q 1600 410 1901 410 
z
" transform="scale(0.015625)"/>
      <path id="SourceHanSansCN-Regular-6328" d="M 5389 3635 
L 5389 3226 
L 3328 3226 
L 3328 3635 
L 5389 3635 
z
M 5683 2675 
L 5683 2266 
L 3251 2266 
L 3251 -506 
L 2861 -506 
L 2861 2675 
L 5683 2675 
z
M 5664 1389 
L 5664 986 
L 3034 986 
L 3034 1389 
L 5664 1389 
z
M 5869 -13 
Q 5869 -154 5840 -250 
Q 5811 -346 5722 -403 
Q 5638 -454 5516 -467 
Q 5395 -480 5210 -480 
Q 5203 -397 5164 -278 
Q 5126 -160 5082 -70 
Q 5197 -77 5289 -77 
Q 5382 -77 5414 -77 
Q 5472 -77 5472 -6 
L 5472 2675 
L 5869 2675 
L 5869 -13 
z
M 4122 2528 
L 4122 -403 
L 3763 -403 
L 3763 2528 
L 4122 2528 
z
M 4979 2528 
L 4979 -403 
L 4621 -403 
L 4621 2528 
L 4979 2528 
z
M 4678 5267 
Q 4454 4845 4153 4435 
Q 3853 4026 3513 3670 
Q 3174 3315 2835 3059 
Q 2784 3142 2694 3238 
Q 2605 3334 2522 3405 
Q 2854 3635 3193 3961 
Q 3533 4288 3827 4665 
Q 4122 5043 4320 5421 
L 4678 5267 
z
M 4493 5107 
Q 4883 4614 5328 4211 
Q 5773 3808 6234 3469 
Q 6144 3398 6051 3296 
Q 5958 3194 5907 3098 
Q 5434 3482 4995 3933 
Q 4557 4384 4134 4934 
L 4493 5107 
z
M 2682 4698 
L 2682 4275 
L 339 4275 
L 339 4698 
L 2682 4698 
z
M 2675 992 
L 2675 576 
L 275 576 
L 275 992 
L 2675 992 
z
M 1734 5376 
L 1734 3590 
L 1299 3590 
L 1299 5376 
L 1734 5376 
z
M 1690 3616 
L 1690 1754 
L 1734 1754 
L 1734 -506 
L 1306 -506 
L 1306 1754 
L 1344 1754 
L 1344 3616 
L 1690 3616 
z
M 838 1856 
L 2176 1856 
L 2176 2470 
L 838 2470 
L 838 1856 
z
M 838 2816 
L 2176 2816 
L 2176 3430 
L 838 3430 
L 838 2816 
z
M 2554 3789 
L 2554 1491 
L 467 1491 
L 467 3789 
L 2554 3789 
z
" transform="scale(0.015625)"/>
      <path id="SourceHanSansCN-Regular-3b28" d="M 1587 3610 
L 4819 3610 
L 4819 4064 
L 1587 4064 
L 1587 3610 
z
M 1587 4384 
L 4819 4384 
L 4819 4832 
L 1587 4832 
L 1587 4384 
z
M 5299 5171 
L 5299 3270 
L 1126 3270 
L 1126 5171 
L 5299 5171 
z
M 6074 2912 
L 6074 2509 
L 314 2509 
L 314 2912 
L 6074 2912 
z
M 5536 2112 
L 5536 1715 
L 3245 1715 
L 3245 2112 
L 5536 2112 
z
M 2784 2080 
L 2784 1722 
L 1210 1722 
L 1210 2080 
L 2784 2080 
z
M 2784 1267 
L 2784 909 
L 1210 909 
L 1210 1267 
L 2784 1267 
z
M 3891 1792 
Q 4173 1094 4765 595 
Q 5357 96 6170 -109 
Q 6093 -173 6009 -288 
Q 5926 -403 5882 -486 
Q 5037 -237 4429 323 
Q 3821 883 3507 1683 
L 3891 1792 
z
M 5523 2112 
L 5613 2131 
L 5882 2010 
Q 5677 1357 5299 867 
Q 4922 378 4426 42 
Q 3930 -294 3386 -493 
Q 3347 -416 3276 -307 
Q 3206 -198 3142 -141 
Q 3642 19 4106 320 
Q 4570 621 4925 1056 
Q 5280 1491 5446 2035 
L 5446 2112 
L 5523 2112 
z
M 301 275 
Q 685 307 1181 361 
Q 1677 416 2230 480 
Q 2784 544 3334 602 
L 3341 211 
Q 2803 147 2265 80 
Q 1728 13 1238 -48 
Q 749 -109 346 -154 
L 301 275 
z
M 2995 2784 
L 2995 -512 
L 2534 -512 
L 2534 2784 
L 2995 2784 
z
M 1370 2771 
L 1370 173 
L 928 173 
L 928 2771 
L 1370 2771 
z
" transform="scale(0.015625)"/>
      <path id="SourceHanSansCN-Regular-23bf" d="M 2163 5216 
Q 1971 4678 1715 4150 
Q 1459 3622 1155 3155 
Q 851 2688 525 2323 
Q 506 2381 458 2470 
Q 410 2560 352 2653 
Q 294 2746 250 2797 
Q 544 3110 816 3523 
Q 1088 3936 1318 4403 
Q 1549 4870 1715 5350 
L 2163 5216 
z
M 1069 -512 
L 1069 3661 
L 1536 4128 
L 1542 4122 
L 1542 -512 
L 1069 -512 
z
M 5728 4538 
L 5728 4083 
L 2406 4083 
L 2406 4538 
L 5728 4538 
z
M 5837 1722 
L 5837 1267 
L 2278 1267 
L 2278 1722 
L 5837 1722 
z
M 6016 3168 
L 6016 2707 
L 2099 2707 
L 2099 3168 
L 6016 3168 
z
M 6144 192 
L 6144 -269 
L 1882 -269 
L 1882 192 
L 6144 192 
z
M 4288 5376 
L 4288 2899 
L 3802 2899 
L 3802 5376 
L 4288 5376 
z
M 4288 2458 
L 4288 -134 
L 3802 -134 
L 3802 2458 
L 4288 2458 
z
" transform="scale(0.015625)"/>
      <path id="SourceHanSansCN-Regular-275c" d="M 3814 506 
Q 3814 243 3884 163 
Q 3955 83 4186 83 
Q 4243 83 4387 83 
Q 4531 83 4704 83 
Q 4877 83 5027 83 
Q 5178 83 5248 83 
Q 5414 83 5497 198 
Q 5581 314 5619 611 
Q 5658 909 5677 1459 
Q 5747 1408 5830 1360 
Q 5914 1312 6000 1277 
Q 6086 1242 6157 1222 
Q 6125 621 6048 269 
Q 5971 -83 5792 -240 
Q 5613 -397 5274 -397 
Q 5229 -397 5117 -397 
Q 5005 -397 4854 -397 
Q 4704 -397 4553 -397 
Q 4403 -397 4294 -397 
Q 4186 -397 4141 -397 
Q 3821 -397 3638 -317 
Q 3456 -237 3379 -38 
Q 3302 160 3302 518 
L 3302 5261 
L 3814 5261 
L 3814 506 
z
M 6010 4141 
Q 5549 3501 4953 2934 
Q 4358 2368 3705 1904 
Q 3053 1440 2413 1114 
Q 2374 1165 2313 1232 
Q 2253 1299 2189 1363 
Q 2125 1427 2061 1472 
Q 2694 1792 3337 2243 
Q 3981 2694 4557 3257 
Q 5133 3821 5549 4448 
L 6010 4141 
z
M 2477 5229 
Q 2253 4685 1949 4160 
Q 1645 3635 1299 3174 
Q 954 2714 589 2362 
Q 563 2413 505 2502 
Q 448 2592 384 2685 
Q 320 2778 269 2829 
Q 614 3136 937 3542 
Q 1261 3949 1533 4419 
Q 1805 4890 2003 5376 
L 2477 5229 
z
M 1824 4282 
L 1830 4275 
L 1830 -512 
L 1325 -512 
L 1325 3789 
L 1824 4282 
z
" transform="scale(0.015625)"/>
      <path id="SourceHanSansCN-Regular-698b" d="M 4787 2541 
L 4787 2144 
L 1606 2144 
L 1606 2541 
L 4787 2541 
z
M 4922 1446 
L 4922 1037 
L 1491 1037 
L 1491 1446 
L 4922 1446 
z
M 4051 2419 
L 4051 -390 
L 3622 -390 
L 3622 2419 
L 4051 2419 
z
M 2726 1229 
Q 2726 1082 2688 867 
Q 2650 653 2557 409 
Q 2464 166 2291 -67 
Q 2118 -301 1850 -486 
Q 1798 -416 1702 -329 
Q 1606 -243 1530 -192 
Q 1850 6 2016 272 
Q 2182 538 2243 797 
Q 2304 1056 2304 1235 
L 2304 2400 
L 2726 2400 
L 2726 1229 
z
M 2611 4211 
L 2611 3872 
L 813 3872 
L 813 4211 
L 2611 4211 
z
M 5581 4211 
L 5581 3872 
L 3763 3872 
L 3763 4211 
L 5581 4211 
z
M 5862 109 
Q 5862 -102 5808 -227 
Q 5754 -352 5613 -416 
Q 5466 -474 5222 -490 
Q 4979 -506 4608 -499 
Q 4602 -435 4579 -348 
Q 4557 -262 4525 -172 
Q 4493 -83 4461 -19 
Q 4723 -26 4950 -26 
Q 5178 -26 5261 -26 
Q 5331 -19 5360 9 
Q 5389 38 5389 115 
L 5389 5101 
L 5862 5101 
L 5862 109 
z
M 2906 5101 
L 2906 2944 
L 858 2944 
L 858 3315 
L 2451 3315 
L 2451 4736 
L 858 4736 
L 858 5101 
L 2906 5101 
z
M 5619 4736 
L 3930 4736 
L 3930 3309 
L 5619 3309 
L 5619 2938 
L 3475 2938 
L 3475 5101 
L 5619 5101 
L 5619 4736 
z
M 1043 5101 
L 1043 -518 
L 570 -518 
L 570 5101 
L 1043 5101 
z
" transform="scale(0.015625)"/>
      <path id="SourceHanSansCN-Regular-2e00" d="M 5562 198 
L 5562 -230 
L 3251 -230 
L 3251 198 
L 5562 198 
z
M 5792 2093 
L 5792 -499 
L 5331 -499 
L 5331 1658 
L 3405 1658 
L 3405 -512 
L 2957 -512 
L 2957 2093 
L 5792 2093 
z
M 5120 4448 
Q 5338 4166 5549 3846 
Q 5760 3526 5933 3212 
Q 6106 2899 6202 2650 
L 5792 2438 
Q 5702 2688 5532 3008 
Q 5363 3328 5155 3657 
Q 4947 3987 4736 4262 
L 5120 4448 
z
M 2746 2605 
Q 2739 2656 2710 2742 
Q 2682 2829 2650 2918 
Q 2618 3008 2586 3066 
Q 2675 3085 2777 3197 
Q 2880 3309 2995 3482 
Q 3059 3565 3180 3757 
Q 3302 3949 3449 4211 
Q 3597 4474 3747 4774 
Q 3898 5075 4013 5382 
L 4512 5242 
Q 4314 4800 4077 4374 
Q 3840 3949 3590 3568 
Q 3341 3187 3098 2880 
L 3098 2867 
Q 3098 2867 3043 2841 
Q 2989 2816 2921 2777 
Q 2854 2739 2800 2694 
Q 2746 2650 2746 2605 
z
M 2739 2995 
L 3034 3162 
L 5741 3334 
Q 5760 3232 5789 3110 
Q 5818 2989 5843 2912 
Q 5062 2848 4534 2806 
Q 4006 2765 3676 2739 
Q 3347 2714 3164 2691 
Q 2982 2669 2892 2646 
Q 2803 2624 2746 2605 
L 2739 2995 
z
M 416 1869 
Q 518 2189 627 2617 
Q 736 3046 835 3520 
Q 934 3994 1014 4464 
Q 1094 4934 1139 5350 
L 1587 5318 
Q 1536 4890 1446 4406 
Q 1357 3923 1257 3436 
Q 1158 2950 1046 2512 
Q 934 2074 826 1722 
L 416 1869 
z
M 2176 4064 
L 2176 3616 
L 275 3616 
L 275 4064 
L 2176 4064 
z
M 2131 4064 
L 2208 4077 
L 2483 4032 
Q 2406 2790 2166 1907 
Q 1926 1024 1523 438 
Q 1120 -147 550 -499 
Q 499 -416 416 -301 
Q 333 -186 256 -122 
Q 774 160 1148 704 
Q 1523 1248 1750 2061 
Q 1978 2874 2048 3968 
L 2048 4064 
L 2131 4064 
z
M 678 2208 
Q 954 2029 1235 1817 
Q 1517 1606 1779 1379 
Q 2042 1152 2262 934 
Q 2483 717 2624 525 
L 2330 134 
Q 2189 326 1974 553 
Q 1760 781 1501 1014 
Q 1242 1248 963 1465 
Q 685 1683 416 1869 
L 678 2208 
z
" transform="scale(0.015625)"/>
      <path id="SourceHanSansCN-Regular-3a6c" d="M 5901 4614 
L 5901 4186 
L 2694 4186 
L 2694 4614 
L 5901 4614 
z
M 6170 3373 
L 6170 2938 
L 2426 2938 
L 2426 3373 
L 6170 3373 
z
M 6106 2214 
L 6106 1786 
L 2458 1786 
L 2458 2214 
L 6106 2214 
z
M 4512 5382 
L 4512 3104 
L 4038 3104 
L 4038 5382 
L 4512 5382 
z
M 5357 58 
Q 5357 -147 5299 -259 
Q 5242 -371 5094 -422 
Q 4941 -480 4691 -493 
Q 4442 -506 4051 -506 
Q 4038 -410 3990 -278 
Q 3942 -147 3891 -51 
Q 4186 -58 4429 -61 
Q 4672 -64 4749 -58 
Q 4826 -58 4854 -32 
Q 4883 -6 4883 64 
L 4883 3008 
L 5357 3008 
L 5357 58 
z
M 3232 1562 
Q 3392 1402 3558 1203 
Q 3725 1005 3862 813 
Q 4000 621 4070 461 
L 3661 211 
Q 3590 371 3459 566 
Q 3328 762 3168 963 
Q 3008 1165 2848 1338 
L 3232 1562 
z
M 2317 4960 
L 2317 749 
L 717 749 
L 717 1184 
L 1862 1184 
L 1862 4518 
L 717 4518 
L 717 4960 
L 2317 4960 
z
M 2074 3098 
L 2074 2662 
L 736 2662 
L 736 3098 
L 2074 3098 
z
M 934 4960 
L 934 224 
L 486 224 
L 486 4960 
L 934 4960 
z
" transform="scale(0.015625)"/>
     </defs>
     <use xlink:href="#SourceHanSansCN-Regular-128"/>
     <use xlink:href="#SourceHanSansCN-Regular-50" transform="translate(65.40625 0)"/>
     <use xlink:href="#SourceHanSansCN-Regular-4d" transform="translate(126 0)"/>
     <use xlink:href="#SourceHanSansCN-Regular-45" transform="translate(154.40625 0)"/>
     <use xlink:href="#SourceHanSansCN-Regular-7782" transform="translate(216.40625 0)"/>
     <use xlink:href="#SourceHanSansCN-Regular-3b53" transform="translate(316.40625 0)"/>
     <use xlink:href="#SourceHanSansCN-Regular-6328" transform="translate(416.40625 0)"/>
     <use xlink:href="#SourceHanSansCN-Regular-3b28" transform="translate(516.40625 0)"/>
     <use xlink:href="#SourceHanSansCN-Regular-23bf" transform="translate(616.40625 0)"/>
     <use xlink:href="#SourceHanSansCN-Regular-275c" transform="translate(716.40625 0)"/>
     <use xlink:href="#SourceHanSansCN-Regular-698b" transform="translate(816.40625 0)"/>
     <use xlink:href="#SourceHanSansCN-Regular-2e00" transform="translate(916.40625 0)"/>
     <use xlink:href="#SourceHanSansCN-Regular-3a6c" transform="translate(1016.40625 0)"/>
     <use xlink:href="#SourceHanSansCN-Regular-4a9b" transform="translate(1116.40625 0)"/>
     <use xlink:href="#SourceHanSansCN-Regular-4f69" transform="translate(1216.40625 0)"/>
     <use xlink:href="#SourceHanSansCN-Regular-497c" transform="translate(1316.40625 0)"/>
    </g>
   </g>
   <g id="text_3">
    <!-- πθ：本輪更新中的當前策略 -->
    <g style="fill: #252525" transform="translate(136.457812 247.9464) scale(0.12 -0.12)">
     <defs>
      <path id="SourceHanSansCN-Regular-120" d="M 1869 -83 
Q 1190 -83 809 553 
Q 429 1190 429 2566 
Q 429 3418 601 4000 
Q 774 4582 1097 4880 
Q 1421 5178 1869 5178 
Q 2310 5178 2633 4880 
Q 2957 4582 3133 4000 
Q 3309 3418 3309 2566 
Q 3309 1651 3133 1065 
Q 2957 480 2633 198 
Q 2310 -83 1869 -83 
z
M 1869 403 
Q 2118 403 2313 604 
Q 2509 806 2621 1280 
Q 2733 1754 2733 2566 
Q 2733 3136 2665 3542 
Q 2598 3949 2483 4205 
Q 2368 4461 2211 4579 
Q 2054 4698 1869 4698 
Q 1677 4698 1520 4579 
Q 1363 4461 1248 4205 
Q 1133 3949 1065 3542 
Q 998 3136 998 2566 
Q 998 1754 1110 1280 
Q 1222 806 1420 604 
Q 1619 403 1869 403 
z
M 749 2342 
L 749 2810 
L 2982 2810 
L 2982 2342 
L 749 2342 
z
" transform="scale(0.015625)"/>
      <path id="SourceHanSansCN-Regular-3b1d" d="M 5984 5037 
L 5984 4602 
L 416 4602 
L 416 5037 
L 5984 5037 
z
M 3488 2362 
Q 3488 1997 3430 1645 
Q 3373 1293 3206 976 
Q 3040 659 2720 377 
Q 2400 96 1878 -128 
Q 1357 -352 589 -518 
Q 563 -461 512 -384 
Q 461 -307 406 -227 
Q 352 -147 301 -96 
Q 1050 45 1542 237 
Q 2035 429 2326 669 
Q 2618 909 2758 1181 
Q 2899 1453 2944 1753 
Q 2989 2054 2989 2368 
L 2989 4851 
L 3488 4851 
L 3488 2362 
z
M 1459 1978 
L 5107 1978 
L 5107 2630 
L 1459 2630 
L 1459 1978 
z
M 1459 3014 
L 5107 3014 
L 5107 3654 
L 1459 3654 
L 1459 3014 
z
M 5587 4058 
L 5587 1581 
L 998 1581 
L 998 4058 
L 5587 4058 
z
M 1613 1523 
Q 1920 1050 2349 755 
Q 2778 461 3344 301 
Q 3910 141 4620 73 
Q 5331 6 6202 -13 
Q 6138 -96 6077 -233 
Q 6016 -371 5997 -493 
Q 5107 -448 4368 -358 
Q 3629 -269 3037 -73 
Q 2445 122 1984 467 
Q 1523 813 1203 1357 
L 1613 1523 
z
" transform="scale(0.015625)"/>
      <path id="SourceHanSansCN-Regular-39da" d="M 6131 3213 
L 6131 2765 
L 3750 2765 
L 3750 3213 
L 6131 3213 
z
M 3219 4704 
L 3219 4301 
L 390 4301 
L 390 4704 
L 3219 4704 
z
M 3245 2170 
L 3245 1747 
L 320 1747 
L 320 2170 
L 3245 2170 
z
M 3322 3245 
L 3322 2835 
L 294 2835 
L 294 3245 
L 3322 3245 
z
M 5427 3027 
L 5427 -480 
L 4960 -480 
L 4960 3027 
L 5427 3027 
z
M 1197 4256 
Q 1293 4051 1369 3795 
Q 1446 3539 1466 3360 
L 1056 3245 
Q 1037 3437 969 3693 
Q 902 3949 806 4166 
L 1197 4256 
z
M 2861 4173 
Q 2758 3885 2643 3587 
Q 2528 3290 2432 3072 
L 2035 3168 
Q 2099 3315 2169 3510 
Q 2240 3706 2307 3907 
Q 2374 4109 2413 4269 
L 2861 4173 
z
M 5926 4902 
Q 5626 4787 5245 4691 
Q 4864 4595 4464 4521 
Q 4064 4448 3686 4390 
Q 3674 4467 3626 4572 
Q 3578 4678 3539 4762 
Q 3898 4819 4269 4899 
Q 4640 4979 4973 5072 
Q 5306 5165 5536 5254 
L 5926 4902 
z
M 1805 5402 
Q 1914 5210 2026 4973 
Q 2138 4736 2195 4576 
L 1747 4442 
Q 1696 4602 1587 4845 
Q 1478 5088 1370 5293 
L 1805 5402 
z
M 2048 109 
Q 2048 -58 2006 -150 
Q 1965 -243 1856 -301 
Q 1747 -352 1580 -365 
Q 1414 -378 1178 -378 
Q 1171 -288 1126 -173 
Q 1082 -58 1037 32 
Q 1203 26 1340 26 
Q 1478 26 1530 32 
Q 1606 32 1606 115 
L 1606 2995 
L 2048 2995 
L 2048 109 
z
M 3987 2560 
Q 3987 2214 3964 1817 
Q 3942 1421 3872 1017 
Q 3802 614 3670 236 
Q 3539 -141 3315 -454 
Q 3283 -403 3212 -348 
Q 3142 -294 3068 -240 
Q 2995 -186 2944 -160 
Q 3213 224 3341 694 
Q 3469 1165 3504 1651 
Q 3539 2138 3539 2560 
L 3539 4762 
L 3987 4762 
L 3987 2560 
z
M 2624 1536 
Q 2790 1299 2944 1017 
Q 3098 736 3174 531 
L 2829 326 
Q 2746 538 2598 832 
Q 2451 1126 2304 1363 
L 2624 1536 
z
M 1254 1408 
Q 1139 1075 966 748 
Q 794 422 595 198 
Q 544 243 441 320 
Q 339 397 269 435 
Q 461 646 614 928 
Q 768 1210 864 1504 
L 1254 1408 
z
" transform="scale(0.015625)"/>
      <path id="SourceHanSansCN-Regular-2279" d="M 5773 4230 
L 5773 1222 
L 5280 1222 
L 5280 3763 
L 1094 3763 
L 1094 1190 
L 614 1190 
L 614 4230 
L 5773 4230 
z
M 5568 2061 
L 5568 1587 
L 870 1587 
L 870 2061 
L 5568 2061 
z
M 3437 5376 
L 3437 -506 
L 2931 -506 
L 2931 5376 
L 3437 5376 
z
" transform="scale(0.015625)"/>
      <path id="SourceHanSansCN-Regular-498d" d="M 3443 1594 
L 3443 -160 
L 2976 -160 
L 2976 1594 
L 3443 1594 
z
M 2010 2534 
L 4429 2534 
L 4429 3142 
L 2010 3142 
L 2010 2534 
z
M 4902 3507 
L 4902 2163 
L 1562 2163 
L 1562 3507 
L 4902 3507 
z
M 5536 1798 
L 5536 -512 
L 5056 -512 
L 5056 1421 
L 1434 1421 
L 1434 -525 
L 973 -525 
L 973 1798 
L 5536 1798 
z
M 5229 909 
L 5229 557 
L 1235 557 
L 1235 909 
L 5229 909 
z
M 5229 32 
L 5229 -339 
L 1235 -339 
L 1235 32 
L 5229 32 
z
M 3430 5376 
L 3430 4173 
L 2944 4173 
L 2944 5376 
L 3430 5376 
z
M 5933 4397 
L 5933 3066 
L 5459 3066 
L 5459 3974 
L 992 3974 
L 992 3066 
L 531 3066 
L 531 4397 
L 5933 4397 
z
M 1485 5299 
Q 1645 5114 1801 4893 
Q 1958 4672 2042 4506 
L 1600 4294 
Q 1523 4467 1369 4704 
Q 1216 4941 1056 5120 
L 1485 5299 
z
M 5395 5152 
Q 5229 4928 5056 4701 
Q 4883 4474 4730 4320 
L 4333 4467 
Q 4429 4589 4537 4736 
Q 4646 4883 4742 5040 
Q 4838 5197 4896 5318 
L 5395 5152 
z
" transform="scale(0.015625)"/>
      <path id="SourceHanSansCN-Regular-2695" d="M 6061 4365 
L 6061 3923 
L 339 3923 
L 339 4365 
L 6061 4365 
z
M 2797 2304 
L 2797 1926 
L 998 1926 
L 998 2304 
L 2797 2304 
z
M 2797 1280 
L 2797 902 
L 998 902 
L 998 1280 
L 2797 1280 
z
M 4314 3290 
L 4314 666 
L 3866 666 
L 3866 3290 
L 4314 3290 
z
M 3085 38 
Q 3085 -141 3037 -243 
Q 2989 -346 2854 -403 
Q 2720 -461 2505 -473 
Q 2291 -486 1965 -486 
Q 1946 -397 1898 -272 
Q 1850 -147 1798 -58 
Q 2042 -64 2240 -67 
Q 2438 -70 2502 -64 
Q 2573 -64 2595 -38 
Q 2618 -13 2618 45 
L 2618 3347 
L 3085 3347 
L 3085 38 
z
M 5638 83 
Q 5638 -122 5580 -234 
Q 5523 -346 5370 -403 
Q 5222 -461 4976 -477 
Q 4730 -493 4358 -486 
Q 4339 -390 4288 -259 
Q 4237 -128 4186 -26 
Q 4474 -38 4710 -38 
Q 4947 -38 5030 -32 
Q 5107 -32 5136 -6 
Q 5165 19 5165 90 
L 5165 3482 
L 5638 3482 
L 5638 83 
z
M 1779 5382 
Q 1965 5184 2144 4931 
Q 2323 4678 2413 4486 
L 1946 4307 
Q 1869 4493 1693 4752 
Q 1517 5011 1331 5222 
L 1779 5382 
z
M 5139 5242 
Q 4960 4941 4752 4633 
Q 4544 4326 4371 4102 
L 3949 4256 
Q 4064 4416 4192 4617 
Q 4320 4819 4432 5027 
Q 4544 5235 4627 5408 
L 5139 5242 
z
M 2771 3347 
L 2771 2938 
L 1197 2938 
L 1197 -480 
L 742 -480 
L 742 3347 
L 2771 3347 
z
" transform="scale(0.015625)"/>
     </defs>
     <use xlink:href="#SourceHanSansCN-Regular-128"/>
     <use xlink:href="#SourceHanSansCN-Regular-120" transform="translate(65.40625 0)"/>
     <use xlink:href="#SourceHanSansCN-Regular-7782" transform="translate(123.703125 0)"/>
     <use xlink:href="#SourceHanSansCN-Regular-3b53" transform="translate(223.703125 0)"/>
     <use xlink:href="#SourceHanSansCN-Regular-6328" transform="translate(323.703125 0)"/>
     <use xlink:href="#SourceHanSansCN-Regular-3b1d" transform="translate(423.703125 0)"/>
     <use xlink:href="#SourceHanSansCN-Regular-39da" transform="translate(523.703125 0)"/>
     <use xlink:href="#SourceHanSansCN-Regular-2279" transform="translate(623.703125 0)"/>
     <use xlink:href="#SourceHanSansCN-Regular-4a9b" transform="translate(723.703125 0)"/>
     <use xlink:href="#SourceHanSansCN-Regular-498d" transform="translate(823.703125 0)"/>
     <use xlink:href="#SourceHanSansCN-Regular-2695" transform="translate(923.703125 0)"/>
     <use xlink:href="#SourceHanSansCN-Regular-4f69" transform="translate(1023.703125 0)"/>
     <use xlink:href="#SourceHanSansCN-Regular-497c" transform="translate(1123.703125 0)"/>
    </g>
   </g>
   <g id="text_4">
    <!-- 對同一字首與 token 分別記錄機率 -->
    <g style="fill: #252525" transform="translate(119.206875 305.191575) scale(0.12 -0.12)">
     <defs>
      <path id="SourceHanSansCN-Regular-3042" d="M 6106 3654 
L 6106 3206 
L 3494 3206 
L 3494 3654 
L 6106 3654 
z
M 3526 3994 
L 3526 3584 
L 294 3584 
L 294 3994 
L 3526 3994 
z
M 3328 2618 
L 3328 2208 
L 506 2208 
L 506 2618 
L 3328 2618 
z
M 3194 1555 
L 3194 1152 
L 672 1152 
L 672 1555 
L 3194 1555 
z
M 5485 90 
Q 5485 -134 5424 -249 
Q 5363 -365 5222 -422 
Q 5082 -480 4842 -496 
Q 4602 -512 4205 -512 
Q 4198 -448 4166 -368 
Q 4134 -288 4102 -205 
Q 4070 -122 4032 -58 
Q 4326 -64 4560 -64 
Q 4794 -64 4864 -58 
Q 4954 -58 4986 -26 
Q 5018 6 5018 83 
L 5018 5357 
L 5485 5357 
L 5485 90 
z
M 4077 2694 
Q 4218 2464 4336 2201 
Q 4454 1939 4544 1689 
Q 4634 1440 4666 1242 
L 4230 1082 
Q 4198 1280 4115 1533 
Q 4032 1786 3917 2054 
Q 3802 2323 3667 2554 
L 4077 2694 
z
M 685 5171 
Q 864 4979 1040 4745 
Q 1216 4512 1293 4333 
L 966 4115 
Q 890 4294 723 4537 
Q 557 4781 378 4973 
L 685 5171 
z
M 1197 3565 
Q 1344 3405 1488 3200 
Q 1632 2995 1696 2835 
L 1338 2637 
Q 1280 2797 1139 3005 
Q 998 3213 851 3386 
L 1197 3565 
z
M 1670 5370 
L 1670 3840 
L 1274 3840 
L 1274 5370 
L 1670 5370 
z
M 2138 2483 
L 2138 173 
L 1690 173 
L 1690 2483 
L 2138 2483 
z
M 2554 5370 
L 2554 3840 
L 2157 3840 
L 2157 5370 
L 2554 5370 
z
M 294 224 
Q 691 269 1216 333 
Q 1741 397 2329 473 
Q 2918 550 3501 627 
L 3514 205 
Q 2950 128 2380 48 
Q 1811 -32 1292 -102 
Q 774 -173 358 -230 
L 294 224 
z
M 3526 4954 
Q 3354 4730 3165 4499 
Q 2976 4269 2816 4109 
L 2522 4294 
Q 2624 4410 2739 4563 
Q 2854 4717 2960 4877 
Q 3066 5037 3142 5165 
L 3526 4954 
z
M 3027 3392 
Q 2899 3136 2755 2870 
Q 2611 2605 2483 2413 
L 2125 2554 
Q 2202 2688 2294 2864 
Q 2387 3040 2470 3219 
Q 2554 3398 2605 3546 
L 3027 3392 
z
" transform="scale(0.015625)"/>
      <path id="SourceHanSansCN-Regular-284e" d="M 4838 3917 
L 4838 3501 
L 1587 3501 
L 1587 3917 
L 4838 3917 
z
M 2355 2829 
L 2355 326 
L 1914 326 
L 1914 2829 
L 2355 2829 
z
M 4493 2829 
L 4493 787 
L 2150 787 
L 2150 1203 
L 4045 1203 
L 4045 2419 
L 2150 2419 
L 2150 2829 
L 4493 2829 
z
M 5670 5043 
L 5670 4589 
L 1030 4589 
L 1030 -525 
L 563 -525 
L 563 5043 
L 5670 5043 
z
M 5850 96 
Q 5850 -122 5789 -246 
Q 5728 -371 5581 -429 
Q 5440 -486 5181 -502 
Q 4922 -518 4512 -518 
Q 4506 -454 4477 -368 
Q 4448 -282 4413 -195 
Q 4378 -109 4339 -51 
Q 4640 -58 4889 -58 
Q 5139 -58 5222 -58 
Q 5312 -51 5344 -16 
Q 5376 19 5376 102 
L 5376 5043 
L 5850 5043 
L 5850 96 
z
" transform="scale(0.015625)"/>
      <path id="SourceHanSansCN-Regular-224c" d="M 6144 2758 
L 6144 2234 
L 282 2234 
L 282 2758 
L 6144 2758 
z
" transform="scale(0.015625)"/>
      <path id="SourceHanSansCN-Regular-2f8c" d="M 4563 3526 
L 4563 3072 
L 1491 3072 
L 1491 3526 
L 4563 3526 
z
M 5952 1920 
L 5952 1459 
L 442 1459 
L 442 1920 
L 5952 1920 
z
M 3450 83 
Q 3450 -128 3386 -243 
Q 3322 -358 3149 -422 
Q 2982 -480 2716 -489 
Q 2451 -499 2042 -499 
Q 2029 -429 1993 -342 
Q 1958 -256 1916 -173 
Q 1875 -90 1837 -19 
Q 2054 -26 2249 -32 
Q 2445 -38 2592 -35 
Q 2739 -32 2797 -32 
Q 2880 -26 2912 0 
Q 2944 26 2944 90 
L 2944 2323 
L 3450 2323 
L 3450 83 
z
M 4550 3526 
L 4659 3552 
L 4986 3302 
Q 4755 3066 4464 2832 
Q 4173 2598 3853 2393 
Q 3533 2189 3213 2042 
Q 3168 2106 3088 2189 
Q 3008 2272 2944 2323 
Q 3219 2458 3497 2646 
Q 3776 2835 4022 3040 
Q 4269 3245 4422 3424 
L 4422 3526 
L 4550 3526 
z
M 5888 4710 
L 5888 3386 
L 5395 3386 
L 5395 4250 
L 992 4250 
L 992 3386 
L 512 3386 
L 512 4710 
L 5888 4710 
z
M 3181 5421 
Q 3322 5248 3446 5027 
Q 3571 4806 3629 4640 
L 3136 4467 
Q 3085 4634 2966 4861 
Q 2848 5088 2707 5274 
L 3181 5421 
z
" transform="scale(0.015625)"/>
      <path id="SourceHanSansCN-Regular-6d90" d="M 4966 2387 
L 4966 1997 
L 1453 1997 
L 1453 2387 
L 4966 2387 
z
M 4966 1344 
L 4966 960 
L 1453 960 
L 1453 1344 
L 4966 1344 
z
M 4986 282 
L 4986 -147 
L 1453 -147 
L 1453 282 
L 4986 282 
z
M 6074 4493 
L 6074 4045 
L 346 4045 
L 346 4493 
L 6074 4493 
z
M 5331 3450 
L 5331 -512 
L 4832 -512 
L 4832 3021 
L 1555 3021 
L 1555 -512 
L 1075 -512 
L 1075 3450 
L 5331 3450 
z
M 3552 4218 
Q 3462 3936 3360 3654 
Q 3258 3373 3162 3162 
L 2701 3232 
Q 2752 3379 2803 3561 
Q 2854 3744 2896 3929 
Q 2938 4115 2963 4262 
L 3552 4218 
z
M 5024 5248 
Q 4845 4992 4646 4736 
Q 4448 4480 4282 4294 
L 3866 4435 
Q 3974 4570 4089 4733 
Q 4205 4896 4313 5069 
Q 4422 5242 4493 5389 
L 5024 5248 
z
M 1882 5402 
Q 2061 5229 2227 5014 
Q 2394 4800 2483 4640 
L 2048 4410 
Q 1965 4576 1795 4803 
Q 1626 5030 1459 5216 
L 1882 5402 
z
" transform="scale(0.015625)"/>
      <path id="SourceHanSansCN-Regular-5613" d="M 5408 5056 
L 5408 4634 
L 4218 4634 
L 4218 5056 
L 5408 5056 
z
M 3981 4685 
L 3981 4275 
L 2733 4275 
L 2733 4685 
L 3981 4685 
z
M 5382 3821 
L 5382 3411 
L 4275 3411 
L 4275 3821 
L 5382 3821 
z
M 5331 2618 
L 5331 2208 
L 4243 2208 
L 4243 2618 
L 5331 2618 
z
M 2163 3840 
L 2163 3430 
L 1075 3430 
L 1075 3840 
L 2163 3840 
z
M 2182 2650 
L 2182 2240 
L 1114 2240 
L 1114 2650 
L 2182 2650 
z
M 5587 5056 
Q 5587 4602 5577 4083 
Q 5568 3565 5552 3053 
Q 5536 2541 5517 2077 
Q 5498 1613 5478 1261 
L 5024 1261 
Q 5050 1619 5072 2083 
Q 5094 2547 5110 3065 
Q 5126 3584 5136 4096 
Q 5146 4608 5146 5056 
L 5587 5056 
z
M 2246 4947 
Q 1958 4826 1609 4710 
Q 1261 4595 954 4506 
Q 934 4576 899 4675 
Q 864 4774 826 4858 
Q 1133 4960 1459 5091 
Q 1786 5222 2016 5344 
L 2246 4947 
z
M 2912 2861 
L 2912 1203 
L 2515 1203 
L 2515 2861 
L 2912 2861 
z
M 2925 5331 
L 2925 3584 
L 3763 3584 
L 3763 3194 
L 2502 3194 
L 2502 5331 
L 2925 5331 
z
M 3955 3578 
L 3955 1248 
L 3539 1248 
L 3539 3578 
L 3955 3578 
z
M 6112 1446 
L 6112 998 
L 301 998 
L 301 1446 
L 6112 1446 
z
M 4083 915 
Q 4422 762 4768 579 
Q 5114 397 5421 217 
Q 5728 38 5952 -122 
L 5638 -480 
Q 5421 -320 5123 -137 
Q 4826 45 4490 233 
Q 4154 422 3821 589 
L 4083 915 
z
M 2586 602 
Q 2330 403 2000 201 
Q 1670 0 1324 -179 
Q 979 -358 666 -499 
Q 621 -422 537 -316 
Q 454 -211 384 -141 
Q 691 -13 1027 163 
Q 1363 339 1670 531 
Q 1978 723 2176 896 
L 2586 602 
z
M 1267 4723 
L 1389 1286 
L 954 1286 
L 826 4851 
L 1267 4723 
z
" transform="scale(0.015625)"/>
      <path id="SourceHanSansCN-Regular-1" transform="scale(0.015625)"/>
      <path id="SourceHanSansCN-Regular-55" d="M 1677 -70 
Q 1312 -70 1094 77 
Q 877 224 784 486 
Q 691 749 691 1094 
L 691 3002 
L 173 3002 
L 173 3443 
L 723 3475 
L 787 4595 
L 1274 4595 
L 1274 3475 
L 2221 3475 
L 2221 3002 
L 1274 3002 
L 1274 1082 
Q 1274 755 1392 582 
Q 1510 410 1811 410 
Q 1907 410 2006 429 
Q 2106 448 2208 499 
L 2330 83 
Q 2195 19 2022 -25 
Q 1850 -70 1677 -70 
z
" transform="scale(0.015625)"/>
      <path id="SourceHanSansCN-Regular-4c" d="M 589 0 
L 589 5094 
L 1165 5094 
L 1165 1645 
L 1190 1645 
L 2662 3475 
L 3315 3475 
L 2157 2074 
L 3469 0 
L 2835 0 
L 1818 1677 
L 1165 915 
L 1165 0 
L 589 0 
z
" transform="scale(0.015625)"/>
      <path id="SourceHanSansCN-Regular-46" d="M 1997 -83 
Q 1530 -83 1152 134 
Q 774 352 553 758 
Q 333 1165 333 1734 
Q 333 2163 461 2499 
Q 589 2835 809 3075 
Q 1030 3315 1312 3440 
Q 1594 3565 1888 3565 
Q 2336 3565 2643 3366 
Q 2950 3168 3113 2800 
Q 3277 2432 3277 1933 
Q 3277 1837 3270 1753 
Q 3264 1670 3251 1600 
L 755 1600 
L 749 2016 
L 2765 2016 
Q 2765 2541 2537 2819 
Q 2310 3098 1901 3098 
Q 1658 3098 1424 2954 
Q 1190 2810 1036 2512 
Q 883 2214 890 1741 
Q 896 1293 1056 989 
Q 1216 685 1481 534 
Q 1747 384 2061 384 
Q 2317 384 2534 451 
Q 2752 518 2938 640 
L 3136 269 
Q 2912 122 2630 19 
Q 2349 -83 1997 -83 
z
" transform="scale(0.015625)"/>
      <path id="SourceHanSansCN-Regular-4f" d="M 589 0 
L 589 3475 
L 1069 3475 
L 1126 2970 
L 1139 2970 
Q 1389 3219 1667 3392 
Q 1946 3565 2304 3565 
Q 2854 3565 3110 3216 
Q 3366 2867 3366 2202 
L 3366 0 
L 2784 0 
L 2784 2125 
Q 2784 2618 2627 2835 
Q 2470 3053 2125 3053 
Q 1856 3053 1645 2918 
Q 1434 2784 1178 2522 
L 1178 0 
L 589 0 
z
" transform="scale(0.015625)"/>
      <path id="SourceHanSansCN-Regular-264e" d="M 4864 2957 
L 4864 2483 
L 1197 2483 
L 1197 2957 
L 4864 2957 
z
M 5197 2957 
Q 5197 2957 5197 2912 
Q 5197 2867 5197 2812 
Q 5197 2758 5190 2726 
Q 5152 1990 5117 1472 
Q 5082 954 5037 611 
Q 4992 269 4931 73 
Q 4870 -122 4787 -218 
Q 4685 -339 4569 -384 
Q 4454 -429 4288 -442 
Q 4128 -454 3853 -451 
Q 3578 -448 3277 -429 
Q 3270 -320 3228 -185 
Q 3187 -51 3117 51 
Q 3430 26 3699 19 
Q 3968 13 4077 13 
Q 4269 13 4352 90 
Q 4442 179 4502 473 
Q 4563 768 4611 1347 
Q 4659 1926 4698 2867 
L 4698 2957 
L 5197 2957 
z
M 2579 5107 
Q 2368 4570 2070 4080 
Q 1773 3590 1424 3177 
Q 1075 2765 691 2458 
Q 646 2509 572 2579 
Q 499 2650 419 2717 
Q 339 2784 275 2829 
Q 666 3104 1005 3481 
Q 1344 3859 1616 4307 
Q 1888 4755 2074 5248 
L 2579 5107 
z
M 4307 5261 
Q 4461 4941 4672 4605 
Q 4883 4269 5129 3955 
Q 5376 3642 5638 3376 
Q 5901 3110 6150 2918 
Q 6093 2874 6019 2803 
Q 5946 2733 5878 2659 
Q 5811 2586 5760 2515 
Q 5510 2733 5248 3027 
Q 4986 3322 4733 3661 
Q 4480 4000 4256 4365 
Q 4032 4730 3866 5082 
L 4307 5261 
z
M 2976 2822 
Q 2918 2298 2806 1802 
Q 2694 1306 2454 864 
Q 2214 422 1798 67 
Q 1382 -288 710 -531 
Q 685 -467 633 -393 
Q 582 -320 524 -246 
Q 467 -173 416 -122 
Q 1043 83 1427 396 
Q 1811 710 2022 1104 
Q 2234 1498 2326 1933 
Q 2419 2368 2470 2822 
L 2976 2822 
z
" transform="scale(0.015625)"/>
      <path id="SourceHanSansCN-Regular-266d" d="M 4262 4608 
L 4262 1056 
L 3795 1056 
L 3795 4608 
L 4262 4608 
z
M 5843 128 
Q 5843 -122 5776 -243 
Q 5709 -365 5555 -429 
Q 5395 -486 5116 -502 
Q 4838 -518 4397 -518 
Q 4384 -454 4352 -364 
Q 4320 -275 4288 -185 
Q 4256 -96 4218 -32 
Q 4557 -38 4832 -41 
Q 5107 -45 5197 -38 
Q 5286 -32 5324 3 
Q 5363 38 5363 128 
L 5363 5254 
L 5843 5254 
L 5843 128 
z
M 2938 2291 
L 2938 1862 
L 1427 1862 
L 1427 2291 
L 2938 2291 
z
M 3187 2291 
Q 3187 2291 3184 2256 
Q 3181 2221 3181 2173 
Q 3181 2125 3181 2093 
Q 3149 1286 3107 796 
Q 3066 307 3011 54 
Q 2957 -198 2867 -301 
Q 2790 -403 2691 -438 
Q 2592 -474 2451 -486 
Q 2330 -499 2115 -499 
Q 1901 -499 1664 -486 
Q 1658 -390 1622 -268 
Q 1587 -147 1530 -58 
Q 1773 -83 1974 -86 
Q 2176 -90 2259 -90 
Q 2342 -90 2393 -80 
Q 2445 -70 2483 -19 
Q 2547 45 2592 281 
Q 2637 518 2672 982 
Q 2707 1446 2739 2214 
L 2739 2291 
L 3187 2291 
z
M 1050 3418 
L 2682 3418 
L 2682 4653 
L 1050 4653 
L 1050 3418 
z
M 3142 5082 
L 3142 2982 
L 608 2982 
L 608 5082 
L 3142 5082 
z
M 1786 3149 
Q 1760 2643 1699 2121 
Q 1638 1600 1510 1110 
Q 1382 621 1148 201 
Q 915 -218 550 -525 
Q 493 -442 397 -346 
Q 301 -250 211 -198 
Q 557 83 765 467 
Q 973 851 1085 1302 
Q 1197 1754 1245 2224 
Q 1293 2694 1312 3149 
L 1786 3149 
z
" transform="scale(0.015625)"/>
      <path id="SourceHanSansCN-Regular-5e1c" d="M 5523 2925 
L 5523 2470 
L 3366 2470 
L 3366 2925 
L 5523 2925 
z
M 3667 378 
Q 3667 186 3744 128 
Q 3821 70 4083 70 
Q 4141 70 4301 70 
Q 4461 70 4656 70 
Q 4851 70 5020 70 
Q 5190 70 5267 70 
Q 5446 70 5529 150 
Q 5613 230 5648 457 
Q 5683 685 5702 1133 
Q 5760 1094 5837 1056 
Q 5914 1018 5997 986 
Q 6080 954 6150 941 
Q 6118 422 6038 134 
Q 5958 -154 5785 -269 
Q 5613 -384 5293 -384 
Q 5248 -384 5120 -384 
Q 4992 -384 4829 -384 
Q 4666 -384 4502 -384 
Q 4339 -384 4211 -384 
Q 4083 -384 4038 -384 
Q 3712 -384 3526 -320 
Q 3341 -256 3264 -93 
Q 3187 70 3187 378 
L 3187 2925 
L 3667 2925 
L 3667 378 
z
M 5754 5024 
L 5754 2125 
L 5274 2125 
L 5274 4563 
L 3104 4563 
L 3104 5024 
L 5754 5024 
z
M 2509 3475 
L 2509 3098 
L 582 3098 
L 582 3475 
L 2509 3475 
z
M 2637 2579 
L 2637 2195 
L 461 2195 
L 461 2579 
L 2637 2579 
z
M 2835 4378 
L 2835 3981 
L 269 3981 
L 269 4378 
L 2835 4378 
z
M 2528 1709 
L 2528 -166 
L 774 -166 
L 774 230 
L 2099 230 
L 2099 1312 
L 774 1312 
L 774 1709 
L 2528 1709 
z
M 966 1709 
L 966 -461 
L 538 -461 
L 538 1709 
L 966 1709 
z
M 1389 5414 
Q 1555 5235 1708 5020 
Q 1862 4806 1939 4640 
L 1549 4410 
Q 1478 4576 1328 4806 
Q 1178 5037 1018 5210 
L 1389 5414 
z
" transform="scale(0.015625)"/>
      <path id="SourceHanSansCN-Regular-6704" d="M 5274 4915 
L 5274 4512 
L 3667 4512 
L 3667 4915 
L 5274 4915 
z
M 5011 3834 
L 5011 3437 
L 3334 3437 
L 3334 3834 
L 5011 3834 
z
M 6118 2989 
L 6118 2560 
L 2662 2560 
L 2662 2989 
L 6118 2989 
z
M 4506 26 
Q 4506 -173 4458 -278 
Q 4410 -384 4288 -435 
Q 4160 -493 3945 -505 
Q 3731 -518 3418 -512 
Q 3405 -422 3360 -294 
Q 3315 -166 3277 -77 
Q 3526 -83 3731 -86 
Q 3936 -90 4000 -83 
Q 4070 -77 4092 -54 
Q 4115 -32 4115 32 
L 4115 2739 
L 4506 2739 
L 4506 26 
z
M 3981 5299 
Q 3898 4992 3798 4649 
Q 3699 4307 3600 3990 
Q 3501 3674 3411 3437 
L 2982 3437 
Q 3078 3686 3184 4022 
Q 3290 4358 3392 4710 
Q 3494 5062 3571 5370 
L 3981 5299 
z
M 5254 4915 
L 5325 4941 
L 5613 4870 
Q 5549 4557 5462 4179 
Q 5376 3802 5280 3421 
Q 5184 3040 5088 2701 
L 4704 2778 
Q 4794 3117 4893 3504 
Q 4992 3891 5075 4252 
Q 5158 4614 5203 4851 
L 5203 4915 
L 5254 4915 
z
M 6016 2144 
Q 5792 1920 5529 1693 
Q 5267 1466 5043 1312 
L 4800 1549 
Q 4941 1664 5110 1814 
Q 5280 1965 5437 2128 
Q 5594 2291 5709 2426 
L 6016 2144 
z
M 3155 2400 
Q 3334 2214 3526 1977 
Q 3718 1741 3808 1568 
L 3488 1344 
Q 3398 1517 3212 1763 
Q 3027 2010 2854 2202 
L 3155 2400 
z
M 2611 486 
Q 2925 653 3376 918 
Q 3827 1184 4282 1466 
L 4371 1101 
Q 3974 838 3564 579 
Q 3155 320 2816 115 
L 2611 486 
z
M 4512 2579 
Q 4672 2106 4925 1664 
Q 5178 1222 5501 867 
Q 5824 512 6182 294 
Q 6106 230 6022 115 
Q 5939 0 5882 -90 
Q 5523 166 5200 563 
Q 4877 960 4614 1446 
Q 4352 1933 4173 2458 
L 4512 2579 
z
M 2381 3744 
L 2381 3334 
L 710 3334 
L 710 3744 
L 2381 3744 
z
M 2573 2630 
L 2573 2214 
L 371 2214 
L 371 2630 
L 2573 2630 
z
M 800 1869 
Q 890 1587 957 1260 
Q 1024 934 1050 691 
L 717 595 
Q 698 838 634 1171 
Q 570 1504 486 1786 
L 800 1869 
z
M 294 141 
Q 570 192 938 269 
Q 1306 346 1725 435 
Q 2144 525 2566 614 
L 2592 224 
Q 2016 90 1430 -48 
Q 845 -186 397 -294 
L 294 141 
z
M 2515 1830 
Q 2432 1536 2333 1213 
Q 2234 890 2157 659 
L 1869 768 
Q 1920 928 1974 1136 
Q 2029 1344 2077 1558 
Q 2125 1773 2150 1946 
L 2515 1830 
z
M 1715 3565 
L 1715 154 
L 1312 83 
L 1312 3565 
L 1715 3565 
z
M 1850 5248 
Q 1683 4877 1446 4525 
Q 1210 4173 941 3869 
Q 672 3565 403 3328 
Q 384 3386 349 3478 
Q 314 3571 272 3667 
Q 230 3763 198 3821 
Q 563 4102 915 4521 
Q 1267 4941 1485 5414 
L 1850 5248 
z
M 1517 5107 
Q 1747 4960 1974 4793 
Q 2202 4627 2403 4457 
Q 2605 4288 2746 4141 
L 2528 3750 
Q 2387 3904 2185 4080 
Q 1984 4256 1763 4432 
Q 1542 4608 1325 4749 
L 1517 5107 
z
" transform="scale(0.015625)"/>
      <path id="SourceHanSansCN-Regular-3e84" d="M 1946 4141 
L 1946 3693 
L 314 3693 
L 314 4141 
L 1946 4141 
z
M 1408 5376 
L 1408 -506 
L 1018 -506 
L 1018 5376 
L 1408 5376 
z
M 1242 3763 
Q 1184 3392 1097 2982 
Q 1011 2573 899 2179 
Q 787 1786 656 1446 
Q 525 1107 390 870 
Q 378 941 336 1027 
Q 294 1114 252 1197 
Q 211 1280 173 1338 
Q 301 1549 425 1846 
Q 550 2144 656 2489 
Q 762 2835 848 3190 
Q 934 3546 986 3872 
L 1242 3763 
z
M 1370 3328 
Q 1414 3270 1500 3126 
Q 1587 2982 1689 2816 
Q 1792 2650 1875 2506 
Q 1958 2362 1997 2291 
L 1754 1939 
Q 1715 2048 1638 2214 
Q 1562 2381 1475 2560 
Q 1389 2739 1312 2896 
Q 1235 3053 1184 3136 
L 1370 3328 
z
M 5990 2067 
L 5990 1677 
L 2061 1677 
L 2061 2067 
L 5990 2067 
z
M 2906 1466 
Q 3072 1350 3248 1203 
Q 3424 1056 3584 912 
Q 3744 768 3846 659 
L 3546 371 
Q 3443 486 3286 633 
Q 3130 781 2957 937 
Q 2784 1094 2618 1216 
L 2906 1466 
z
M 4960 2707 
Q 5133 2611 5325 2476 
Q 5517 2342 5626 2246 
L 5376 1984 
Q 5267 2093 5078 2233 
Q 4890 2374 4710 2477 
L 4960 2707 
z
M 5702 1459 
Q 5382 806 4793 316 
Q 4205 -173 3450 -474 
Q 3411 -410 3331 -320 
Q 3251 -230 3187 -173 
Q 3917 109 4467 569 
Q 5018 1030 5293 1613 
L 5702 1459 
z
M 2970 1914 
Q 2970 1632 2922 1321 
Q 2874 1011 2758 691 
Q 2643 371 2435 67 
Q 2227 -237 1901 -493 
Q 1869 -442 1811 -384 
Q 1754 -326 1696 -272 
Q 1638 -218 1587 -192 
Q 1997 128 2201 496 
Q 2406 864 2480 1235 
Q 2554 1606 2554 1920 
L 2554 2451 
L 2970 2451 
L 2970 1914 
z
M 4083 5331 
Q 4109 4192 4205 3225 
Q 4301 2259 4477 1539 
Q 4653 819 4925 409 
Q 5197 0 5574 -38 
Q 5677 -45 5744 134 
Q 5811 314 5850 659 
Q 5888 614 5949 566 
Q 6010 518 6070 480 
Q 6131 442 6176 422 
Q 6112 64 6025 -141 
Q 5939 -346 5830 -432 
Q 5722 -518 5594 -506 
Q 5165 -480 4854 -185 
Q 4544 109 4329 630 
Q 4115 1152 3980 1872 
Q 3846 2592 3772 3465 
Q 3699 4339 3667 5331 
L 4083 5331 
z
M 3411 3488 
Q 3514 3258 3606 2986 
Q 3699 2714 3738 2534 
L 3418 2426 
Q 3379 2618 3289 2893 
Q 3200 3168 3104 3405 
L 3411 3488 
z
M 2131 3578 
Q 2118 3635 2083 3744 
Q 2048 3853 2022 3923 
Q 2080 3936 2141 3997 
Q 2202 4058 2266 4154 
Q 2304 4218 2406 4384 
Q 2509 4550 2624 4777 
Q 2739 5005 2816 5235 
L 3162 5120 
Q 2989 4742 2777 4384 
Q 2566 4026 2362 3782 
L 2362 3770 
Q 2362 3770 2304 3741 
Q 2246 3712 2188 3667 
Q 2131 3622 2131 3578 
z
M 2125 3859 
L 2317 3974 
L 3213 4070 
Q 3181 3994 3145 3898 
Q 3110 3802 3085 3750 
Q 2720 3706 2528 3674 
Q 2336 3642 2256 3619 
Q 2176 3597 2131 3578 
L 2125 3859 
z
M 2189 2477 
Q 2176 2534 2141 2649 
Q 2106 2765 2080 2829 
Q 2150 2848 2233 2921 
Q 2317 2995 2406 3117 
Q 2470 3194 2617 3402 
Q 2765 3610 2937 3891 
Q 3110 4173 3245 4461 
L 3590 4333 
Q 3328 3866 3017 3427 
Q 2707 2989 2406 2688 
L 2406 2675 
Q 2406 2675 2355 2643 
Q 2304 2611 2246 2566 
Q 2189 2522 2189 2477 
z
M 2182 2765 
L 2368 2880 
L 3430 3002 
Q 3443 2931 3465 2844 
Q 3488 2758 3507 2701 
Q 3110 2643 2867 2611 
Q 2624 2579 2486 2553 
Q 2349 2528 2288 2512 
Q 2227 2496 2189 2477 
L 2182 2765 
z
M 5702 3603 
Q 5811 3373 5913 3101 
Q 6016 2829 6054 2650 
L 5747 2534 
Q 5702 2720 5606 3001 
Q 5510 3283 5408 3514 
L 5702 3603 
z
M 4429 3706 
Q 4416 3763 4381 3875 
Q 4346 3987 4314 4058 
Q 4416 4070 4531 4262 
Q 4570 4320 4659 4470 
Q 4749 4621 4848 4832 
Q 4947 5043 5011 5254 
L 5357 5139 
Q 5210 4787 5021 4460 
Q 4832 4134 4653 3910 
L 4653 3904 
Q 4653 3904 4598 3872 
Q 4544 3840 4486 3795 
Q 4429 3750 4429 3706 
z
M 4422 3987 
L 4608 4109 
L 5472 4192 
Q 5434 4115 5402 4022 
Q 5370 3930 5350 3872 
Q 4998 3827 4812 3795 
Q 4627 3763 4547 3744 
Q 4467 3725 4429 3706 
L 4422 3987 
z
M 4493 2605 
Q 4480 2656 4445 2774 
Q 4410 2893 4378 2970 
Q 4454 2982 4531 3056 
Q 4608 3130 4691 3251 
Q 4762 3328 4902 3539 
Q 5043 3750 5206 4032 
Q 5370 4314 5498 4602 
L 5850 4467 
Q 5600 4000 5305 3565 
Q 5011 3130 4723 2810 
L 4723 2797 
Q 4723 2797 4665 2765 
Q 4608 2733 4550 2688 
Q 4493 2643 4493 2605 
z
M 4486 2886 
L 4672 3002 
L 5734 3123 
Q 5747 3053 5769 2966 
Q 5792 2880 5811 2822 
Q 5408 2771 5165 2736 
Q 4922 2701 4787 2675 
Q 4653 2650 4592 2637 
Q 4531 2624 4493 2605 
L 4486 2886 
z
" transform="scale(0.015625)"/>
      <path id="SourceHanSansCN-Regular-47a1" d="M 3456 1818 
L 3456 -512 
L 2944 -512 
L 2944 1818 
L 3456 1818 
z
M 6080 1293 
L 6080 845 
L 326 845 
L 326 1293 
L 6080 1293 
z
M 6022 4800 
L 6022 4358 
L 454 4358 
L 454 4800 
L 6022 4800 
z
M 5709 3872 
Q 5491 3648 5228 3433 
Q 4966 3219 4749 3066 
L 4397 3296 
Q 4544 3405 4710 3545 
Q 4877 3686 5033 3836 
Q 5190 3987 5306 4115 
L 5709 3872 
z
M 3885 2982 
Q 4032 2822 4176 2624 
Q 4320 2426 4441 2237 
Q 4563 2048 4627 1894 
L 4250 1728 
Q 4186 1882 4070 2074 
Q 3955 2266 3814 2467 
Q 3674 2669 3526 2835 
L 3885 2982 
z
M 358 2157 
Q 659 2285 1081 2480 
Q 1504 2675 1946 2886 
L 2042 2528 
Q 1670 2323 1296 2124 
Q 922 1926 602 1773 
L 358 2157 
z
M 870 4096 
Q 1043 3994 1232 3869 
Q 1421 3744 1584 3613 
Q 1747 3482 1856 3373 
L 1510 3078 
Q 1414 3187 1251 3321 
Q 1088 3456 902 3593 
Q 717 3731 544 3834 
L 870 4096 
z
M 4672 2867 
Q 4890 2746 5133 2592 
Q 5376 2438 5593 2281 
Q 5811 2125 5952 1997 
L 5594 1702 
Q 5459 1830 5248 1990 
Q 5037 2150 4797 2313 
Q 4557 2477 4333 2611 
L 4672 2867 
z
M 2163 3091 
Q 2150 3136 2128 3213 
Q 2106 3290 2080 3366 
Q 2054 3443 2029 3501 
Q 2093 3514 2166 3568 
Q 2240 3622 2310 3706 
Q 2368 3763 2486 3913 
Q 2605 4064 2742 4265 
Q 2880 4467 2982 4685 
L 3398 4512 
Q 3194 4173 2938 3859 
Q 2682 3546 2438 3328 
L 2438 3315 
Q 2438 3315 2396 3296 
Q 2355 3277 2300 3241 
Q 2246 3206 2204 3168 
Q 2163 3130 2163 3091 
z
M 2163 3424 
L 2400 3565 
L 3648 3635 
Q 3616 3546 3593 3434 
Q 3571 3322 3558 3251 
Q 3142 3219 2886 3196 
Q 2630 3174 2486 3158 
Q 2342 3142 2272 3126 
Q 2202 3110 2163 3091 
L 2163 3424 
z
M 2035 1818 
Q 2029 1862 2003 1936 
Q 1978 2010 1952 2090 
Q 1926 2170 1901 2234 
Q 2010 2253 2138 2336 
Q 2266 2419 2426 2554 
Q 2515 2624 2688 2784 
Q 2861 2944 3078 3161 
Q 3296 3379 3526 3635 
Q 3757 3891 3955 4160 
L 4339 3936 
Q 3872 3386 3353 2893 
Q 2835 2400 2323 2042 
L 2323 2029 
Q 2323 2029 2281 2009 
Q 2240 1990 2182 1955 
Q 2125 1920 2080 1885 
Q 2035 1850 2035 1818 
z
M 2029 2144 
L 2272 2291 
L 4230 2451 
Q 4224 2368 4221 2259 
Q 4218 2150 4224 2080 
Q 3539 2016 3129 1974 
Q 2720 1933 2499 1907 
Q 2278 1882 2182 1859 
Q 2086 1837 2035 1818 
L 2029 2144 
z
M 3251 5421 
Q 3373 5267 3491 5072 
Q 3610 4877 3674 4730 
L 3187 4576 
Q 3130 4723 3011 4928 
Q 2893 5133 2784 5299 
L 3251 5421 
z
" transform="scale(0.015625)"/>
     </defs>
     <use xlink:href="#SourceHanSansCN-Regular-3042"/>
     <use xlink:href="#SourceHanSansCN-Regular-284e" transform="translate(100 0)"/>
     <use xlink:href="#SourceHanSansCN-Regular-224c" transform="translate(200 0)"/>
     <use xlink:href="#SourceHanSansCN-Regular-2f8c" transform="translate(300 0)"/>
     <use xlink:href="#SourceHanSansCN-Regular-6d90" transform="translate(400 0)"/>
     <use xlink:href="#SourceHanSansCN-Regular-5613" transform="translate(500 0)"/>
     <use xlink:href="#SourceHanSansCN-Regular-1" transform="translate(600 0)"/>
     <use xlink:href="#SourceHanSansCN-Regular-55" transform="translate(622.40625 0)"/>
     <use xlink:href="#SourceHanSansCN-Regular-50" transform="translate(658.609375 0)"/>
     <use xlink:href="#SourceHanSansCN-Regular-4c" transform="translate(719.203125 0)"/>
     <use xlink:href="#SourceHanSansCN-Regular-46" transform="translate(772.40625 0)"/>
     <use xlink:href="#SourceHanSansCN-Regular-4f" transform="translate(827.8125 0)"/>
     <use xlink:href="#SourceHanSansCN-Regular-1" transform="translate(888.8125 0)"/>
     <use xlink:href="#SourceHanSansCN-Regular-264e" transform="translate(911.21875 0)"/>
     <use xlink:href="#SourceHanSansCN-Regular-266d" transform="translate(1011.21875 0)"/>
     <use xlink:href="#SourceHanSansCN-Regular-5e1c" transform="translate(1111.21875 0)"/>
     <use xlink:href="#SourceHanSansCN-Regular-6704" transform="translate(1211.21875 0)"/>
     <use xlink:href="#SourceHanSansCN-Regular-3e84" transform="translate(1311.21875 0)"/>
     <use xlink:href="#SourceHanSansCN-Regular-47a1" transform="translate(1411.21875 0)"/>
    </g>
   </g>
  </g>
 </g>
 <defs>
  <clipPath id="p92e50b13e7">
   <rect x="14.6916" y="11.34" width="390.3768" height="301.32"/>
  </clipPath>
 </defs>
</svg>
